<svg width="390" height="844" viewBox="0 0 390 844" fill="none" xmlns="http://www.w3.org/2000/svg">
<g clip-path="url(#clip0_5_72)">
<rect width="390" height="844" fill="#09090A"/>
<rect x="124.8" y="830.96" width="140.4" height="5.20001" rx="2.60001" fill="white"/>
<path d="M85 0H304C301.894 0.602689 300.418 2.49525 300.345 4.68446L300.317 5.5618C300.317 19.0587 289.375 30 275.878 30H113.122C99.6249 30 88.6835 19.0587 88.6835 5.5618L88.6545 4.68447C88.5823 2.49525 87.1059 0.602689 85 0Z" fill="#1E1E1E"/>
<path opacity="0.35" d="M351.5 22C351.5 20.8034 352.47 19.8334 353.667 19.8334H370.333C371.53 19.8334 372.5 20.8034 372.5 22V28C372.5 29.1967 371.53 30.1667 370.333 30.1667H353.667C352.47 30.1667 351.5 29.1967 351.5 28V22Z" fill="white" stroke="#1E1E1E"/>
<path opacity="0.4" d="M374 23.0001V27.0001C374.805 26.6613 375.328 25.8732 375.328 25.0001C375.328 24.1269 374.805 23.3388 374 23.0001Z" fill="white"/>
<path d="M353 22.6667C353 21.9303 353.597 21.3334 354.333 21.3334H369.667C370.403 21.3334 371 21.9303 371 22.6667V27.3334C371 28.0698 370.403 28.6667 369.667 28.6667H354.333C353.597 28.6667 353 28.0698 353 27.3334V22.6667Z" fill="white"/>
<path fill-rule="evenodd" clip-rule="evenodd" d="M338.33 21.608C340.546 21.6081 342.677 22.4596 344.283 23.9863C344.404 24.1042 344.598 24.1027 344.717 23.983L345.873 22.8163C345.933 22.7556 345.967 22.6734 345.966 22.5878C345.966 22.5022 345.931 22.4204 345.87 22.3603C341.655 18.3208 335.005 18.3208 330.79 22.3603C330.729 22.4203 330.694 22.5021 330.694 22.5877C330.693 22.6733 330.727 22.7556 330.787 22.8163L331.943 23.983C332.062 24.1029 332.256 24.1044 332.377 23.9863C333.983 22.4595 336.114 21.608 338.33 21.608ZM338.33 25.4037C339.548 25.4036 340.722 25.8561 341.624 26.6733C341.746 26.7893 341.939 26.7868 342.058 26.6677L343.212 25.501C343.273 25.4398 343.307 25.3568 343.306 25.2705C343.305 25.1843 343.27 25.102 343.208 25.042C340.459 22.4856 336.204 22.4856 333.455 25.042C333.393 25.102 333.358 25.1843 333.357 25.2706C333.356 25.3569 333.39 25.4399 333.451 25.501L334.605 26.6677C334.724 26.7868 334.917 26.7893 335.039 26.6733C335.941 25.8567 337.114 25.4042 338.33 25.4037ZM340.643 27.9575C340.645 28.044 340.611 28.1274 340.549 28.188L338.552 30.2037C338.493 30.2629 338.414 30.2963 338.33 30.2963C338.247 30.2963 338.167 30.2629 338.109 30.2037L336.111 28.188C336.049 28.1274 336.015 28.0439 336.017 27.9574C336.019 27.8709 336.056 27.789 336.121 27.731C337.396 26.6521 339.264 26.6521 340.54 27.731C340.604 27.789 340.642 27.871 340.643 27.9575Z" fill="white"/>
<path fill-rule="evenodd" clip-rule="evenodd" d="M324.667 19.6666H323.667C323.114 19.6666 322.667 20.1143 322.667 20.6666V29.3333C322.667 29.8856 323.114 30.3333 323.667 30.3333H324.667C325.219 30.3333 325.667 29.8856 325.667 29.3333V20.6666C325.667 20.1143 325.219 19.6666 324.667 19.6666ZM319 22H320C320.552 22 321 22.4477 321 23V29.3333C321 29.8856 320.552 30.3333 320 30.3333H319C318.448 30.3333 318 29.8856 318 29.3333V23C318 22.4477 318.448 22 319 22ZM315.333 24.3333H314.333C313.781 24.3333 313.333 24.781 313.333 25.3333V29.3333C313.333 29.8856 313.781 30.3333 314.333 30.3333H315.333C315.886 30.3333 316.333 29.8856 316.333 29.3333V25.3333C316.333 24.781 315.886 24.3333 315.333 24.3333ZM310.667 26.3333H309.667C309.114 26.3333 308.667 26.781 308.667 27.3333V29.3333C308.667 29.8856 309.114 30.3333 309.667 30.3333H310.667C311.219 30.3333 311.667 29.8856 311.667 29.3333V27.3333C311.667 26.781 311.219 26.3333 310.667 26.3333Z" fill="white"/>
<path d="M37.3207 30.2563C40.0087 30.2563 41.6054 28.1543 41.6054 24.5947C41.6054 23.2544 41.349 22.1265 40.8583 21.2549C40.1479 19.8999 38.9247 19.1675 37.3793 19.1675C35.0795 19.1675 33.4535 20.7129 33.4535 22.8809C33.4535 24.917 34.9184 26.3965 36.9325 26.3965C38.1703 26.3965 39.1737 25.8179 39.6718 24.8145H39.6938C39.6938 24.8145 39.7231 24.8145 39.7304 24.8145C39.745 24.8145 39.7963 24.8145 39.7963 24.8145C39.7963 27.2314 38.8808 28.6743 37.3354 28.6743C36.4272 28.6743 35.724 28.1763 35.4823 27.3779H33.6C33.9149 29.1138 35.3871 30.2563 37.3207 30.2563ZM37.3866 24.895C36.1708 24.895 35.3065 24.0308 35.3065 22.8223C35.3065 21.6431 36.2148 20.7422 37.394 20.7422C38.5732 20.7422 39.4814 21.6577 39.4814 22.8516C39.4814 24.0308 38.5951 24.895 37.3866 24.895Z" fill="white"/>
<path d="M44.6965 30.1538C45.3923 30.1538 45.8684 29.6558 45.8684 28.9966C45.8684 28.3301 45.3923 27.8394 44.6965 27.8394C44.008 27.8394 43.5246 28.3301 43.5246 28.9966C43.5246 29.6558 44.008 30.1538 44.6965 30.1538ZM44.6965 24.6606C45.3923 24.6606 45.8684 24.1699 45.8684 23.5107C45.8684 22.8442 45.3923 22.3535 44.6965 22.3535C44.008 22.3535 43.5246 22.8442 43.5246 23.5107C43.5246 24.1699 44.008 24.6606 44.6965 24.6606Z" fill="white"/>
<path d="M52.7241 30H54.5332V28.0298H55.9614V26.4331H54.5332V19.4312H51.8672C49.9995 22.2437 48.5127 24.5947 47.5606 26.3452V28.0298H52.7241V30ZM49.311 26.3672C50.5415 24.1992 51.6401 22.4634 52.6509 20.9692H52.7534V26.4771H49.311V26.3672Z" fill="white"/>
<path d="M59.99 30H61.8797V19.4312H59.9974L57.2361 21.3647V23.1812L59.8655 21.3354H59.99V30Z" fill="white"/>
<path d="M43.3409 164.568C41.3106 164.568 39.5606 164.087 38.0909 163.125C36.6212 162.155 35.4886 160.765 34.6932 158.955C33.8977 157.136 33.5038 154.951 33.5114 152.398C33.5189 149.845 33.9167 147.678 34.7045 145.898C35.5 144.11 36.6288 142.75 38.0909 141.818C39.5606 140.879 41.3106 140.409 43.3409 140.409C45.3712 140.409 47.1212 140.879 48.5909 141.818C50.0682 142.75 51.2045 144.11 52 145.898C52.7955 147.686 53.1894 149.852 53.1818 152.398C53.1818 154.958 52.7841 157.148 51.9886 158.966C51.1932 160.784 50.0606 162.174 48.5909 163.136C47.1288 164.091 45.3788 164.568 43.3409 164.568ZM43.3409 159.966C44.553 159.966 45.5341 159.348 46.2841 158.114C47.0341 156.871 47.4053 154.966 47.3977 152.398C47.3977 150.716 47.2273 149.33 46.8864 148.239C46.5455 147.14 46.072 146.322 45.4659 145.784C44.8598 145.246 44.1515 144.977 43.3409 144.977C42.1364 144.977 41.1629 145.587 40.4205 146.807C39.678 148.019 39.303 149.883 39.2955 152.398C39.2879 154.102 39.4508 155.515 39.7841 156.636C40.125 157.758 40.6023 158.595 41.2159 159.148C41.8295 159.693 42.5379 159.966 43.3409 159.966ZM65.2557 164.318C63.483 164.318 61.911 164.015 60.5398 163.409C59.1761 162.795 58.1004 161.951 57.3125 160.875C56.5246 159.799 56.1231 158.561 56.108 157.159H61.767C61.7898 157.667 61.9527 158.117 62.2557 158.511C62.5587 158.898 62.9716 159.201 63.4943 159.42C64.017 159.64 64.6117 159.75 65.2784 159.75C65.9451 159.75 66.5322 159.633 67.0398 159.398C67.5549 159.155 67.9564 158.826 68.2443 158.409C68.5322 157.985 68.6723 157.5 68.6648 156.955C68.6723 156.409 68.517 155.924 68.1989 155.5C67.8807 155.076 67.4299 154.746 66.8466 154.511C66.2708 154.277 65.589 154.159 64.8011 154.159H62.5398V150.159H64.8011C65.4905 150.159 66.0966 150.045 66.6193 149.818C67.1496 149.591 67.5625 149.273 67.858 148.864C68.1534 148.447 68.2973 147.97 68.2898 147.432C68.2973 146.909 68.1723 146.451 67.9148 146.057C67.6648 145.655 67.3125 145.345 66.858 145.125C66.411 144.905 65.892 144.795 65.3011 144.795C64.6799 144.795 64.1155 144.905 63.608 145.125C63.108 145.345 62.7102 145.655 62.4148 146.057C62.1193 146.458 61.964 146.924 61.9489 147.455H56.5739C56.589 146.068 56.9754 144.848 57.733 143.795C58.4905 142.735 59.5208 141.905 60.8239 141.307C62.1345 140.708 63.6269 140.409 65.3011 140.409C66.9678 140.409 68.4337 140.701 69.6989 141.284C70.964 141.867 71.9489 142.663 72.6534 143.67C73.358 144.67 73.7102 145.803 73.7102 147.068C73.7178 148.379 73.2898 149.458 72.4261 150.307C71.5701 151.155 70.4678 151.678 69.1193 151.875V152.057C70.9223 152.269 72.2822 152.852 73.1989 153.807C74.1231 154.761 74.5814 155.955 74.5739 157.386C74.5739 158.735 74.1761 159.932 73.3807 160.977C72.5928 162.015 71.4943 162.833 70.0852 163.432C68.6837 164.023 67.0739 164.318 65.2557 164.318ZM88.5653 139.636L81.0653 167.5H76.3267L83.8267 139.636H88.5653ZM100.216 164.568C98.1856 164.568 96.4356 164.087 94.9659 163.125C93.4962 162.155 92.3636 160.765 91.5682 158.955C90.7727 157.136 90.3788 154.951 90.3864 152.398C90.3939 149.845 90.7917 147.678 91.5795 145.898C92.375 144.11 93.5038 142.75 94.9659 141.818C96.4356 140.879 98.1856 140.409 100.216 140.409C102.246 140.409 103.996 140.879 105.466 141.818C106.943 142.75 108.08 144.11 108.875 145.898C109.67 147.686 110.064 149.852 110.057 152.398C110.057 154.958 109.659 157.148 108.864 158.966C108.068 160.784 106.936 162.174 105.466 163.136C104.004 164.091 102.254 164.568 100.216 164.568ZM100.216 159.966C101.428 159.966 102.409 159.348 103.159 158.114C103.909 156.871 104.28 154.966 104.273 152.398C104.273 150.716 104.102 149.33 103.761 148.239C103.42 147.14 102.947 146.322 102.341 145.784C101.735 145.246 101.027 144.977 100.216 144.977C99.0114 144.977 98.0379 145.587 97.2955 146.807C96.553 148.019 96.178 149.883 96.1705 152.398C96.1629 154.102 96.3258 155.515 96.6591 156.636C97 157.758 97.4773 158.595 98.0909 159.148C98.7045 159.693 99.4129 159.966 100.216 159.966ZM124.04 140.727V164H118.426V145.977H118.29L113.085 149.159V144.295L118.824 140.727H124.04Z" fill="white"/>
<path d="M37.4148 113.273V114.864H32.3977V113.273H37.4148ZM33.6364 111.182H35.6932V119.375C35.6932 119.652 35.7348 119.864 35.8182 120.011C35.9053 120.155 36.0189 120.254 36.1591 120.307C36.2992 120.36 36.4545 120.386 36.625 120.386C36.7538 120.386 36.8712 120.377 36.9773 120.358C37.0871 120.339 37.1705 120.322 37.2273 120.307L37.5739 121.915C37.464 121.953 37.3068 121.994 37.1023 122.04C36.9015 122.085 36.6553 122.112 36.3636 122.119C35.8485 122.134 35.3845 122.057 34.9716 121.886C34.5587 121.712 34.2311 121.443 33.9886 121.08C33.75 120.716 33.6326 120.261 33.6364 119.716V111.182ZM42.9048 122.17C42.0298 122.17 41.2741 121.989 40.6378 121.625C40.0052 121.258 39.5185 120.739 39.1776 120.068C38.8366 119.394 38.6662 118.6 38.6662 117.688C38.6662 116.79 38.8366 116.002 39.1776 115.324C39.5223 114.642 40.0033 114.112 40.6207 113.733C41.2382 113.35 41.9635 113.159 42.7969 113.159C43.3348 113.159 43.8423 113.246 44.3196 113.42C44.8007 113.591 45.2249 113.856 45.5923 114.216C45.9635 114.576 46.2552 115.034 46.4673 115.591C46.6795 116.144 46.7855 116.803 46.7855 117.568V118.199H39.6321V116.812H44.8139C44.8101 116.419 44.7249 116.068 44.5582 115.761C44.3916 115.451 44.1586 115.206 43.8594 115.028C43.5639 114.85 43.2192 114.761 42.8253 114.761C42.4048 114.761 42.0355 114.864 41.7173 115.068C41.3991 115.269 41.151 115.534 40.973 115.864C40.7988 116.189 40.7098 116.547 40.706 116.938V118.148C40.706 118.655 40.7988 119.091 40.9844 119.455C41.17 119.814 41.4295 120.091 41.7628 120.284C42.0961 120.473 42.4863 120.568 42.9332 120.568C43.2325 120.568 43.5033 120.527 43.7457 120.443C43.9882 120.356 44.1984 120.229 44.3764 120.062C44.5545 119.896 44.6889 119.689 44.7798 119.443L46.7003 119.659C46.5791 120.167 46.348 120.61 46.0071 120.989C45.67 121.364 45.2382 121.655 44.7116 121.864C44.1851 122.068 43.5829 122.17 42.9048 122.17ZM48.5256 122V113.273H50.5199V114.727H50.6108C50.7699 114.223 51.0426 113.835 51.429 113.562C51.8191 113.286 52.2642 113.148 52.7642 113.148C52.8778 113.148 53.0047 113.153 53.1449 113.165C53.2888 113.172 53.4081 113.186 53.5028 113.205V115.097C53.4157 115.066 53.2775 115.04 53.0881 115.017C52.9025 114.991 52.7225 114.977 52.5483 114.977C52.1733 114.977 51.8362 115.059 51.5369 115.222C51.2415 115.381 51.0085 115.602 50.8381 115.886C50.6676 116.17 50.5824 116.498 50.5824 116.869V122H48.5256ZM58.3168 122.17C57.4455 122.17 56.6974 121.979 56.0724 121.597C55.4512 121.214 54.9721 120.686 54.6349 120.011C54.3016 119.333 54.1349 118.553 54.1349 117.67C54.1349 116.784 54.3054 116.002 54.6463 115.324C54.9872 114.642 55.4683 114.112 56.0895 113.733C56.7145 113.35 57.4531 113.159 58.3054 113.159C59.0137 113.159 59.6406 113.29 60.1861 113.551C60.7353 113.809 61.1728 114.174 61.4986 114.648C61.8243 115.117 62.0099 115.667 62.0554 116.295H60.0895C60.0099 115.875 59.8205 115.525 59.5213 115.244C59.2259 114.96 58.83 114.818 58.3338 114.818C57.9134 114.818 57.544 114.932 57.2259 115.159C56.9077 115.383 56.6596 115.705 56.4815 116.125C56.3073 116.545 56.2202 117.049 56.2202 117.636C56.2202 118.231 56.3073 118.742 56.4815 119.17C56.6558 119.595 56.9001 119.922 57.2145 120.153C57.5327 120.381 57.9058 120.494 58.3338 120.494C58.6368 120.494 58.9077 120.437 59.1463 120.324C59.3887 120.206 59.5914 120.038 59.7543 119.818C59.9171 119.598 60.0289 119.331 60.0895 119.017H62.0554C62.0062 119.634 61.8243 120.182 61.5099 120.659C61.1955 121.133 60.7675 121.504 60.2259 121.773C59.6842 122.038 59.0478 122.17 58.3168 122.17ZM57.7259 121.955H58.8395L58.7486 122.438C59.1046 122.491 59.4058 122.627 59.652 122.847C59.902 123.07 60.027 123.39 60.027 123.807C60.0308 124.345 59.7902 124.777 59.3054 125.102C58.8205 125.428 58.1293 125.591 57.2315 125.591L57.2088 124.58C57.6444 124.58 57.991 124.521 58.2486 124.403C58.5062 124.29 58.6368 124.108 58.6406 123.858C58.6482 123.616 58.5573 123.438 58.3679 123.324C58.1823 123.214 57.8868 123.138 57.4815 123.097L57.7259 121.955ZM66.2557 122.176C65.7027 122.176 65.2045 122.078 64.7614 121.881C64.322 121.68 63.9735 121.384 63.7159 120.994C63.4621 120.604 63.3352 120.123 63.3352 119.551C63.3352 119.059 63.4261 118.652 63.608 118.33C63.7898 118.008 64.0379 117.75 64.3523 117.557C64.6667 117.364 65.0208 117.218 65.4148 117.119C65.8125 117.017 66.2235 116.943 66.6477 116.898C67.1591 116.845 67.5739 116.797 67.892 116.756C68.2102 116.71 68.4413 116.642 68.5852 116.551C68.733 116.456 68.8068 116.311 68.8068 116.114V116.08C68.8068 115.652 68.6799 115.32 68.4261 115.085C68.1723 114.85 67.8068 114.733 67.3295 114.733C66.8258 114.733 66.4261 114.843 66.1307 115.062C65.839 115.282 65.642 115.542 65.5398 115.841L63.6193 115.568C63.7708 115.038 64.0208 114.595 64.3693 114.239C64.7178 113.879 65.1439 113.61 65.6477 113.432C66.1515 113.25 66.7083 113.159 67.3182 113.159C67.7386 113.159 68.1572 113.208 68.5739 113.307C68.9905 113.405 69.3712 113.568 69.7159 113.795C70.0606 114.019 70.3371 114.324 70.5455 114.71C70.7576 115.097 70.8636 115.58 70.8636 116.159V122H68.8864V120.801H68.8182C68.6932 121.044 68.517 121.271 68.2898 121.483C68.0663 121.691 67.7841 121.86 67.4432 121.989C67.1061 122.114 66.7102 122.176 66.2557 122.176ZM66.7898 120.665C67.2027 120.665 67.5606 120.583 67.8636 120.42C68.1667 120.254 68.3996 120.034 68.5625 119.761C68.7292 119.489 68.8125 119.191 68.8125 118.869V117.841C68.7481 117.894 68.6383 117.943 68.483 117.989C68.3314 118.034 68.161 118.074 67.9716 118.108C67.7822 118.142 67.5947 118.172 67.4091 118.199C67.2235 118.225 67.0625 118.248 66.9261 118.267C66.6193 118.309 66.3447 118.377 66.1023 118.472C65.8598 118.566 65.6686 118.699 65.5284 118.869C65.3883 119.036 65.3182 119.252 65.3182 119.517C65.3182 119.896 65.4564 120.182 65.733 120.375C66.0095 120.568 66.3617 120.665 66.7898 120.665ZM78.2216 116.307V118H72.983V116.307H78.2216ZM84.8054 113.273V114.864H79.6463V113.273H84.8054ZM80.9361 122V112.449C80.9361 111.862 81.0573 111.373 81.2997 110.983C81.5459 110.593 81.8755 110.301 82.2884 110.108C82.7012 109.915 83.1596 109.818 83.6634 109.818C84.0194 109.818 84.3357 109.847 84.6122 109.903C84.8887 109.96 85.0933 110.011 85.2259 110.057L84.8168 111.648C84.7296 111.621 84.6198 111.595 84.4872 111.568C84.3546 111.538 84.2069 111.523 84.044 111.523C83.6615 111.523 83.3906 111.616 83.2315 111.801C83.0762 111.983 82.9986 112.244 82.9986 112.585V122H80.9361ZM89.9517 122.17C89.0767 122.17 88.321 121.989 87.6847 121.625C87.0521 121.258 86.5653 120.739 86.2244 120.068C85.8835 119.394 85.7131 118.6 85.7131 117.688C85.7131 116.79 85.8835 116.002 86.2244 115.324C86.5691 114.642 87.0502 114.112 87.6676 113.733C88.285 113.35 89.0104 113.159 89.8438 113.159C90.3816 113.159 90.8892 113.246 91.3665 113.42C91.8475 113.591 92.2718 113.856 92.6392 114.216C93.0104 114.576 93.3021 115.034 93.5142 115.591C93.7263 116.144 93.8324 116.803 93.8324 117.568V118.199H86.679V116.812H91.8608C91.857 116.419 91.7718 116.068 91.6051 115.761C91.4384 115.451 91.2055 115.206 90.9062 115.028C90.6108 114.85 90.2661 114.761 89.8722 114.761C89.4517 114.761 89.0824 114.864 88.7642 115.068C88.446 115.269 88.1979 115.534 88.0199 115.864C87.8456 116.189 87.7566 116.547 87.7528 116.938V118.148C87.7528 118.655 87.8456 119.091 88.0312 119.455C88.2169 119.814 88.4763 120.091 88.8097 120.284C89.143 120.473 89.5331 120.568 89.9801 120.568C90.2794 120.568 90.5502 120.527 90.7926 120.443C91.035 120.356 91.2453 120.229 91.4233 120.062C91.6013 119.896 91.7358 119.689 91.8267 119.443L93.7472 119.659C93.6259 120.167 93.3949 120.61 93.054 120.989C92.7169 121.364 92.285 121.655 91.7585 121.864C91.232 122.068 90.6297 122.17 89.9517 122.17ZM95.5724 122V113.273H97.6293V122H95.5724ZM96.6065 112.034C96.2808 112.034 96.0005 111.926 95.7656 111.71C95.5308 111.491 95.4134 111.227 95.4134 110.92C95.4134 110.61 95.5308 110.347 95.7656 110.131C96.0005 109.911 96.2808 109.801 96.6065 109.801C96.9361 109.801 97.2164 109.911 97.4474 110.131C97.6823 110.347 97.7997 110.61 97.7997 110.92C97.7997 111.227 97.6823 111.491 97.4474 111.71C97.2164 111.926 96.9361 112.034 96.6065 112.034ZM99.7443 122V113.273H101.739V114.727H101.83C101.989 114.223 102.261 113.835 102.648 113.562C103.038 113.286 103.483 113.148 103.983 113.148C104.097 113.148 104.223 113.153 104.364 113.165C104.508 113.172 104.627 113.186 104.722 113.205V115.097C104.634 115.066 104.496 115.04 104.307 115.017C104.121 114.991 103.941 114.977 103.767 114.977C103.392 114.977 103.055 115.059 102.756 115.222C102.46 115.381 102.227 115.602 102.057 115.886C101.886 116.17 101.801 116.498 101.801 116.869V122H99.7443ZM108.443 122.176C107.89 122.176 107.392 122.078 106.949 121.881C106.509 121.68 106.161 121.384 105.903 120.994C105.65 120.604 105.523 120.123 105.523 119.551C105.523 119.059 105.614 118.652 105.795 118.33C105.977 118.008 106.225 117.75 106.54 117.557C106.854 117.364 107.208 117.218 107.602 117.119C108 117.017 108.411 116.943 108.835 116.898C109.347 116.845 109.761 116.797 110.08 116.756C110.398 116.71 110.629 116.642 110.773 116.551C110.92 116.456 110.994 116.311 110.994 116.114V116.08C110.994 115.652 110.867 115.32 110.614 115.085C110.36 114.85 109.994 114.733 109.517 114.733C109.013 114.733 108.614 114.843 108.318 115.062C108.027 115.282 107.83 115.542 107.727 115.841L105.807 115.568C105.958 115.038 106.208 114.595 106.557 114.239C106.905 113.879 107.331 113.61 107.835 113.432C108.339 113.25 108.896 113.159 109.506 113.159C109.926 113.159 110.345 113.208 110.761 113.307C111.178 113.405 111.559 113.568 111.903 113.795C112.248 114.019 112.525 114.324 112.733 114.71C112.945 115.097 113.051 115.58 113.051 116.159V122H111.074V120.801H111.006C110.881 121.044 110.705 121.271 110.477 121.483C110.254 121.691 109.972 121.86 109.631 121.989C109.294 122.114 108.898 122.176 108.443 122.176ZM108.977 120.665C109.39 120.665 109.748 120.583 110.051 120.42C110.354 120.254 110.587 120.034 110.75 119.761C110.917 119.489 111 119.191 111 118.869V117.841C110.936 117.894 110.826 117.943 110.67 117.989C110.519 118.034 110.348 118.074 110.159 118.108C109.97 118.142 109.782 118.172 109.597 118.199C109.411 118.225 109.25 118.248 109.114 118.267C108.807 118.309 108.532 118.377 108.29 118.472C108.047 118.566 107.856 118.699 107.716 118.869C107.576 119.036 107.506 119.252 107.506 119.517C107.506 119.896 107.644 120.182 107.92 120.375C108.197 120.568 108.549 120.665 108.977 120.665Z" fill="#A1A1AA"/>
<rect x="32" y="188" width="326" height="12" rx="6" fill="#3F3F46"/>
<path d="M59 76H37" stroke="#A1A1AA" stroke-width="2" stroke-linecap="round" stroke-linejoin="round"/>
<path d="M46 67L37 76L46 85" stroke="#A1A1AA" stroke-width="2" stroke-linecap="round" stroke-linejoin="round"/>
<path d="M33.8864 231.364L37.3409 241.159H37.4773L40.9318 231.364H42.4091L38.1364 243H36.6818L32.4091 231.364H33.8864ZM46.7727 243.182C45.9848 243.182 45.2936 242.994 44.6989 242.619C44.108 242.244 43.6458 241.72 43.3125 241.045C42.983 240.371 42.8182 239.583 42.8182 238.682C42.8182 237.773 42.983 236.979 43.3125 236.301C43.6458 235.623 44.108 235.097 44.6989 234.722C45.2936 234.347 45.9848 234.159 46.7727 234.159C47.5606 234.159 48.25 234.347 48.8409 234.722C49.4356 235.097 49.8977 235.623 50.2273 236.301C50.5606 236.979 50.7273 237.773 50.7273 238.682C50.7273 239.583 50.5606 240.371 50.2273 241.045C49.8977 241.72 49.4356 242.244 48.8409 242.619C48.25 242.994 47.5606 243.182 46.7727 243.182ZM46.7727 241.977C47.3712 241.977 47.8636 241.824 48.25 241.517C48.6364 241.21 48.9223 240.807 49.108 240.307C49.2936 239.807 49.3864 239.265 49.3864 238.682C49.3864 238.098 49.2936 237.555 49.108 237.051C48.9223 236.547 48.6364 236.14 48.25 235.83C47.8636 235.519 47.3712 235.364 46.7727 235.364C46.1742 235.364 45.6818 235.519 45.2955 235.83C44.9091 236.14 44.6231 236.547 44.4375 237.051C44.2519 237.555 44.1591 238.098 44.1591 238.682C44.1591 239.265 44.2519 239.807 44.4375 240.307C44.6231 240.807 44.9091 241.21 45.2955 241.517C45.6818 241.824 46.1742 241.977 46.7727 241.977ZM56.3196 243.182C55.5014 243.182 54.7969 242.989 54.206 242.602C53.6151 242.216 53.1605 241.684 52.8423 241.006C52.5241 240.328 52.3651 239.553 52.3651 238.682C52.3651 237.795 52.5279 237.013 52.8537 236.335C53.1832 235.653 53.6416 235.121 54.2287 234.739C54.8196 234.352 55.509 234.159 56.2969 234.159C56.9105 234.159 57.4635 234.273 57.956 234.5C58.4484 234.727 58.8518 235.045 59.1662 235.455C59.4806 235.864 59.6757 236.341 59.7514 236.886H58.4105C58.3082 236.489 58.081 236.136 57.7287 235.83C57.3802 235.519 56.9105 235.364 56.3196 235.364C55.7969 235.364 55.3385 235.5 54.9446 235.773C54.5545 236.042 54.2495 236.422 54.0298 236.915C53.8139 237.403 53.706 237.977 53.706 238.636C53.706 239.311 53.812 239.898 54.0241 240.398C54.2401 240.898 54.5431 241.286 54.9332 241.562C55.3272 241.839 55.7893 241.977 56.3196 241.977C56.6681 241.977 56.9844 241.917 57.2685 241.795C57.5526 241.674 57.7931 241.5 57.9901 241.273C58.187 241.045 58.3272 240.773 58.4105 240.455H59.7514C59.6757 240.97 59.4882 241.434 59.1889 241.847C58.8935 242.256 58.5014 242.581 58.0128 242.824C57.5279 243.062 56.9635 243.182 56.3196 243.182ZM65.3707 243.182C64.5298 243.182 63.8045 242.996 63.1946 242.625C62.5885 242.25 62.1207 241.727 61.7912 241.057C61.4654 240.383 61.3026 239.598 61.3026 238.705C61.3026 237.811 61.4654 237.023 61.7912 236.341C62.1207 235.655 62.5791 235.121 63.1662 234.739C63.7571 234.352 64.4465 234.159 65.2344 234.159C65.6889 234.159 66.1378 234.235 66.581 234.386C67.0241 234.538 67.4276 234.784 67.7912 235.125C68.1548 235.462 68.4446 235.909 68.6605 236.466C68.8764 237.023 68.9844 237.708 68.9844 238.523V239.091H62.2571V237.932H67.6207C67.6207 237.439 67.5223 237 67.3253 236.614C67.1321 236.227 66.8556 235.922 66.4957 235.699C66.1397 235.475 65.7192 235.364 65.2344 235.364C64.7003 235.364 64.2382 235.496 63.848 235.761C63.4616 236.023 63.1643 236.364 62.956 236.784C62.7476 237.205 62.6435 237.655 62.6435 238.136V238.909C62.6435 239.568 62.7571 240.127 62.9844 240.585C63.2154 241.04 63.5355 241.386 63.9446 241.625C64.3537 241.86 64.8291 241.977 65.3707 241.977C65.723 241.977 66.0412 241.928 66.3253 241.83C66.6132 241.727 66.8613 241.576 67.0696 241.375C67.2779 241.17 67.4389 240.917 67.5526 240.614L68.848 240.977C68.7116 241.417 68.4825 241.803 68.1605 242.136C67.8385 242.466 67.4408 242.723 66.9673 242.909C66.4938 243.091 65.9616 243.182 65.3707 243.182ZM66.348 233.227L65.1662 231.636L63.9844 233.227H62.7116V233.136L64.5526 230.773H65.7798L67.6207 233.136V233.227H66.348ZM78.0923 243.205C77.5393 243.205 77.0374 243.1 76.5866 242.892C76.1359 242.68 75.7779 242.375 75.5128 241.977C75.2476 241.576 75.1151 241.091 75.1151 240.523C75.1151 240.023 75.2135 239.617 75.4105 239.307C75.6075 238.992 75.8707 238.746 76.2003 238.568C76.5298 238.39 76.8935 238.258 77.2912 238.17C77.6927 238.08 78.0961 238.008 78.5014 237.955C79.0317 237.886 79.4616 237.835 79.7912 237.801C80.1245 237.763 80.367 237.701 80.5185 237.614C80.6738 237.527 80.7514 237.375 80.7514 237.159V237.114C80.7514 236.553 80.598 236.117 80.2912 235.807C79.9882 235.496 79.5279 235.341 78.9105 235.341C78.2704 235.341 77.7685 235.481 77.4048 235.761C77.0412 236.042 76.7855 236.341 76.6378 236.659L75.3651 236.205C75.5923 235.674 75.8954 235.261 76.2741 234.966C76.6567 234.667 77.0734 234.458 77.5241 234.341C77.9787 234.22 78.4257 234.159 78.8651 234.159C79.1454 234.159 79.4673 234.193 79.831 234.261C80.1984 234.326 80.5526 234.46 80.8935 234.665C81.2382 234.869 81.5241 235.178 81.7514 235.591C81.9787 236.004 82.0923 236.557 82.0923 237.25V243H80.7514V241.818H80.6832C80.5923 242.008 80.4408 242.21 80.2287 242.426C80.0166 242.642 79.7344 242.826 79.3821 242.977C79.0298 243.129 78.5999 243.205 78.0923 243.205ZM78.2969 242C78.8272 242 79.2741 241.896 79.6378 241.688C80.0052 241.479 80.2817 241.21 80.4673 240.881C80.6567 240.551 80.7514 240.205 80.7514 239.841V238.614C80.6946 238.682 80.5696 238.744 80.3764 238.801C80.187 238.854 79.9673 238.902 79.7173 238.943C79.4711 238.981 79.2306 239.015 78.9957 239.045C78.7647 239.072 78.5772 239.095 78.4332 239.114C78.0848 239.159 77.759 239.233 77.456 239.335C77.1567 239.434 76.9143 239.583 76.7287 239.784C76.5469 239.981 76.456 240.25 76.456 240.591C76.456 241.057 76.6283 241.409 76.973 241.648C77.3215 241.883 77.7628 242 78.2969 242ZM84.5398 243V234.273H85.8807V243H84.5398ZM85.2216 232.818C84.9602 232.818 84.7348 232.729 84.5455 232.551C84.3598 232.373 84.267 232.159 84.267 231.909C84.267 231.659 84.3598 231.445 84.5455 231.267C84.7348 231.089 84.9602 231 85.2216 231C85.483 231 85.7064 231.089 85.892 231.267C86.0814 231.445 86.1761 231.659 86.1761 231.909C86.1761 232.159 86.0814 232.373 85.892 232.551C85.7064 232.729 85.483 232.818 85.2216 232.818ZM89.6776 237.75V243H88.3366V234.273H89.6321V235.636H89.7457C89.9503 235.193 90.2609 234.837 90.6776 234.568C91.0942 234.295 91.6321 234.159 92.2912 234.159C92.8821 234.159 93.3991 234.28 93.8423 234.523C94.2855 234.761 94.6302 235.125 94.8764 235.614C95.1226 236.098 95.2457 236.712 95.2457 237.455V243H93.9048V237.545C93.9048 236.86 93.7268 236.326 93.3707 235.943C93.0147 235.557 92.526 235.364 91.9048 235.364C91.4768 235.364 91.0942 235.456 90.7571 235.642C90.4238 235.828 90.1605 236.098 89.9673 236.455C89.7741 236.811 89.6776 237.242 89.6776 237.75ZM100.991 243.182C100.264 243.182 99.6222 242.998 99.0653 242.631C98.5085 242.259 98.0729 241.737 97.7585 241.062C97.4441 240.384 97.2869 239.583 97.2869 238.659C97.2869 237.742 97.4441 236.947 97.7585 236.273C98.0729 235.598 98.5104 235.078 99.071 234.71C99.6316 234.343 100.279 234.159 101.014 234.159C101.582 234.159 102.031 234.254 102.361 234.443C102.694 234.629 102.948 234.841 103.122 235.08C103.3 235.314 103.438 235.508 103.537 235.659H103.651V231.364H104.991V243H103.696V241.659H103.537C103.438 241.818 103.298 242.019 103.116 242.261C102.935 242.5 102.675 242.714 102.338 242.903C102.001 243.089 101.552 243.182 100.991 243.182ZM101.173 241.977C101.711 241.977 102.166 241.837 102.537 241.557C102.908 241.273 103.19 240.881 103.384 240.381C103.577 239.877 103.673 239.295 103.673 238.636C103.673 237.985 103.579 237.415 103.389 236.926C103.2 236.434 102.92 236.051 102.548 235.778C102.177 235.502 101.719 235.364 101.173 235.364C100.605 235.364 100.132 235.509 99.7528 235.801C99.3778 236.089 99.0956 236.481 98.9062 236.977C98.7206 237.47 98.6278 238.023 98.6278 238.636C98.6278 239.258 98.7225 239.822 98.9119 240.33C99.1051 240.833 99.3892 241.235 99.7642 241.534C100.143 241.83 100.613 241.977 101.173 241.977ZM110.202 243.205C109.649 243.205 109.147 243.1 108.696 242.892C108.245 242.68 107.887 242.375 107.622 241.977C107.357 241.576 107.224 241.091 107.224 240.523C107.224 240.023 107.323 239.617 107.52 239.307C107.717 238.992 107.98 238.746 108.31 238.568C108.639 238.39 109.003 238.258 109.401 238.17C109.802 238.08 110.205 238.008 110.611 237.955C111.141 237.886 111.571 237.835 111.901 237.801C112.234 237.763 112.476 237.701 112.628 237.614C112.783 237.527 112.861 237.375 112.861 237.159V237.114C112.861 236.553 112.707 236.117 112.401 235.807C112.098 235.496 111.637 235.341 111.02 235.341C110.38 235.341 109.878 235.481 109.514 235.761C109.151 236.042 108.895 236.341 108.747 236.659L107.474 236.205C107.702 235.674 108.005 235.261 108.384 234.966C108.766 234.667 109.183 234.458 109.634 234.341C110.088 234.22 110.535 234.159 110.974 234.159C111.255 234.159 111.577 234.193 111.94 234.261C112.308 234.326 112.662 234.46 113.003 234.665C113.348 234.869 113.634 235.178 113.861 235.591C114.088 236.004 114.202 236.557 114.202 237.25V243H112.861V241.818H112.793C112.702 242.008 112.55 242.21 112.338 242.426C112.126 242.642 111.844 242.826 111.491 242.977C111.139 243.129 110.709 243.205 110.202 243.205ZM110.406 242C110.937 242 111.384 241.896 111.747 241.688C112.115 241.479 112.391 241.21 112.577 240.881C112.766 240.551 112.861 240.205 112.861 239.841V238.614C112.804 238.682 112.679 238.744 112.486 238.801C112.296 238.854 112.077 238.902 111.827 238.943C111.58 238.981 111.34 239.015 111.105 239.045C110.874 239.072 110.687 239.095 110.543 239.114C110.194 239.159 109.868 239.233 109.565 239.335C109.266 239.434 109.024 239.583 108.838 239.784C108.656 239.981 108.565 240.25 108.565 240.591C108.565 241.057 108.738 241.409 109.082 241.648C109.431 241.883 109.872 242 110.406 242ZM122.49 237.75V243H121.149V234.273H122.445V235.636H122.558C122.763 235.193 123.073 234.837 123.49 234.568C123.907 234.295 124.445 234.159 125.104 234.159C125.695 234.159 126.212 234.28 126.655 234.523C127.098 234.761 127.443 235.125 127.689 235.614C127.935 236.098 128.058 236.712 128.058 237.455V243H126.717V237.545C126.717 236.86 126.539 236.326 126.183 235.943C125.827 235.557 125.339 235.364 124.717 235.364C124.289 235.364 123.907 235.456 123.57 235.642C123.236 235.828 122.973 236.098 122.78 236.455C122.587 236.811 122.49 237.242 122.49 237.75ZM133.077 243.205C132.524 243.205 132.022 243.1 131.571 242.892C131.12 242.68 130.762 242.375 130.497 241.977C130.232 241.576 130.099 241.091 130.099 240.523C130.099 240.023 130.198 239.617 130.395 239.307C130.592 238.992 130.855 238.746 131.185 238.568C131.514 238.39 131.878 238.258 132.276 238.17C132.677 238.08 133.08 238.008 133.486 237.955C134.016 237.886 134.446 237.835 134.776 237.801C135.109 237.763 135.351 237.701 135.503 237.614C135.658 237.527 135.736 237.375 135.736 237.159V237.114C135.736 236.553 135.582 236.117 135.276 235.807C134.973 235.496 134.512 235.341 133.895 235.341C133.255 235.341 132.753 235.481 132.389 235.761C132.026 236.042 131.77 236.341 131.622 236.659L130.349 236.205C130.577 235.674 130.88 235.261 131.259 234.966C131.641 234.667 132.058 234.458 132.509 234.341C132.963 234.22 133.41 234.159 133.849 234.159C134.13 234.159 134.452 234.193 134.815 234.261C135.183 234.326 135.537 234.46 135.878 234.665C136.223 234.869 136.509 235.178 136.736 235.591C136.963 236.004 137.077 236.557 137.077 237.25V243H135.736V241.818H135.668C135.577 242.008 135.425 242.21 135.213 242.426C135.001 242.642 134.719 242.826 134.366 242.977C134.014 243.129 133.584 243.205 133.077 243.205ZM133.281 242C133.812 242 134.259 241.896 134.622 241.688C134.99 241.479 135.266 241.21 135.452 240.881C135.641 240.551 135.736 240.205 135.736 239.841V238.614C135.679 238.682 135.554 238.744 135.361 238.801C135.171 238.854 134.952 238.902 134.702 238.943C134.455 238.981 134.215 239.015 133.98 239.045C133.749 239.072 133.562 239.095 133.418 239.114C133.069 239.159 132.743 239.233 132.44 239.335C132.141 239.434 131.899 239.583 131.713 239.784C131.531 239.981 131.44 240.25 131.44 240.591C131.44 241.057 131.613 241.409 131.957 241.648C132.306 241.883 132.747 242 133.281 242ZM132.19 233.227L131.145 233.182C131.145 232.602 131.31 232.129 131.639 231.761C131.973 231.39 132.384 231.205 132.872 231.205C133.088 231.205 133.279 231.242 133.446 231.318C133.613 231.39 133.772 231.473 133.923 231.568C134.075 231.663 134.23 231.748 134.389 231.824C134.552 231.896 134.736 231.932 134.94 231.932C135.156 231.932 135.338 231.848 135.486 231.682C135.637 231.511 135.713 231.307 135.713 231.068L136.736 231.159C136.736 231.75 136.569 232.22 136.236 232.568C135.906 232.917 135.497 233.091 135.009 233.091C134.747 233.091 134.531 233.055 134.361 232.983C134.19 232.907 134.039 232.822 133.906 232.727C133.774 232.633 133.634 232.549 133.486 232.477C133.338 232.402 133.156 232.364 132.94 232.364C132.724 232.364 132.545 232.449 132.401 232.619C132.26 232.786 132.19 232.989 132.19 233.227ZM143.07 243.182C142.282 243.182 141.59 242.994 140.996 242.619C140.405 242.244 139.943 241.72 139.609 241.045C139.28 240.371 139.115 239.583 139.115 238.682C139.115 237.773 139.28 236.979 139.609 236.301C139.943 235.623 140.405 235.097 140.996 234.722C141.59 234.347 142.282 234.159 143.07 234.159C143.857 234.159 144.547 234.347 145.138 234.722C145.732 235.097 146.195 235.623 146.524 236.301C146.857 236.979 147.024 237.773 147.024 238.682C147.024 239.583 146.857 240.371 146.524 241.045C146.195 241.72 145.732 242.244 145.138 242.619C144.547 242.994 143.857 243.182 143.07 243.182ZM143.07 241.977C143.668 241.977 144.161 241.824 144.547 241.517C144.933 241.21 145.219 240.807 145.405 240.307C145.59 239.807 145.683 239.265 145.683 238.682C145.683 238.098 145.59 237.555 145.405 237.051C145.219 236.547 144.933 236.14 144.547 235.83C144.161 235.519 143.668 235.364 143.07 235.364C142.471 235.364 141.979 235.519 141.592 235.83C141.206 236.14 140.92 236.547 140.734 237.051C140.549 237.555 140.456 238.098 140.456 238.682C140.456 239.265 140.549 239.807 140.734 240.307C140.92 240.807 141.206 241.21 141.592 241.517C141.979 241.824 142.471 241.977 143.07 241.977ZM157.23 243.182C156.389 243.182 155.664 242.996 155.054 242.625C154.448 242.25 153.98 241.727 153.651 241.057C153.325 240.383 153.162 239.598 153.162 238.705C153.162 237.811 153.325 237.023 153.651 236.341C153.98 235.655 154.438 235.121 155.026 234.739C155.616 234.352 156.306 234.159 157.094 234.159C157.548 234.159 157.997 234.235 158.44 234.386C158.884 234.538 159.287 234.784 159.651 235.125C160.014 235.462 160.304 235.909 160.52 236.466C160.736 237.023 160.844 237.708 160.844 238.523V239.091H154.116V237.932H159.48C159.48 237.439 159.382 237 159.185 236.614C158.991 236.227 158.715 235.922 158.355 235.699C157.999 235.475 157.579 235.364 157.094 235.364C156.56 235.364 156.098 235.496 155.707 235.761C155.321 236.023 155.024 236.364 154.815 236.784C154.607 237.205 154.503 237.655 154.503 238.136V238.909C154.503 239.568 154.616 240.127 154.844 240.585C155.075 241.04 155.395 241.386 155.804 241.625C156.213 241.86 156.688 241.977 157.23 241.977C157.582 241.977 157.901 241.928 158.185 241.83C158.473 241.727 158.721 241.576 158.929 241.375C159.137 241.17 159.298 240.917 159.412 240.614L160.707 240.977C160.571 241.417 160.342 241.803 160.02 242.136C159.698 242.466 159.3 242.723 158.827 242.909C158.353 243.091 157.821 243.182 157.23 243.182ZM169.065 236.227L167.861 236.568C167.785 236.367 167.673 236.172 167.526 235.983C167.382 235.79 167.185 235.631 166.935 235.506C166.685 235.381 166.365 235.318 165.974 235.318C165.44 235.318 164.995 235.441 164.639 235.688C164.287 235.93 164.111 236.239 164.111 236.614C164.111 236.947 164.232 237.21 164.474 237.403C164.717 237.597 165.096 237.758 165.611 237.886L166.906 238.205C167.687 238.394 168.268 238.684 168.651 239.074C169.033 239.46 169.224 239.958 169.224 240.568C169.224 241.068 169.08 241.515 168.793 241.909C168.509 242.303 168.111 242.614 167.599 242.841C167.088 243.068 166.493 243.182 165.815 243.182C164.925 243.182 164.188 242.989 163.605 242.602C163.022 242.216 162.652 241.652 162.497 240.909L163.77 240.591C163.891 241.061 164.12 241.413 164.457 241.648C164.798 241.883 165.243 242 165.793 242C166.418 242 166.914 241.867 167.281 241.602C167.652 241.333 167.838 241.011 167.838 240.636C167.838 240.333 167.732 240.08 167.52 239.875C167.308 239.667 166.982 239.511 166.543 239.409L165.088 239.068C164.289 238.879 163.702 238.585 163.327 238.188C162.955 237.786 162.77 237.284 162.77 236.682C162.77 236.189 162.908 235.754 163.185 235.375C163.465 234.996 163.846 234.699 164.327 234.483C164.812 234.267 165.361 234.159 165.974 234.159C166.838 234.159 167.516 234.348 168.009 234.727C168.505 235.106 168.857 235.606 169.065 236.227ZM175.038 234.273V235.409H170.516V234.273H175.038ZM171.834 232.182H173.175V240.5C173.175 240.879 173.23 241.163 173.339 241.352C173.453 241.538 173.597 241.663 173.771 241.727C173.949 241.788 174.137 241.818 174.334 241.818C174.482 241.818 174.603 241.811 174.697 241.795C174.792 241.777 174.868 241.761 174.925 241.75L175.197 242.955C175.107 242.989 174.98 243.023 174.817 243.057C174.654 243.095 174.447 243.114 174.197 243.114C173.819 243.114 173.447 243.032 173.084 242.869C172.724 242.706 172.425 242.458 172.186 242.125C171.951 241.792 171.834 241.371 171.834 240.864V232.182ZM179.624 243.205C179.071 243.205 178.569 243.1 178.118 242.892C177.667 242.68 177.309 242.375 177.044 241.977C176.779 241.576 176.646 241.091 176.646 240.523C176.646 240.023 176.745 239.617 176.942 239.307C177.139 238.992 177.402 238.746 177.732 238.568C178.061 238.39 178.425 238.258 178.822 238.17C179.224 238.08 179.627 238.008 180.033 237.955C180.563 237.886 180.993 237.835 181.322 237.801C181.656 237.763 181.898 237.701 182.05 237.614C182.205 237.527 182.283 237.375 182.283 237.159V237.114C182.283 236.553 182.129 236.117 181.822 235.807C181.519 235.496 181.059 235.341 180.442 235.341C179.802 235.341 179.3 235.481 178.936 235.761C178.572 236.042 178.317 236.341 178.169 236.659L176.896 236.205C177.124 235.674 177.427 235.261 177.805 234.966C178.188 234.667 178.605 234.458 179.055 234.341C179.51 234.22 179.957 234.159 180.396 234.159C180.677 234.159 180.999 234.193 181.362 234.261C181.73 234.326 182.084 234.46 182.425 234.665C182.769 234.869 183.055 235.178 183.283 235.591C183.51 236.004 183.624 236.557 183.624 237.25V243H182.283V241.818H182.214C182.124 242.008 181.972 242.21 181.76 242.426C181.548 242.642 181.266 242.826 180.913 242.977C180.561 243.129 180.131 243.205 179.624 243.205ZM179.828 242C180.358 242 180.805 241.896 181.169 241.688C181.536 241.479 181.813 241.21 181.999 240.881C182.188 240.551 182.283 240.205 182.283 239.841V238.614C182.226 238.682 182.101 238.744 181.908 238.801C181.718 238.854 181.499 238.902 181.249 238.943C181.002 238.981 180.762 239.015 180.527 239.045C180.296 239.072 180.108 239.095 179.964 239.114C179.616 239.159 179.29 239.233 178.987 239.335C178.688 239.434 178.446 239.583 178.26 239.784C178.078 239.981 177.987 240.25 177.987 240.591C177.987 241.057 178.16 241.409 178.504 241.648C178.853 241.883 179.294 242 179.828 242ZM179.874 233.091L181.26 230.455H182.828L181.055 233.091H179.874ZM190.571 243V234.273H191.866V235.636H191.98C192.162 235.17 192.455 234.809 192.861 234.551C193.266 234.29 193.753 234.159 194.321 234.159C194.897 234.159 195.376 234.29 195.759 234.551C196.145 234.809 196.446 235.17 196.662 235.636H196.753C196.976 235.186 197.312 234.828 197.759 234.562C198.205 234.294 198.741 234.159 199.366 234.159C200.147 234.159 200.785 234.403 201.281 234.892C201.777 235.377 202.026 236.133 202.026 237.159V243H200.685V237.159C200.685 236.515 200.509 236.055 200.156 235.778C199.804 235.502 199.389 235.364 198.912 235.364C198.298 235.364 197.823 235.549 197.486 235.92C197.149 236.288 196.98 236.754 196.98 237.318V243H195.616V237.023C195.616 236.527 195.455 236.127 195.134 235.824C194.812 235.517 194.397 235.364 193.889 235.364C193.541 235.364 193.215 235.456 192.912 235.642C192.613 235.828 192.37 236.085 192.185 236.415C192.003 236.741 191.912 237.117 191.912 237.545V243H190.571ZM208.023 243.182C207.235 243.182 206.544 242.994 205.949 242.619C205.358 242.244 204.896 241.72 204.562 241.045C204.233 240.371 204.068 239.583 204.068 238.682C204.068 237.773 204.233 236.979 204.562 236.301C204.896 235.623 205.358 235.097 205.949 234.722C206.544 234.347 207.235 234.159 208.023 234.159C208.811 234.159 209.5 234.347 210.091 234.722C210.686 235.097 211.148 235.623 211.477 236.301C211.811 236.979 211.977 237.773 211.977 238.682C211.977 239.583 211.811 240.371 211.477 241.045C211.148 241.72 210.686 242.244 210.091 242.619C209.5 242.994 208.811 243.182 208.023 243.182ZM208.023 241.977C208.621 241.977 209.114 241.824 209.5 241.517C209.886 241.21 210.172 240.807 210.358 240.307C210.544 239.807 210.636 239.265 210.636 238.682C210.636 238.098 210.544 237.555 210.358 237.051C210.172 236.547 209.886 236.14 209.5 235.83C209.114 235.519 208.621 235.364 208.023 235.364C207.424 235.364 206.932 235.519 206.545 235.83C206.159 236.14 205.873 236.547 205.688 237.051C205.502 237.555 205.409 238.098 205.409 238.682C205.409 239.265 205.502 239.807 205.688 240.307C205.873 240.807 206.159 241.21 206.545 241.517C206.932 241.824 207.424 241.977 208.023 241.977ZM215.365 237.75V243H214.024V234.273H215.32V235.636H215.433C215.638 235.193 215.948 234.837 216.365 234.568C216.782 234.295 217.32 234.159 217.979 234.159C218.57 234.159 219.087 234.28 219.53 234.523C219.973 234.761 220.318 235.125 220.564 235.614C220.81 236.098 220.933 236.712 220.933 237.455V243H219.592V237.545C219.592 236.86 219.414 236.326 219.058 235.943C218.702 235.557 218.214 235.364 217.592 235.364C217.164 235.364 216.782 235.456 216.445 235.642C216.111 235.828 215.848 236.098 215.655 236.455C215.462 236.811 215.365 237.242 215.365 237.75ZM223.384 243V234.273H224.724V243H223.384ZM224.065 232.818C223.804 232.818 223.579 232.729 223.389 232.551C223.204 232.373 223.111 232.159 223.111 231.909C223.111 231.659 223.204 231.445 223.389 231.267C223.579 231.089 223.804 231 224.065 231C224.327 231 224.55 231.089 224.736 231.267C224.925 231.445 225.02 231.659 225.02 231.909C225.02 232.159 224.925 232.373 224.736 232.551C224.55 232.729 224.327 232.818 224.065 232.818ZM230.976 234.273V235.409H226.453V234.273H230.976ZM227.771 232.182H229.112V240.5C229.112 240.879 229.167 241.163 229.277 241.352C229.391 241.538 229.535 241.663 229.709 241.727C229.887 241.788 230.074 241.818 230.271 241.818C230.419 241.818 230.54 241.811 230.635 241.795C230.73 241.777 230.805 241.761 230.862 241.75L231.135 242.955C231.044 242.989 230.917 243.023 230.754 243.057C230.591 243.095 230.385 243.114 230.135 243.114C229.756 243.114 229.385 243.032 229.021 242.869C228.661 242.706 228.362 242.458 228.124 242.125C227.889 241.792 227.771 241.371 227.771 240.864V232.182ZM236.445 243.182C235.657 243.182 234.965 242.994 234.371 242.619C233.78 242.244 233.318 241.72 232.984 241.045C232.655 240.371 232.49 239.583 232.49 238.682C232.49 237.773 232.655 236.979 232.984 236.301C233.318 235.623 233.78 235.097 234.371 234.722C234.965 234.347 235.657 234.159 236.445 234.159C237.232 234.159 237.922 234.347 238.513 234.722C239.107 235.097 239.57 235.623 239.899 236.301C240.232 236.979 240.399 237.773 240.399 238.682C240.399 239.583 240.232 240.371 239.899 241.045C239.57 241.72 239.107 242.244 238.513 242.619C237.922 242.994 237.232 243.182 236.445 243.182ZM236.445 241.977C237.043 241.977 237.536 241.824 237.922 241.517C238.308 241.21 238.594 240.807 238.78 240.307C238.965 239.807 239.058 239.265 239.058 238.682C239.058 238.098 238.965 237.555 238.78 237.051C238.594 236.547 238.308 236.14 237.922 235.83C237.536 235.519 237.043 235.364 236.445 235.364C235.846 235.364 235.354 235.519 234.967 235.83C234.581 236.14 234.295 236.547 234.109 237.051C233.924 237.555 233.831 238.098 233.831 238.682C233.831 239.265 233.924 239.807 234.109 240.307C234.295 240.807 234.581 241.21 234.967 241.517C235.354 241.824 235.846 241.977 236.445 241.977ZM242.446 243V234.273H243.741V235.591H243.832C243.991 235.159 244.279 234.809 244.696 234.54C245.113 234.271 245.582 234.136 246.105 234.136C246.204 234.136 246.327 234.138 246.474 234.142C246.622 234.146 246.734 234.152 246.81 234.159V235.523C246.764 235.511 246.66 235.494 246.497 235.472C246.338 235.445 246.17 235.432 245.991 235.432C245.567 235.432 245.188 235.521 244.855 235.699C244.526 235.873 244.264 236.116 244.071 236.426C243.882 236.733 243.787 237.083 243.787 237.477V243H242.446ZM250.967 243.205C250.414 243.205 249.912 243.1 249.462 242.892C249.011 242.68 248.653 242.375 248.388 241.977C248.123 241.576 247.99 241.091 247.99 240.523C247.99 240.023 248.089 239.617 248.286 239.307C248.482 238.992 248.746 238.746 249.075 238.568C249.405 238.39 249.768 238.258 250.166 238.17C250.568 238.08 250.971 238.008 251.376 237.955C251.907 237.886 252.337 237.835 252.666 237.801C253 237.763 253.242 237.701 253.393 237.614C253.549 237.527 253.626 237.375 253.626 237.159V237.114C253.626 236.553 253.473 236.117 253.166 235.807C252.863 235.496 252.403 235.341 251.786 235.341C251.145 235.341 250.643 235.481 250.28 235.761C249.916 236.042 249.661 236.341 249.513 236.659L248.24 236.205C248.467 235.674 248.77 235.261 249.149 234.966C249.532 234.667 249.948 234.458 250.399 234.341C250.854 234.22 251.301 234.159 251.74 234.159C252.02 234.159 252.342 234.193 252.706 234.261C253.073 234.326 253.428 234.46 253.768 234.665C254.113 234.869 254.399 235.178 254.626 235.591C254.854 236.004 254.967 236.557 254.967 237.25V243H253.626V241.818H253.558C253.467 242.008 253.316 242.21 253.104 242.426C252.892 242.642 252.609 242.826 252.257 242.977C251.905 243.129 251.475 243.205 250.967 243.205ZM251.172 242C251.702 242 252.149 241.896 252.513 241.688C252.88 241.479 253.157 241.21 253.342 240.881C253.532 240.551 253.626 240.205 253.626 239.841V238.614C253.57 238.682 253.445 238.744 253.251 238.801C253.062 238.854 252.842 238.902 252.592 238.943C252.346 238.981 252.106 239.015 251.871 239.045C251.64 239.072 251.452 239.095 251.308 239.114C250.96 239.159 250.634 239.233 250.331 239.335C250.032 239.434 249.789 239.583 249.604 239.784C249.422 239.981 249.331 240.25 249.331 240.591C249.331 241.057 249.503 241.409 249.848 241.648C250.196 241.883 250.638 242 251.172 242ZM258.756 237.75V243H257.415V234.273H258.71V235.636H258.824C259.028 235.193 259.339 234.837 259.756 234.568C260.172 234.295 260.71 234.159 261.369 234.159C261.96 234.159 262.477 234.28 262.92 234.523C263.364 234.761 263.708 235.125 263.955 235.614C264.201 236.098 264.324 236.712 264.324 237.455V243H262.983V237.545C262.983 236.86 262.805 236.326 262.449 235.943C262.093 235.557 261.604 235.364 260.983 235.364C260.555 235.364 260.172 235.456 259.835 235.642C259.502 235.828 259.239 236.098 259.045 236.455C258.852 236.811 258.756 237.242 258.756 237.75ZM270.07 243.182C269.342 243.182 268.7 242.998 268.143 242.631C267.587 242.259 267.151 241.737 266.837 241.062C266.522 240.384 266.365 239.583 266.365 238.659C266.365 237.742 266.522 236.947 266.837 236.273C267.151 235.598 267.589 235.078 268.149 234.71C268.71 234.343 269.357 234.159 270.092 234.159C270.661 234.159 271.109 234.254 271.439 234.443C271.772 234.629 272.026 234.841 272.2 235.08C272.378 235.314 272.517 235.508 272.615 235.659H272.729V231.364H274.07V243H272.774V241.659H272.615C272.517 241.818 272.376 242.019 272.195 242.261C272.013 242.5 271.753 242.714 271.416 242.903C271.079 243.089 270.63 243.182 270.07 243.182ZM270.251 241.977C270.789 241.977 271.244 241.837 271.615 241.557C271.986 241.273 272.268 240.881 272.462 240.381C272.655 239.877 272.751 239.295 272.751 238.636C272.751 237.985 272.657 237.415 272.467 236.926C272.278 236.434 271.998 236.051 271.626 235.778C271.255 235.502 270.797 235.364 270.251 235.364C269.683 235.364 269.21 235.509 268.831 235.801C268.456 236.089 268.174 236.481 267.984 236.977C267.799 237.47 267.706 238.023 267.706 238.636C267.706 239.258 267.801 239.822 267.99 240.33C268.183 240.833 268.467 241.235 268.842 241.534C269.221 241.83 269.691 241.977 270.251 241.977ZM280.257 243.182C279.469 243.182 278.778 242.994 278.183 242.619C277.592 242.244 277.13 241.72 276.797 241.045C276.467 240.371 276.303 239.583 276.303 238.682C276.303 237.773 276.467 236.979 276.797 236.301C277.13 235.623 277.592 235.097 278.183 234.722C278.778 234.347 279.469 234.159 280.257 234.159C281.045 234.159 281.734 234.347 282.325 234.722C282.92 235.097 283.382 235.623 283.712 236.301C284.045 236.979 284.212 237.773 284.212 238.682C284.212 239.583 284.045 240.371 283.712 241.045C283.382 241.72 282.92 242.244 282.325 242.619C281.734 242.994 281.045 243.182 280.257 243.182ZM280.257 241.977C280.856 241.977 281.348 241.824 281.734 241.517C282.121 241.21 282.407 240.807 282.592 240.307C282.778 239.807 282.871 239.265 282.871 238.682C282.871 238.098 282.778 237.555 282.592 237.051C282.407 236.547 282.121 236.14 281.734 235.83C281.348 235.519 280.856 235.364 280.257 235.364C279.659 235.364 279.166 235.519 278.78 235.83C278.393 236.14 278.107 236.547 277.922 237.051C277.736 237.555 277.643 238.098 277.643 238.682C277.643 239.265 277.736 239.807 277.922 240.307C278.107 240.807 278.393 241.21 278.78 241.517C279.166 241.824 279.659 241.977 280.257 241.977ZM292.099 237.75V243H290.759V234.273H292.054V235.636H292.168C292.372 235.193 292.683 234.837 293.099 234.568C293.516 234.295 294.054 234.159 294.713 234.159C295.304 234.159 295.821 234.28 296.264 234.523C296.707 234.761 297.052 235.125 297.298 235.614C297.545 236.098 297.668 236.712 297.668 237.455V243H296.327V237.545C296.327 236.86 296.149 236.326 295.793 235.943C295.437 235.557 294.948 235.364 294.327 235.364C293.899 235.364 293.516 235.456 293.179 235.642C292.846 235.828 292.582 236.098 292.389 236.455C292.196 236.811 292.099 237.242 292.099 237.75ZM303.777 243.182C302.936 243.182 302.211 242.996 301.601 242.625C300.995 242.25 300.527 241.727 300.197 241.057C299.872 240.383 299.709 239.598 299.709 238.705C299.709 237.811 299.872 237.023 300.197 236.341C300.527 235.655 300.985 235.121 301.572 234.739C302.163 234.352 302.853 234.159 303.641 234.159C304.095 234.159 304.544 234.235 304.987 234.386C305.43 234.538 305.834 234.784 306.197 235.125C306.561 235.462 306.851 235.909 307.067 236.466C307.283 237.023 307.391 237.708 307.391 238.523V239.091H300.663V237.932H306.027C306.027 237.439 305.929 237 305.732 236.614C305.538 236.227 305.262 235.922 304.902 235.699C304.546 235.475 304.125 235.364 303.641 235.364C303.107 235.364 302.644 235.496 302.254 235.761C301.868 236.023 301.571 236.364 301.362 236.784C301.154 237.205 301.05 237.655 301.05 238.136V238.909C301.05 239.568 301.163 240.127 301.391 240.585C301.622 241.04 301.942 241.386 302.351 241.625C302.76 241.86 303.235 241.977 303.777 241.977C304.129 241.977 304.447 241.928 304.732 241.83C305.019 241.727 305.268 241.576 305.476 241.375C305.684 241.17 305.845 240.917 305.959 240.614L307.254 240.977C307.118 241.417 306.889 241.803 306.567 242.136C306.245 242.466 305.847 242.723 305.374 242.909C304.9 243.091 304.368 243.182 303.777 243.182ZM310.771 237.75V243H309.43V234.273H310.726V235.636H310.839C311.044 235.193 311.355 234.837 311.771 234.568C312.188 234.295 312.726 234.159 313.385 234.159C313.976 234.159 314.493 234.28 314.936 234.523C315.379 234.761 315.724 235.125 315.97 235.614C316.216 236.098 316.339 236.712 316.339 237.455V243H314.999V237.545C314.999 236.86 314.821 236.326 314.464 235.943C314.108 235.557 313.62 235.364 312.999 235.364C312.571 235.364 312.188 235.456 311.851 235.642C311.518 235.828 311.254 236.098 311.061 236.455C310.868 236.811 310.771 237.242 310.771 237.75ZM320.131 237.75V243H318.79V231.364H320.131V235.636H320.244C320.449 235.186 320.756 234.828 321.165 234.562C321.578 234.294 322.127 234.159 322.812 234.159C323.407 234.159 323.928 234.278 324.375 234.517C324.822 234.752 325.169 235.114 325.415 235.602C325.665 236.087 325.79 236.705 325.79 237.455V243H324.449V237.545C324.449 236.852 324.269 236.316 323.909 235.938C323.553 235.555 323.059 235.364 322.426 235.364C321.987 235.364 321.593 235.456 321.244 235.642C320.9 235.828 320.627 236.098 320.426 236.455C320.229 236.811 320.131 237.242 320.131 237.75ZM333.743 239.432V234.273H335.084V243H333.743V241.523H333.652C333.447 241.966 333.129 242.343 332.697 242.653C332.266 242.96 331.72 243.114 331.061 243.114C330.516 243.114 330.031 242.994 329.607 242.756C329.182 242.513 328.849 242.15 328.607 241.665C328.364 241.176 328.243 240.561 328.243 239.818V234.273H329.584V239.727C329.584 240.364 329.762 240.871 330.118 241.25C330.478 241.629 330.936 241.818 331.493 241.818C331.826 241.818 332.165 241.733 332.51 241.562C332.858 241.392 333.15 241.131 333.385 240.778C333.624 240.426 333.743 239.977 333.743 239.432ZM337.54 243V234.273H338.835V235.636H338.949C339.131 235.17 339.424 234.809 339.83 234.551C340.235 234.29 340.722 234.159 341.29 234.159C341.866 234.159 342.345 234.29 342.727 234.551C343.114 234.809 343.415 235.17 343.631 235.636H343.722C343.945 235.186 344.28 234.828 344.727 234.562C345.174 234.294 345.71 234.159 346.335 234.159C347.116 234.159 347.754 234.403 348.25 234.892C348.746 235.377 348.994 236.133 348.994 237.159V243H347.653V237.159C347.653 236.515 347.477 236.055 347.125 235.778C346.773 235.502 346.358 235.364 345.881 235.364C345.267 235.364 344.792 235.549 344.455 235.92C344.117 236.288 343.949 236.754 343.949 237.318V243H342.585V237.023C342.585 236.527 342.424 236.127 342.102 235.824C341.78 235.517 341.366 235.364 340.858 235.364C340.509 235.364 340.184 235.456 339.881 235.642C339.581 235.828 339.339 236.085 339.153 236.415C338.972 236.741 338.881 237.117 338.881 237.545V243H337.54ZM34.5682 263.75V269H33.2273V257.364H34.5682V261.636H34.6818C34.8864 261.186 35.1932 260.828 35.6023 260.562C36.0152 260.294 36.5644 260.159 37.25 260.159C37.8447 260.159 38.3655 260.278 38.8125 260.517C39.2595 260.752 39.6061 261.114 39.8523 261.602C40.1023 262.087 40.2273 262.705 40.2273 263.455V269H38.8864V263.545C38.8864 262.852 38.7064 262.316 38.3466 261.938C37.9905 261.555 37.4962 261.364 36.8636 261.364C36.4242 261.364 36.0303 261.456 35.6818 261.642C35.3371 261.828 35.0644 262.098 34.8636 262.455C34.6667 262.811 34.5682 263.242 34.5682 263.75ZM45.2486 269.205C44.6955 269.205 44.1937 269.1 43.7429 268.892C43.2921 268.68 42.9342 268.375 42.669 267.977C42.4039 267.576 42.2713 267.091 42.2713 266.523C42.2713 266.023 42.3698 265.617 42.5668 265.307C42.7637 264.992 43.027 264.746 43.3565 264.568C43.6861 264.39 44.0497 264.258 44.4474 264.17C44.849 264.08 45.2524 264.008 45.6577 263.955C46.188 263.886 46.6179 263.835 46.9474 263.801C47.2808 263.763 47.5232 263.701 47.6747 263.614C47.83 263.527 47.9077 263.375 47.9077 263.159V263.114C47.9077 262.553 47.7543 262.117 47.4474 261.807C47.1444 261.496 46.6842 261.341 46.0668 261.341C45.4266 261.341 44.9247 261.481 44.5611 261.761C44.1974 262.042 43.9418 262.341 43.794 262.659L42.5213 262.205C42.7486 261.674 43.0516 261.261 43.4304 260.966C43.813 260.667 44.2296 260.458 44.6804 260.341C45.1349 260.22 45.5819 260.159 46.0213 260.159C46.3016 260.159 46.6236 260.193 46.9872 260.261C47.3546 260.326 47.7088 260.46 48.0497 260.665C48.3944 260.869 48.6804 261.178 48.9077 261.591C49.1349 262.004 49.2486 262.557 49.2486 263.25V269H47.9077V267.818H47.8395C47.7486 268.008 47.5971 268.21 47.3849 268.426C47.1728 268.642 46.8906 268.826 46.5384 268.977C46.1861 269.129 45.7562 269.205 45.2486 269.205ZM45.4531 268C45.9834 268 46.4304 267.896 46.794 267.688C47.1615 267.479 47.438 267.21 47.6236 266.881C47.813 266.551 47.9077 266.205 47.9077 265.841V264.614C47.8509 264.682 47.7259 264.744 47.5327 264.801C47.3433 264.854 47.1236 264.902 46.8736 264.943C46.6274 264.981 46.3868 265.015 46.152 265.045C45.9209 265.072 45.7334 265.095 45.5895 265.114C45.241 265.159 44.9152 265.233 44.6122 265.335C44.313 265.434 44.0705 265.583 43.8849 265.784C43.7031 265.981 43.6122 266.25 43.6122 266.591C43.6122 267.057 43.7846 267.409 44.1293 267.648C44.4777 267.883 44.919 268 45.4531 268ZM45.4986 259.091L46.8849 256.455H48.4531L46.6804 259.091H45.4986ZM51.8778 269V257.364H53.2188V261.659H53.3324C53.4309 261.508 53.5672 261.314 53.7415 261.08C53.9195 260.841 54.1733 260.629 54.5028 260.443C54.8362 260.254 55.2869 260.159 55.8551 260.159C56.59 260.159 57.2377 260.343 57.7983 260.71C58.3589 261.078 58.7964 261.598 59.1108 262.273C59.4252 262.947 59.5824 263.742 59.5824 264.659C59.5824 265.583 59.4252 266.384 59.1108 267.062C58.7964 267.737 58.3608 268.259 57.804 268.631C57.2472 268.998 56.6051 269.182 55.8778 269.182C55.3172 269.182 54.8684 269.089 54.5312 268.903C54.1941 268.714 53.9347 268.5 53.7528 268.261C53.571 268.019 53.4309 267.818 53.3324 267.659H53.1733V269H51.8778ZM53.196 264.636C53.196 265.295 53.2926 265.877 53.4858 266.381C53.679 266.881 53.9612 267.273 54.3324 267.557C54.7036 267.837 55.1581 267.977 55.696 267.977C56.2566 267.977 56.7244 267.83 57.0994 267.534C57.4782 267.235 57.7623 266.833 57.9517 266.33C58.1449 265.822 58.2415 265.258 58.2415 264.636C58.2415 264.023 58.1468 263.47 57.9574 262.977C57.7718 262.481 57.4896 262.089 57.1108 261.801C56.7358 261.509 56.2642 261.364 55.696 261.364C55.1506 261.364 54.6922 261.502 54.321 261.778C53.9498 262.051 53.6695 262.434 53.4801 262.926C53.2907 263.415 53.196 263.985 53.196 264.636ZM61.6335 269V260.273H62.9744V269H61.6335ZM62.3153 258.818C62.054 258.818 61.8286 258.729 61.6392 258.551C61.4536 258.373 61.3608 258.159 61.3608 257.909C61.3608 257.659 61.4536 257.445 61.6392 257.267C61.8286 257.089 62.054 257 62.3153 257C62.5767 257 62.8002 257.089 62.9858 257.267C63.1752 257.445 63.2699 257.659 63.2699 257.909C63.2699 258.159 63.1752 258.373 62.9858 258.551C62.8002 258.729 62.5767 258.818 62.3153 258.818ZM69.2259 260.273V261.409H64.7031V260.273H69.2259ZM66.0213 258.182H67.3622V266.5C67.3622 266.879 67.4171 267.163 67.527 267.352C67.6406 267.538 67.7846 267.663 67.9588 267.727C68.1368 267.788 68.3243 267.818 68.5213 267.818C68.669 267.818 68.7902 267.811 68.8849 267.795C68.9796 267.777 69.0554 267.761 69.1122 267.75L69.3849 268.955C69.294 268.989 69.1671 269.023 69.0043 269.057C68.8414 269.095 68.6349 269.114 68.3849 269.114C68.0062 269.114 67.6349 269.032 67.2713 268.869C66.9115 268.706 66.6122 268.458 66.3736 268.125C66.1387 267.792 66.0213 267.371 66.0213 266.864V258.182ZM74.6946 269.182C73.9067 269.182 73.2154 268.994 72.6207 268.619C72.0298 268.244 71.5677 267.72 71.2344 267.045C70.9048 266.371 70.7401 265.583 70.7401 264.682C70.7401 263.773 70.9048 262.979 71.2344 262.301C71.5677 261.623 72.0298 261.097 72.6207 260.722C73.2154 260.347 73.9067 260.159 74.6946 260.159C75.4825 260.159 76.1719 260.347 76.7628 260.722C77.3575 261.097 77.8196 261.623 78.1491 262.301C78.4825 262.979 78.6491 263.773 78.6491 264.682C78.6491 265.583 78.4825 266.371 78.1491 267.045C77.8196 267.72 77.3575 268.244 76.7628 268.619C76.1719 268.994 75.4825 269.182 74.6946 269.182ZM74.6946 267.977C75.2931 267.977 75.7855 267.824 76.1719 267.517C76.5582 267.21 76.8442 266.807 77.0298 266.307C77.2154 265.807 77.3082 265.265 77.3082 264.682C77.3082 264.098 77.2154 263.555 77.0298 263.051C76.8442 262.547 76.5582 262.14 76.1719 261.83C75.7855 261.519 75.2931 261.364 74.6946 261.364C74.0961 261.364 73.6037 261.519 73.2173 261.83C72.831 262.14 72.545 262.547 72.3594 263.051C72.1738 263.555 72.081 264.098 72.081 264.682C72.081 265.265 72.1738 265.807 72.3594 266.307C72.545 266.807 72.831 267.21 73.2173 267.517C73.6037 267.824 74.0961 267.977 74.6946 267.977ZM82.696 267.409L82.6051 268.023C82.5407 268.455 82.4422 268.917 82.3097 269.409C82.1809 269.902 82.0464 270.366 81.9062 270.801C81.7661 271.237 81.6506 271.583 81.5597 271.841H80.5369C80.5862 271.598 80.6506 271.278 80.7301 270.881C80.8097 270.483 80.8892 270.038 80.9688 269.545C81.0521 269.057 81.1203 268.557 81.1733 268.045L81.2415 267.409H82.696ZM93.2259 269.182C92.4077 269.182 91.7031 268.989 91.1122 268.602C90.5213 268.216 90.0668 267.684 89.7486 267.006C89.4304 266.328 89.2713 265.553 89.2713 264.682C89.2713 263.795 89.4342 263.013 89.7599 262.335C90.0895 261.653 90.5478 261.121 91.1349 260.739C91.7259 260.352 92.4152 260.159 93.2031 260.159C93.8168 260.159 94.3698 260.273 94.8622 260.5C95.3546 260.727 95.758 261.045 96.0724 261.455C96.3868 261.864 96.5819 262.341 96.6577 262.886H95.3168C95.2145 262.489 94.9872 262.136 94.6349 261.83C94.2865 261.519 93.8168 261.364 93.2259 261.364C92.7031 261.364 92.2448 261.5 91.8509 261.773C91.4607 262.042 91.1558 262.422 90.9361 262.915C90.7202 263.403 90.6122 263.977 90.6122 264.636C90.6122 265.311 90.7183 265.898 90.9304 266.398C91.1463 266.898 91.4493 267.286 91.8395 267.562C92.2334 267.839 92.6955 267.977 93.2259 267.977C93.5743 267.977 93.8906 267.917 94.1747 267.795C94.4588 267.674 94.6993 267.5 94.8963 267.273C95.0933 267.045 95.2334 266.773 95.3168 266.455H96.6577C96.5819 266.97 96.3944 267.434 96.0952 267.847C95.7997 268.256 95.4077 268.581 94.919 268.824C94.4342 269.062 93.8698 269.182 93.2259 269.182ZM102.163 269.182C101.375 269.182 100.684 268.994 100.089 268.619C99.4986 268.244 99.0365 267.72 98.7031 267.045C98.3736 266.371 98.2088 265.583 98.2088 264.682C98.2088 263.773 98.3736 262.979 98.7031 262.301C99.0365 261.623 99.4986 261.097 100.089 260.722C100.684 260.347 101.375 260.159 102.163 260.159C102.951 260.159 103.641 260.347 104.232 260.722C104.826 261.097 105.288 261.623 105.618 262.301C105.951 262.979 106.118 263.773 106.118 264.682C106.118 265.583 105.951 266.371 105.618 267.045C105.288 267.72 104.826 268.244 104.232 268.619C103.641 268.994 102.951 269.182 102.163 269.182ZM102.163 267.977C102.762 267.977 103.254 267.824 103.641 267.517C104.027 267.21 104.313 266.807 104.499 266.307C104.684 265.807 104.777 265.265 104.777 264.682C104.777 264.098 104.684 263.555 104.499 263.051C104.313 262.547 104.027 262.14 103.641 261.83C103.254 261.519 102.762 261.364 102.163 261.364C101.565 261.364 101.072 261.519 100.686 261.83C100.3 262.14 100.014 262.547 99.8281 263.051C99.6425 263.555 99.5497 264.098 99.5497 264.682C99.5497 265.265 99.6425 265.807 99.8281 266.307C100.014 266.807 100.3 267.21 100.686 267.517C101.072 267.824 101.565 267.977 102.163 267.977ZM108.165 269V260.273H109.46V261.636H109.574C109.756 261.17 110.049 260.809 110.455 260.551C110.86 260.29 111.347 260.159 111.915 260.159C112.491 260.159 112.97 260.29 113.352 260.551C113.739 260.809 114.04 261.17 114.256 261.636H114.347C114.57 261.186 114.905 260.828 115.352 260.562C115.799 260.294 116.335 260.159 116.96 260.159C117.741 260.159 118.379 260.403 118.875 260.892C119.371 261.377 119.619 262.133 119.619 263.159V269H118.278V263.159C118.278 262.515 118.102 262.055 117.75 261.778C117.398 261.502 116.983 261.364 116.506 261.364C115.892 261.364 115.417 261.549 115.08 261.92C114.742 262.288 114.574 262.754 114.574 263.318V269H113.21V263.023C113.21 262.527 113.049 262.127 112.727 261.824C112.405 261.517 111.991 261.364 111.483 261.364C111.134 261.364 110.809 261.456 110.506 261.642C110.206 261.828 109.964 262.085 109.778 262.415C109.597 262.741 109.506 263.117 109.506 263.545V269H108.165ZM125.73 269.182C124.889 269.182 124.164 268.996 123.554 268.625C122.948 268.25 122.48 267.727 122.151 267.057C121.825 266.383 121.662 265.598 121.662 264.705C121.662 263.811 121.825 263.023 122.151 262.341C122.48 261.655 122.938 261.121 123.526 260.739C124.116 260.352 124.806 260.159 125.594 260.159C126.048 260.159 126.497 260.235 126.94 260.386C127.384 260.538 127.787 260.784 128.151 261.125C128.514 261.462 128.804 261.909 129.02 262.466C129.236 263.023 129.344 263.708 129.344 264.523V265.091H122.616V263.932H127.98C127.98 263.439 127.882 263 127.685 262.614C127.491 262.227 127.215 261.922 126.855 261.699C126.499 261.475 126.079 261.364 125.594 261.364C125.06 261.364 124.598 261.496 124.207 261.761C123.821 262.023 123.524 262.364 123.315 262.784C123.107 263.205 123.003 263.655 123.003 264.136V264.909C123.003 265.568 123.116 266.127 123.344 266.585C123.575 267.04 123.895 267.386 124.304 267.625C124.713 267.86 125.188 267.977 125.73 267.977C126.082 267.977 126.401 267.928 126.685 267.83C126.973 267.727 127.221 267.576 127.429 267.375C127.637 267.17 127.798 266.917 127.912 266.614L129.207 266.977C129.071 267.417 128.842 267.803 128.52 268.136C128.198 268.466 127.8 268.723 127.327 268.909C126.853 269.091 126.321 269.182 125.73 269.182ZM134.929 269.182C134.111 269.182 133.406 268.989 132.815 268.602C132.224 268.216 131.77 267.684 131.452 267.006C131.134 266.328 130.974 265.553 130.974 264.682C130.974 263.795 131.137 263.013 131.463 262.335C131.793 261.653 132.251 261.121 132.838 260.739C133.429 260.352 134.118 260.159 134.906 260.159C135.52 260.159 136.073 260.273 136.565 260.5C137.058 260.727 137.461 261.045 137.776 261.455C138.09 261.864 138.285 262.341 138.361 262.886H137.02C136.918 262.489 136.69 262.136 136.338 261.83C135.99 261.519 135.52 261.364 134.929 261.364C134.406 261.364 133.948 261.5 133.554 261.773C133.164 262.042 132.859 262.422 132.639 262.915C132.423 263.403 132.315 263.977 132.315 264.636C132.315 265.311 132.421 265.898 132.634 266.398C132.849 266.898 133.152 267.286 133.543 267.562C133.937 267.839 134.399 267.977 134.929 267.977C135.277 267.977 135.594 267.917 135.878 267.795C136.162 267.674 136.402 267.5 136.599 267.273C136.796 267.045 136.937 266.773 137.02 266.455H138.361C138.285 266.97 138.098 267.434 137.798 267.847C137.503 268.256 137.111 268.581 136.622 268.824C136.137 269.062 135.573 269.182 134.929 269.182ZM143.98 269.182C143.139 269.182 142.414 268.996 141.804 268.625C141.198 268.25 140.73 267.727 140.401 267.057C140.075 266.383 139.912 265.598 139.912 264.705C139.912 263.811 140.075 263.023 140.401 262.341C140.73 261.655 141.188 261.121 141.776 260.739C142.366 260.352 143.056 260.159 143.844 260.159C144.298 260.159 144.747 260.235 145.19 260.386C145.634 260.538 146.037 260.784 146.401 261.125C146.764 261.462 147.054 261.909 147.27 262.466C147.486 263.023 147.594 263.708 147.594 264.523V265.091H140.866V263.932H146.23C146.23 263.439 146.132 263 145.935 262.614C145.741 262.227 145.465 261.922 145.105 261.699C144.749 261.475 144.329 261.364 143.844 261.364C143.31 261.364 142.848 261.496 142.457 261.761C142.071 262.023 141.774 262.364 141.565 262.784C141.357 263.205 141.253 263.655 141.253 264.136V264.909C141.253 265.568 141.366 266.127 141.594 266.585C141.825 267.04 142.145 267.386 142.554 267.625C142.963 267.86 143.438 267.977 143.98 267.977C144.332 267.977 144.651 267.928 144.935 267.83C145.223 267.727 145.471 267.576 145.679 267.375C145.887 267.17 146.048 266.917 146.162 266.614L147.457 266.977C147.321 267.417 147.092 267.803 146.77 268.136C146.448 268.466 146.05 268.723 145.577 268.909C145.103 269.091 144.571 269.182 143.98 269.182ZM277.705 269.091C277.424 269.091 277.184 268.991 276.983 268.79C276.782 268.589 276.682 268.348 276.682 268.068C276.682 267.788 276.782 267.547 276.983 267.347C277.184 267.146 277.424 267.045 277.705 267.045C277.985 267.045 278.225 267.146 278.426 267.347C278.627 267.547 278.727 267.788 278.727 268.068C278.727 268.254 278.68 268.424 278.585 268.58C278.494 268.735 278.371 268.86 278.216 268.955C278.064 269.045 277.894 269.091 277.705 269.091Z" fill="#A1A1AA"/>
<path d="M157.679 269.182C156.861 269.182 156.156 268.989 155.565 268.602C154.974 268.216 154.52 267.684 154.202 267.006C153.884 266.328 153.724 265.553 153.724 264.682C153.724 263.795 153.887 263.013 154.213 262.335C154.543 261.653 155.001 261.121 155.588 260.739C156.179 260.352 156.868 260.159 157.656 260.159C158.27 260.159 158.823 260.273 159.315 260.5C159.808 260.727 160.211 261.045 160.526 261.455C160.84 261.864 161.035 262.341 161.111 262.886H159.77C159.668 262.489 159.44 262.136 159.088 261.83C158.74 261.519 158.27 261.364 157.679 261.364C157.156 261.364 156.698 261.5 156.304 261.773C155.914 262.042 155.609 262.422 155.389 262.915C155.173 263.403 155.065 263.977 155.065 264.636C155.065 265.311 155.171 265.898 155.384 266.398C155.599 266.898 155.902 267.286 156.293 267.562C156.687 267.839 157.149 267.977 157.679 267.977C158.027 267.977 158.344 267.917 158.628 267.795C158.912 267.674 159.152 267.5 159.349 267.273C159.546 267.045 159.687 266.773 159.77 266.455H161.111C161.035 266.97 160.848 267.434 160.548 267.847C160.253 268.256 159.861 268.581 159.372 268.824C158.887 269.062 158.323 269.182 157.679 269.182ZM165.639 269.205C165.086 269.205 164.584 269.1 164.134 268.892C163.683 268.68 163.325 268.375 163.06 267.977C162.795 267.576 162.662 267.091 162.662 266.523C162.662 266.023 162.76 265.617 162.957 265.307C163.154 264.992 163.418 264.746 163.747 264.568C164.077 264.39 164.44 264.258 164.838 264.17C165.24 264.08 165.643 264.008 166.048 263.955C166.579 263.886 167.009 263.835 167.338 263.801C167.671 263.763 167.914 263.701 168.065 263.614C168.221 263.527 168.298 263.375 168.298 263.159V263.114C168.298 262.553 168.145 262.117 167.838 261.807C167.535 261.496 167.075 261.341 166.457 261.341C165.817 261.341 165.315 261.481 164.952 261.761C164.588 262.042 164.332 262.341 164.185 262.659L162.912 262.205C163.139 261.674 163.442 261.261 163.821 260.966C164.204 260.667 164.62 260.458 165.071 260.341C165.526 260.22 165.973 260.159 166.412 260.159C166.692 260.159 167.014 260.193 167.378 260.261C167.745 260.326 168.099 260.46 168.44 260.665C168.785 260.869 169.071 261.178 169.298 261.591C169.526 262.004 169.639 262.557 169.639 263.25V269H168.298V267.818H168.23C168.139 268.008 167.988 268.21 167.776 268.426C167.563 268.642 167.281 268.826 166.929 268.977C166.577 269.129 166.147 269.205 165.639 269.205ZM165.844 268C166.374 268 166.821 267.896 167.185 267.688C167.552 267.479 167.829 267.21 168.014 266.881C168.204 266.551 168.298 266.205 168.298 265.841V264.614C168.241 264.682 168.116 264.744 167.923 264.801C167.734 264.854 167.514 264.902 167.264 264.943C167.018 264.981 166.777 265.015 166.543 265.045C166.312 265.072 166.124 265.095 165.98 265.114C165.632 265.159 165.306 265.233 165.003 265.335C164.704 265.434 164.461 265.583 164.276 265.784C164.094 265.981 164.003 266.25 164.003 266.591C164.003 267.057 164.175 267.409 164.52 267.648C164.868 267.883 165.31 268 165.844 268ZM175.382 269.182C174.655 269.182 174.013 268.998 173.456 268.631C172.899 268.259 172.464 267.737 172.149 267.062C171.835 266.384 171.678 265.583 171.678 264.659C171.678 263.742 171.835 262.947 172.149 262.273C172.464 261.598 172.901 261.078 173.462 260.71C174.022 260.343 174.67 260.159 175.405 260.159C175.973 260.159 176.422 260.254 176.751 260.443C177.085 260.629 177.339 260.841 177.513 261.08C177.691 261.314 177.829 261.508 177.928 261.659H178.041V257.364H179.382V269H178.087V267.659H177.928C177.829 267.818 177.689 268.019 177.507 268.261C177.325 268.5 177.066 268.714 176.729 268.903C176.392 269.089 175.943 269.182 175.382 269.182ZM175.564 267.977C176.102 267.977 176.556 267.837 176.928 267.557C177.299 267.273 177.581 266.881 177.774 266.381C177.967 265.877 178.064 265.295 178.064 264.636C178.064 263.985 177.969 263.415 177.78 262.926C177.59 262.434 177.31 262.051 176.939 261.778C176.568 261.502 176.109 261.364 175.564 261.364C174.996 261.364 174.522 261.509 174.143 261.801C173.768 262.089 173.486 262.481 173.297 262.977C173.111 263.47 173.018 264.023 173.018 264.636C173.018 265.258 173.113 265.822 173.303 266.33C173.496 266.833 173.78 267.235 174.155 267.534C174.534 267.83 175.003 267.977 175.564 267.977ZM184.592 269.205C184.039 269.205 183.537 269.1 183.087 268.892C182.636 268.68 182.278 268.375 182.013 267.977C181.748 267.576 181.615 267.091 181.615 266.523C181.615 266.023 181.714 265.617 181.911 265.307C182.107 264.992 182.371 264.746 182.7 264.568C183.03 264.39 183.393 264.258 183.791 264.17C184.193 264.08 184.596 264.008 185.001 263.955C185.532 263.886 185.962 263.835 186.291 263.801C186.625 263.763 186.867 263.701 187.018 263.614C187.174 263.527 187.251 263.375 187.251 263.159V263.114C187.251 262.553 187.098 262.117 186.791 261.807C186.488 261.496 186.028 261.341 185.411 261.341C184.77 261.341 184.268 261.481 183.905 261.761C183.541 262.042 183.286 262.341 183.138 262.659L181.865 262.205C182.092 261.674 182.395 261.261 182.774 260.966C183.157 260.667 183.573 260.458 184.024 260.341C184.479 260.22 184.926 260.159 185.365 260.159C185.645 260.159 185.967 260.193 186.331 260.261C186.698 260.326 187.053 260.46 187.393 260.665C187.738 260.869 188.024 261.178 188.251 261.591C188.479 262.004 188.592 262.557 188.592 263.25V269H187.251V267.818H187.183C187.092 268.008 186.941 268.21 186.729 268.426C186.517 268.642 186.234 268.826 185.882 268.977C185.53 269.129 185.1 269.205 184.592 269.205ZM184.797 268C185.327 268 185.774 267.896 186.138 267.688C186.505 267.479 186.782 267.21 186.967 266.881C187.157 266.551 187.251 266.205 187.251 265.841V264.614C187.195 264.682 187.07 264.744 186.876 264.801C186.687 264.854 186.467 264.902 186.217 264.943C185.971 264.981 185.731 265.015 185.496 265.045C185.265 265.072 185.077 265.095 184.933 265.114C184.585 265.159 184.259 265.233 183.956 265.335C183.657 265.434 183.414 265.583 183.229 265.784C183.047 265.981 182.956 266.25 182.956 266.591C182.956 267.057 183.128 267.409 183.473 267.648C183.821 267.883 184.263 268 184.797 268ZM197.222 262.227L196.017 262.568C195.941 262.367 195.83 262.172 195.682 261.983C195.538 261.79 195.341 261.631 195.091 261.506C194.841 261.381 194.521 261.318 194.131 261.318C193.597 261.318 193.152 261.441 192.795 261.688C192.443 261.93 192.267 262.239 192.267 262.614C192.267 262.947 192.388 263.21 192.631 263.403C192.873 263.597 193.252 263.758 193.767 263.886L195.062 264.205C195.843 264.394 196.424 264.684 196.807 265.074C197.189 265.46 197.381 265.958 197.381 266.568C197.381 267.068 197.237 267.515 196.949 267.909C196.665 268.303 196.267 268.614 195.756 268.841C195.244 269.068 194.65 269.182 193.972 269.182C193.081 269.182 192.345 268.989 191.761 268.602C191.178 268.216 190.809 267.652 190.653 266.909L191.926 266.591C192.047 267.061 192.277 267.413 192.614 267.648C192.955 267.883 193.4 268 193.949 268C194.574 268 195.07 267.867 195.438 267.602C195.809 267.333 195.994 267.011 195.994 266.636C195.994 266.333 195.888 266.08 195.676 265.875C195.464 265.667 195.138 265.511 194.699 265.409L193.244 265.068C192.445 264.879 191.858 264.585 191.483 264.188C191.112 263.786 190.926 263.284 190.926 262.682C190.926 262.189 191.064 261.754 191.341 261.375C191.621 260.996 192.002 260.699 192.483 260.483C192.968 260.267 193.517 260.159 194.131 260.159C194.994 260.159 195.672 260.348 196.165 260.727C196.661 261.106 197.013 261.606 197.222 262.227ZM203.195 260.273V261.409H198.672V260.273H203.195ZM199.99 258.182H201.331V266.5C201.331 266.879 201.386 267.163 201.496 267.352C201.609 267.538 201.753 267.663 201.928 267.727C202.106 267.788 202.293 267.818 202.49 267.818C202.638 267.818 202.759 267.811 202.854 267.795C202.948 267.777 203.024 267.761 203.081 267.75L203.354 268.955C203.263 268.989 203.136 269.023 202.973 269.057C202.81 269.095 202.604 269.114 202.354 269.114C201.975 269.114 201.604 269.032 201.24 268.869C200.88 268.706 200.581 268.458 200.342 268.125C200.107 267.792 199.99 267.371 199.99 266.864V258.182ZM205.212 269V260.273H206.507V261.591H206.598C206.757 261.159 207.045 260.809 207.462 260.54C207.878 260.271 208.348 260.136 208.871 260.136C208.969 260.136 209.092 260.138 209.24 260.142C209.388 260.146 209.5 260.152 209.575 260.159V261.523C209.53 261.511 209.426 261.494 209.263 261.472C209.104 261.445 208.935 261.432 208.757 261.432C208.333 261.432 207.954 261.521 207.621 261.699C207.291 261.873 207.03 262.116 206.837 262.426C206.647 262.733 206.553 263.083 206.553 263.477V269H205.212ZM213.733 269.205C213.18 269.205 212.678 269.1 212.227 268.892C211.777 268.68 211.419 268.375 211.153 267.977C210.888 267.576 210.756 267.091 210.756 266.523C210.756 266.023 210.854 265.617 211.051 265.307C211.248 264.992 211.511 264.746 211.841 264.568C212.17 264.39 212.534 264.258 212.932 264.17C213.333 264.08 213.737 264.008 214.142 263.955C214.672 263.886 215.102 263.835 215.432 263.801C215.765 263.763 216.008 263.701 216.159 263.614C216.314 263.527 216.392 263.375 216.392 263.159V263.114C216.392 262.553 216.239 262.117 215.932 261.807C215.629 261.496 215.169 261.341 214.551 261.341C213.911 261.341 213.409 261.481 213.045 261.761C212.682 262.042 212.426 262.341 212.278 262.659L211.006 262.205C211.233 261.674 211.536 261.261 211.915 260.966C212.297 260.667 212.714 260.458 213.165 260.341C213.619 260.22 214.066 260.159 214.506 260.159C214.786 260.159 215.108 260.193 215.472 260.261C215.839 260.326 216.193 260.46 216.534 260.665C216.879 260.869 217.165 261.178 217.392 261.591C217.619 262.004 217.733 262.557 217.733 263.25V269H216.392V267.818H216.324C216.233 268.008 216.081 268.21 215.869 268.426C215.657 268.642 215.375 268.826 215.023 268.977C214.67 269.129 214.241 269.205 213.733 269.205ZM213.938 268C214.468 268 214.915 267.896 215.278 267.688C215.646 267.479 215.922 267.21 216.108 266.881C216.297 266.551 216.392 266.205 216.392 265.841V264.614C216.335 264.682 216.21 264.744 216.017 264.801C215.828 264.854 215.608 264.902 215.358 264.943C215.112 264.981 214.871 265.015 214.636 265.045C214.405 265.072 214.218 265.095 214.074 265.114C213.725 265.159 213.4 265.233 213.097 265.335C212.797 265.434 212.555 265.583 212.369 265.784C212.188 265.981 212.097 266.25 212.097 266.591C212.097 267.057 212.269 267.409 212.614 267.648C212.962 267.883 213.403 268 213.938 268ZM221.521 263.75V269H220.18V260.273H221.476V261.636H221.589C221.794 261.193 222.105 260.837 222.521 260.568C222.938 260.295 223.476 260.159 224.135 260.159C224.726 260.159 225.243 260.28 225.686 260.523C226.129 260.761 226.474 261.125 226.72 261.614C226.966 262.098 227.089 262.712 227.089 263.455V269H225.749V263.545C225.749 262.86 225.571 262.326 225.214 261.943C224.858 261.557 224.37 261.364 223.749 261.364C223.321 261.364 222.938 261.456 222.601 261.642C222.268 261.828 222.004 262.098 221.811 262.455C221.618 262.811 221.521 263.242 221.521 263.75ZM232.835 269.182C232.108 269.182 231.466 268.998 230.909 268.631C230.352 268.259 229.917 267.737 229.602 267.062C229.288 266.384 229.131 265.583 229.131 264.659C229.131 263.742 229.288 262.947 229.602 262.273C229.917 261.598 230.354 261.078 230.915 260.71C231.475 260.343 232.123 260.159 232.858 260.159C233.426 260.159 233.875 260.254 234.205 260.443C234.538 260.629 234.792 260.841 234.966 261.08C235.144 261.314 235.282 261.508 235.381 261.659H235.494V257.364H236.835V269H235.54V267.659H235.381C235.282 267.818 235.142 268.019 234.96 268.261C234.778 268.5 234.519 268.714 234.182 268.903C233.845 269.089 233.396 269.182 232.835 269.182ZM233.017 267.977C233.555 267.977 234.009 267.837 234.381 267.557C234.752 267.273 235.034 266.881 235.227 266.381C235.42 265.877 235.517 265.295 235.517 264.636C235.517 263.985 235.422 263.415 235.233 262.926C235.044 262.434 234.763 262.051 234.392 261.778C234.021 261.502 233.563 261.364 233.017 261.364C232.449 261.364 231.975 261.509 231.597 261.801C231.222 262.089 230.939 262.481 230.75 262.977C230.564 263.47 230.472 264.023 230.472 264.636C230.472 265.258 230.566 265.822 230.756 266.33C230.949 266.833 231.233 267.235 231.608 267.534C231.987 267.83 232.456 267.977 233.017 267.977ZM243.023 269.182C242.235 269.182 241.544 268.994 240.949 268.619C240.358 268.244 239.896 267.72 239.562 267.045C239.233 266.371 239.068 265.583 239.068 264.682C239.068 263.773 239.233 262.979 239.562 262.301C239.896 261.623 240.358 261.097 240.949 260.722C241.544 260.347 242.235 260.159 243.023 260.159C243.811 260.159 244.5 260.347 245.091 260.722C245.686 261.097 246.148 261.623 246.477 262.301C246.811 262.979 246.977 263.773 246.977 264.682C246.977 265.583 246.811 266.371 246.477 267.045C246.148 267.72 245.686 268.244 245.091 268.619C244.5 268.994 243.811 269.182 243.023 269.182ZM243.023 267.977C243.621 267.977 244.114 267.824 244.5 267.517C244.886 267.21 245.172 266.807 245.358 266.307C245.544 265.807 245.636 265.265 245.636 264.682C245.636 264.098 245.544 263.555 245.358 263.051C245.172 262.547 244.886 262.14 244.5 261.83C244.114 261.519 243.621 261.364 243.023 261.364C242.424 261.364 241.932 261.519 241.545 261.83C241.159 262.14 240.873 262.547 240.688 263.051C240.502 263.555 240.409 264.098 240.409 264.682C240.409 265.265 240.502 265.807 240.688 266.307C240.873 266.807 241.159 267.21 241.545 267.517C241.932 267.824 242.424 267.977 243.023 267.977ZM259.024 265.432V260.273H260.365V269H259.024V267.523H258.933C258.729 267.966 258.411 268.343 257.979 268.653C257.547 268.96 257.001 269.114 256.342 269.114C255.797 269.114 255.312 268.994 254.888 268.756C254.464 268.513 254.13 268.15 253.888 267.665C253.645 267.176 253.524 266.561 253.524 265.818V260.273H254.865V265.727C254.865 266.364 255.043 266.871 255.399 267.25C255.759 267.629 256.217 267.818 256.774 267.818C257.107 267.818 257.446 267.733 257.791 267.562C258.14 267.392 258.431 267.131 258.666 266.778C258.905 266.426 259.024 265.977 259.024 265.432ZM262.821 269V260.273H264.116V261.636H264.23C264.412 261.17 264.705 260.809 265.111 260.551C265.516 260.29 266.003 260.159 266.571 260.159C267.147 260.159 267.626 260.29 268.009 260.551C268.395 260.809 268.696 261.17 268.912 261.636H269.003C269.226 261.186 269.562 260.828 270.009 260.562C270.455 260.294 270.991 260.159 271.616 260.159C272.397 260.159 273.035 260.403 273.531 260.892C274.027 261.377 274.276 262.133 274.276 263.159V269H272.935V263.159C272.935 262.515 272.759 262.055 272.406 261.778C272.054 261.502 271.639 261.364 271.162 261.364C270.548 261.364 270.073 261.549 269.736 261.92C269.399 262.288 269.23 262.754 269.23 263.318V269H267.866V263.023C267.866 262.527 267.705 262.127 267.384 261.824C267.062 261.517 266.647 261.364 266.139 261.364C265.791 261.364 265.465 261.456 265.162 261.642C264.863 261.828 264.62 262.085 264.435 262.415C264.253 262.741 264.162 263.117 264.162 263.545V269H262.821Z" fill="#A78BFA"/>
<path d="M152.906 272.182H275.503V273.273H152.906V272.182Z" fill="#A78BFA"/>
</g>
<defs>
<clipPath id="clip0_5_72">
<rect width="390" height="844" fill="white"/>
</clipPath>
</defs>
</svg>
