<svg width="390" height="844" viewBox="0 0 390 844" fill="none" xmlns="http://www.w3.org/2000/svg">
<g clip-path="url(#clip0_2_45)">
<rect width="390" height="844" fill="#09090A"/>
<rect x="124.8" y="830.96" width="140.4" height="5.20001" rx="2.60001" fill="white"/>
<path d="M85 0H304C301.894 0.602689 300.418 2.49525 300.345 4.68446L300.317 5.5618C300.317 19.0587 289.375 30 275.878 30H113.122C99.6249 30 88.6835 19.0587 88.6835 5.5618L88.6545 4.68447C88.5823 2.49525 87.1059 0.602689 85 0Z" fill="#1E1E1E"/>
<path opacity="0.35" d="M351.5 22C351.5 20.8034 352.47 19.8334 353.667 19.8334H370.333C371.53 19.8334 372.5 20.8034 372.5 22V28C372.5 29.1967 371.53 30.1667 370.333 30.1667H353.667C352.47 30.1667 351.5 29.1967 351.5 28V22Z" fill="white" stroke="#1E1E1E"/>
<path opacity="0.4" d="M374 23V27C374.805 26.6613 375.328 25.8732 375.328 25C375.328 24.1269 374.805 23.3388 374 23Z" fill="white"/>
<path d="M353 22.6667C353 21.9303 353.597 21.3334 354.333 21.3334H369.667C370.403 21.3334 371 21.9303 371 22.6667V27.3334C371 28.0698 370.403 28.6667 369.667 28.6667H354.333C353.597 28.6667 353 28.0698 353 27.3334V22.6667Z" fill="white"/>
<path fill-rule="evenodd" clip-rule="evenodd" d="M338.33 21.608C340.546 21.6081 342.677 22.4596 344.283 23.9863C344.404 24.1042 344.598 24.1027 344.717 23.983L345.873 22.8163C345.933 22.7556 345.967 22.6734 345.966 22.5878C345.966 22.5022 345.931 22.4204 345.87 22.3603C341.655 18.3208 335.005 18.3208 330.79 22.3603C330.729 22.4203 330.694 22.5021 330.694 22.5877C330.693 22.6733 330.727 22.7556 330.787 22.8163L331.943 23.983C332.062 24.1029 332.256 24.1044 332.377 23.9863C333.983 22.4595 336.114 21.608 338.33 21.608ZM338.33 25.4037C339.548 25.4036 340.722 25.8561 341.624 26.6733C341.746 26.7893 341.939 26.7868 342.058 26.6677L343.212 25.501C343.273 25.4398 343.307 25.3568 343.306 25.2705C343.305 25.1843 343.27 25.102 343.208 25.042C340.459 22.4856 336.204 22.4856 333.455 25.042C333.393 25.102 333.358 25.1843 333.357 25.2706C333.356 25.3569 333.39 25.4399 333.451 25.501L334.605 26.6677C334.724 26.7868 334.917 26.7893 335.039 26.6733C335.941 25.8567 337.114 25.4042 338.33 25.4037ZM340.643 27.9575C340.645 28.044 340.611 28.1274 340.549 28.188L338.552 30.2037C338.493 30.2629 338.414 30.2963 338.33 30.2963C338.247 30.2963 338.167 30.2629 338.109 30.2037L336.111 28.188C336.049 28.1274 336.015 28.0439 336.017 27.9574C336.019 27.8709 336.056 27.789 336.121 27.731C337.396 26.6521 339.264 26.6521 340.54 27.731C340.604 27.789 340.642 27.871 340.643 27.9575Z" fill="white"/>
<path fill-rule="evenodd" clip-rule="evenodd" d="M324.667 19.6666H323.667C323.114 19.6666 322.667 20.1143 322.667 20.6666V29.3333C322.667 29.8856 323.114 30.3333 323.667 30.3333H324.667C325.219 30.3333 325.667 29.8856 325.667 29.3333V20.6666C325.667 20.1143 325.219 19.6666 324.667 19.6666ZM319 22H320C320.552 22 321 22.4477 321 23V29.3333C321 29.8856 320.552 30.3333 320 30.3333H319C318.448 30.3333 318 29.8856 318 29.3333V23C318 22.4477 318.448 22 319 22ZM315.333 24.3333H314.333C313.781 24.3333 313.333 24.781 313.333 25.3333V29.3333C313.333 29.8856 313.781 30.3333 314.333 30.3333H315.333C315.886 30.3333 316.333 29.8856 316.333 29.3333V25.3333C316.333 24.781 315.886 24.3333 315.333 24.3333ZM310.667 26.3333H309.667C309.114 26.3333 308.667 26.781 308.667 27.3333V29.3333C308.667 29.8856 309.114 30.3333 309.667 30.3333H310.667C311.219 30.3333 311.667 29.8856 311.667 29.3333V27.3333C311.667 26.781 311.219 26.3333 310.667 26.3333Z" fill="white"/>
<path d="M37.3207 30.2563C40.0087 30.2563 41.6054 28.1543 41.6054 24.5947C41.6054 23.2544 41.349 22.1265 40.8583 21.2549C40.1479 19.8999 38.9247 19.1675 37.3793 19.1675C35.0795 19.1675 33.4535 20.7129 33.4535 22.8809C33.4535 24.917 34.9184 26.3965 36.9325 26.3965C38.1703 26.3965 39.1737 25.8179 39.6718 24.8145H39.6938C39.6938 24.8145 39.7231 24.8145 39.7304 24.8145C39.745 24.8145 39.7963 24.8145 39.7963 24.8145C39.7963 27.2314 38.8808 28.6743 37.3354 28.6743C36.4272 28.6743 35.724 28.1763 35.4823 27.3779H33.6C33.9149 29.1138 35.3871 30.2563 37.3207 30.2563ZM37.3866 24.895C36.1708 24.895 35.3065 24.0308 35.3065 22.8223C35.3065 21.6431 36.2148 20.7422 37.394 20.7422C38.5732 20.7422 39.4814 21.6577 39.4814 22.8516C39.4814 24.0308 38.5951 24.895 37.3866 24.895Z" fill="white"/>
<path d="M44.6965 30.1538C45.3923 30.1538 45.8684 29.6558 45.8684 28.9966C45.8684 28.3301 45.3923 27.8394 44.6965 27.8394C44.008 27.8394 43.5246 28.3301 43.5246 28.9966C43.5246 29.6558 44.008 30.1538 44.6965 30.1538ZM44.6965 24.6606C45.3923 24.6606 45.8684 24.1699 45.8684 23.5107C45.8684 22.8442 45.3923 22.3535 44.6965 22.3535C44.008 22.3535 43.5246 22.8442 43.5246 23.5107C43.5246 24.1699 44.008 24.6606 44.6965 24.6606Z" fill="white"/>
<path d="M52.7241 30H54.5332V28.0298H55.9614V26.4331H54.5332V19.4312H51.8672C49.9995 22.2437 48.5127 24.5947 47.5606 26.3452V28.0298H52.7241V30ZM49.311 26.3672C50.5415 24.1992 51.6401 22.4634 52.6509 20.9692H52.7534V26.4771H49.311V26.3672Z" fill="white"/>
<path d="M59.99 30H61.8797V19.4312H59.9974L57.2361 21.3647V23.1812L59.8655 21.3354H59.99V30Z" fill="white"/>
<rect x="32" y="225" width="30" height="30" rx="7" fill="#18181B" stroke="#27272A" stroke-width="2"/>
<path d="M76.2926 247.5V245.597L81.3423 240.646C81.8253 240.159 82.2277 239.725 82.5497 239.347C82.8717 238.968 83.1132 238.601 83.2741 238.246C83.4351 237.891 83.5156 237.512 83.5156 237.109C83.5156 236.65 83.4115 236.257 83.2031 235.93C82.9948 235.599 82.7083 235.343 82.3438 235.163C81.9792 234.983 81.5649 234.893 81.1009 234.893C80.6226 234.893 80.2036 234.993 79.8438 235.192C79.4839 235.386 79.2045 235.663 79.0057 236.023C78.8116 236.383 78.7145 236.811 78.7145 237.308H76.2074C76.2074 236.385 76.4181 235.582 76.8395 234.901C77.2609 234.219 77.8409 233.691 78.5795 233.317C79.3229 232.943 80.1752 232.756 81.1364 232.756C82.1117 232.756 82.9688 232.938 83.7074 233.303C84.446 233.667 85.0189 234.167 85.4261 234.801C85.8381 235.436 86.044 236.16 86.044 236.974C86.044 237.519 85.9399 238.054 85.7315 238.58C85.5232 239.105 85.1563 239.687 84.6307 240.327C84.1098 240.966 83.3783 241.74 82.4361 242.649L79.929 245.199V245.298H86.2642V247.5H76.2926ZM88.8565 247.5V232.955H91.4915V245.291H97.8977V247.5H88.8565ZM109.08 247.692C108.223 247.692 107.456 247.472 106.779 247.031C106.102 246.591 105.567 245.952 105.174 245.114C104.781 244.276 104.585 243.258 104.585 242.06C104.585 240.848 104.783 239.825 105.181 238.991C105.584 238.153 106.126 237.521 106.808 237.095C107.489 236.664 108.249 236.449 109.087 236.449C109.727 236.449 110.252 236.558 110.664 236.776C111.076 236.989 111.403 237.247 111.644 237.55C111.886 237.848 112.073 238.13 112.205 238.395H112.312V232.955H114.89V247.5H112.362V245.781H112.205C112.073 246.046 111.881 246.328 111.63 246.626C111.379 246.92 111.048 247.171 110.636 247.379C110.224 247.588 109.705 247.692 109.08 247.692ZM109.798 245.582C110.342 245.582 110.806 245.436 111.19 245.142C111.573 244.844 111.864 244.429 112.063 243.899C112.262 243.369 112.362 242.751 112.362 242.045C112.362 241.34 112.262 240.727 112.063 240.206C111.869 239.685 111.58 239.28 111.197 238.991C110.818 238.703 110.352 238.558 109.798 238.558C109.225 238.558 108.746 238.707 108.363 239.006C107.979 239.304 107.691 239.716 107.496 240.241C107.302 240.767 107.205 241.368 107.205 242.045C107.205 242.727 107.302 243.336 107.496 243.871C107.695 244.401 107.987 244.82 108.37 245.128C108.758 245.431 109.234 245.582 109.798 245.582ZM122.459 247.713C121.365 247.713 120.421 247.486 119.625 247.031C118.835 246.572 118.226 245.923 117.8 245.085C117.374 244.242 117.161 243.25 117.161 242.109C117.161 240.987 117.374 240.002 117.8 239.155C118.231 238.303 118.832 237.64 119.604 237.166C120.376 236.688 121.283 236.449 122.324 236.449C122.997 236.449 123.631 236.558 124.228 236.776C124.829 236.989 125.359 237.32 125.819 237.77C126.283 238.22 126.647 238.793 126.912 239.489C127.177 240.18 127.31 241.004 127.31 241.96V242.749H118.368V241.016H124.846C124.841 240.523 124.734 240.085 124.526 239.702C124.318 239.313 124.026 239.008 123.652 238.786C123.283 238.563 122.852 238.452 122.36 238.452C121.834 238.452 121.373 238.58 120.975 238.835C120.577 239.086 120.267 239.418 120.044 239.83C119.827 240.237 119.715 240.684 119.711 241.172V242.685C119.711 243.319 119.827 243.864 120.059 244.318C120.291 244.768 120.615 245.114 121.032 245.355C121.448 245.592 121.936 245.71 122.495 245.71C122.869 245.71 123.207 245.658 123.51 245.554C123.813 245.445 124.076 245.286 124.299 245.078C124.521 244.87 124.689 244.612 124.803 244.304L127.203 244.574C127.052 245.208 126.763 245.762 126.337 246.236C125.916 246.705 125.376 247.069 124.718 247.33C124.06 247.585 123.307 247.713 122.459 247.713ZM137.585 247.72C136.894 247.72 136.271 247.597 135.717 247.351C135.168 247.1 134.732 246.731 134.411 246.243C134.093 245.755 133.935 245.154 133.935 244.439C133.935 243.823 134.048 243.314 134.276 242.912C134.503 242.509 134.813 242.188 135.206 241.946C135.599 241.705 136.042 241.522 136.534 241.399C137.031 241.271 137.545 241.179 138.075 241.122C138.714 241.056 139.233 240.997 139.631 240.945C140.028 240.888 140.317 240.803 140.497 240.689C140.682 240.571 140.774 240.388 140.774 240.142V240.099C140.774 239.564 140.616 239.15 140.298 238.857C139.981 238.563 139.524 238.416 138.928 238.416C138.298 238.416 137.798 238.554 137.429 238.828C137.064 239.103 136.818 239.427 136.69 239.801L134.29 239.46C134.479 238.797 134.792 238.243 135.227 237.798C135.663 237.348 136.196 237.012 136.825 236.79C137.455 236.562 138.151 236.449 138.913 236.449C139.439 236.449 139.962 236.51 140.483 236.634C141.004 236.757 141.48 236.96 141.911 237.244C142.341 237.524 142.687 237.905 142.947 238.388C143.213 238.871 143.345 239.474 143.345 240.199V247.5H140.874V246.001H140.788C140.632 246.304 140.412 246.589 140.128 246.854C139.848 247.114 139.496 247.325 139.07 247.486C138.648 247.642 138.153 247.72 137.585 247.72ZM138.253 245.831C138.769 245.831 139.216 245.729 139.595 245.526C139.974 245.317 140.265 245.043 140.469 244.702C140.677 244.361 140.781 243.989 140.781 243.587V242.301C140.701 242.367 140.563 242.429 140.369 242.486C140.18 242.543 139.967 242.592 139.73 242.635C139.493 242.678 139.259 242.715 139.027 242.749C138.795 242.782 138.594 242.81 138.423 242.834C138.04 242.886 137.696 242.971 137.393 243.089C137.09 243.208 136.851 243.374 136.676 243.587C136.501 243.795 136.413 244.065 136.413 244.396C136.413 244.87 136.586 245.227 136.932 245.469C137.277 245.71 137.718 245.831 138.253 245.831ZM138.04 235.156L139.631 231.911H142.145L139.964 235.156H138.04ZM150.675 251.818C149.751 251.818 148.958 251.693 148.295 251.442C147.633 251.196 147.1 250.864 146.697 250.447C146.295 250.031 146.016 249.569 145.859 249.062L148.175 248.501C148.279 248.714 148.43 248.925 148.629 249.134C148.828 249.347 149.096 249.522 149.432 249.659C149.773 249.801 150.201 249.872 150.717 249.872C151.446 249.872 152.05 249.695 152.528 249.339C153.007 248.989 153.246 248.411 153.246 247.607V245.54H153.118C152.985 245.805 152.791 246.077 152.536 246.357C152.285 246.636 151.951 246.87 151.534 247.06C151.122 247.249 150.604 247.344 149.979 247.344C149.141 247.344 148.381 247.147 147.699 246.754C147.022 246.357 146.482 245.765 146.08 244.979C145.682 244.188 145.483 243.198 145.483 242.01C145.483 240.812 145.682 239.801 146.08 238.977C146.482 238.149 147.024 237.521 147.706 237.095C148.388 236.664 149.148 236.449 149.986 236.449C150.625 236.449 151.151 236.558 151.562 236.776C151.979 236.989 152.311 237.247 152.557 237.55C152.803 237.848 152.99 238.13 153.118 238.395H153.26V236.591H155.795V247.678C155.795 248.61 155.573 249.382 155.128 249.993C154.683 250.604 154.074 251.061 153.303 251.364C152.531 251.667 151.655 251.818 150.675 251.818ZM150.696 245.327C151.241 245.327 151.705 245.194 152.088 244.929C152.472 244.664 152.763 244.283 152.962 243.786C153.161 243.288 153.26 242.692 153.26 241.996C153.26 241.309 153.161 240.708 152.962 240.192C152.768 239.676 152.479 239.276 152.095 238.991C151.716 238.703 151.25 238.558 150.696 238.558C150.123 238.558 149.645 238.707 149.261 239.006C148.878 239.304 148.589 239.714 148.395 240.234C148.201 240.75 148.104 241.338 148.104 241.996C148.104 242.663 148.201 243.248 148.395 243.75C148.594 244.247 148.885 244.635 149.268 244.915C149.657 245.189 150.133 245.327 150.696 245.327ZM165.384 242.912V236.591H167.955V247.5H165.462V245.561H165.348C165.102 246.172 164.697 246.671 164.134 247.06C163.575 247.448 162.886 247.642 162.067 247.642C161.352 247.642 160.72 247.483 160.17 247.166C159.626 246.844 159.2 246.378 158.892 245.767C158.584 245.152 158.43 244.408 158.43 243.537V236.591H161.001V243.139C161.001 243.83 161.191 244.38 161.57 244.787C161.948 245.194 162.446 245.398 163.061 245.398C163.44 245.398 163.807 245.305 164.162 245.121C164.517 244.936 164.808 244.661 165.036 244.297C165.268 243.928 165.384 243.466 165.384 242.912ZM173.738 247.72C173.046 247.72 172.424 247.597 171.87 247.351C171.32 247.1 170.885 246.731 170.563 246.243C170.246 245.755 170.087 245.154 170.087 244.439C170.087 243.823 170.201 243.314 170.428 242.912C170.655 242.509 170.965 242.188 171.358 241.946C171.751 241.705 172.194 241.522 172.686 241.399C173.184 241.271 173.697 241.179 174.228 241.122C174.867 241.056 175.385 240.997 175.783 240.945C176.181 240.888 176.47 240.803 176.65 240.689C176.834 240.571 176.926 240.388 176.926 240.142V240.099C176.926 239.564 176.768 239.15 176.451 238.857C176.133 238.563 175.676 238.416 175.08 238.416C174.45 238.416 173.951 238.554 173.581 238.828C173.217 239.103 172.971 239.427 172.843 239.801L170.442 239.46C170.632 238.797 170.944 238.243 171.38 237.798C171.815 237.348 172.348 237.012 172.978 236.79C173.607 236.562 174.303 236.449 175.066 236.449C175.591 236.449 176.114 236.51 176.635 236.634C177.156 236.757 177.632 236.96 178.063 237.244C178.494 237.524 178.839 237.905 179.1 238.388C179.365 238.871 179.498 239.474 179.498 240.199V247.5H177.026V246.001H176.941C176.784 246.304 176.564 246.589 176.28 246.854C176.001 247.114 175.648 247.325 175.222 247.486C174.801 247.642 174.306 247.72 173.738 247.72ZM174.405 245.831C174.921 245.831 175.369 245.729 175.748 245.526C176.126 245.317 176.417 245.043 176.621 244.702C176.829 244.361 176.934 243.989 176.934 243.587V242.301C176.853 242.367 176.716 242.429 176.522 242.486C176.332 242.543 176.119 242.592 175.882 242.635C175.646 242.678 175.411 242.715 175.179 242.749C174.947 242.782 174.746 242.81 174.576 242.834C174.192 242.886 173.849 242.971 173.546 243.089C173.243 243.208 173.004 243.374 172.828 243.587C172.653 243.795 172.566 244.065 172.566 244.396C172.566 244.87 172.739 245.227 173.084 245.469C173.43 245.71 173.87 245.831 174.405 245.831Z" fill="white"/>
<rect x="31" y="268" width="32" height="32" rx="8" fill="#22C55E"/>
<path d="M53.875 279.625L45.125 288.375L40.75 284" stroke="white" stroke-width="1.88" stroke-linecap="round" stroke-linejoin="round"/>
<path d="M76.4347 291.5V276.955H85.8949V279.163H79.0696V283.112H85.4048V285.321H79.0696V289.291H85.9517V291.5H76.4347ZM90.5717 280.591L92.7734 284.618L95.0107 280.591H97.7308L94.4425 286.045L97.7876 291.5H95.0817L92.7734 287.572L90.4865 291.5H87.7592L91.0831 286.045L87.8445 280.591H90.5717ZM104.139 291.713C103.045 291.713 102.1 291.486 101.305 291.031C100.514 290.572 99.9059 289.923 99.4798 289.085C99.0536 288.242 98.8406 287.25 98.8406 286.109C98.8406 284.987 99.0536 284.002 99.4798 283.155C99.9106 282.303 100.512 281.64 101.284 281.166C102.056 280.688 102.962 280.449 104.004 280.449C104.676 280.449 105.311 280.558 105.907 280.776C106.509 280.989 107.039 281.32 107.498 281.77C107.962 282.22 108.327 282.793 108.592 283.489C108.857 284.18 108.99 285.004 108.99 285.96V286.749H100.048V285.016H106.525C106.52 284.523 106.414 284.085 106.206 283.702C105.997 283.313 105.706 283.008 105.332 282.786C104.963 282.563 104.532 282.452 104.039 282.452C103.514 282.452 103.052 282.58 102.654 282.835C102.257 283.086 101.947 283.418 101.724 283.83C101.506 284.237 101.395 284.684 101.39 285.172V286.685C101.39 287.319 101.506 287.864 101.738 288.318C101.97 288.768 102.295 289.114 102.711 289.355C103.128 289.592 103.616 289.71 104.174 289.71C104.548 289.71 104.887 289.658 105.19 289.554C105.493 289.445 105.756 289.286 105.978 289.078C106.201 288.87 106.369 288.612 106.483 288.304L108.883 288.574C108.732 289.208 108.443 289.762 108.017 290.236C107.595 290.705 107.056 291.069 106.397 291.33C105.739 291.585 104.986 291.713 104.139 291.713ZM111.165 291.5V280.591H113.658V282.409H113.771C113.97 281.779 114.311 281.294 114.794 280.953C115.282 280.607 115.838 280.435 116.463 280.435C116.605 280.435 116.764 280.442 116.939 280.456C117.119 280.465 117.268 280.482 117.386 280.506V282.871C117.277 282.833 117.105 282.8 116.868 282.771C116.636 282.738 116.411 282.722 116.193 282.722C115.724 282.722 115.303 282.823 114.929 283.027C114.56 283.226 114.268 283.503 114.055 283.858C113.842 284.213 113.736 284.623 113.736 285.087V291.5H111.165ZM123.404 291.713C122.315 291.713 121.38 291.474 120.598 290.996C119.822 290.518 119.223 289.857 118.801 289.014C118.385 288.167 118.176 287.191 118.176 286.088C118.176 284.98 118.39 284.002 118.816 283.155C119.242 282.303 119.843 281.64 120.62 281.166C121.401 280.688 122.324 280.449 123.39 280.449C124.275 280.449 125.059 280.612 125.74 280.939C126.427 281.261 126.974 281.718 127.381 282.31C127.788 282.897 128.02 283.583 128.077 284.369H125.62C125.52 283.844 125.283 283.406 124.909 283.055C124.54 282.7 124.045 282.523 123.425 282.523C122.9 282.523 122.438 282.665 122.04 282.949C121.642 283.228 121.332 283.631 121.11 284.156C120.892 284.682 120.783 285.312 120.783 286.045C120.783 286.789 120.892 287.428 121.11 287.963C121.328 288.493 121.633 288.903 122.026 289.192C122.424 289.476 122.89 289.618 123.425 289.618C123.804 289.618 124.142 289.547 124.441 289.405C124.744 289.258 124.997 289.047 125.201 288.773C125.404 288.498 125.544 288.164 125.62 287.771H128.077C128.016 288.543 127.788 289.227 127.395 289.824C127.002 290.416 126.467 290.88 125.79 291.216C125.113 291.547 124.318 291.713 123.404 291.713ZM130.188 291.5V280.591H132.759V291.5H130.188ZM130.494 279.156L132.085 275.911H134.599L132.418 279.156H130.494ZM140.162 291.713C139.073 291.713 138.137 291.474 137.356 290.996C136.58 290.518 135.981 289.857 135.559 289.014C135.143 288.167 134.934 287.191 134.934 286.088C134.934 284.98 135.147 284.002 135.574 283.155C136 282.303 136.601 281.64 137.377 281.166C138.159 280.688 139.082 280.449 140.147 280.449C141.033 280.449 141.816 280.612 142.498 280.939C143.185 281.261 143.732 281.718 144.139 282.31C144.546 282.897 144.778 283.583 144.835 284.369H142.377C142.278 283.844 142.041 283.406 141.667 283.055C141.298 282.7 140.803 282.523 140.183 282.523C139.657 282.523 139.196 282.665 138.798 282.949C138.4 283.228 138.09 283.631 137.868 284.156C137.65 284.682 137.541 285.312 137.541 286.045C137.541 286.789 137.65 287.428 137.868 287.963C138.085 288.493 138.391 288.903 138.784 289.192C139.181 289.476 139.648 289.618 140.183 289.618C140.562 289.618 140.9 289.547 141.199 289.405C141.502 289.258 141.755 289.047 141.958 288.773C142.162 288.498 142.302 288.164 142.377 287.771H144.835C144.773 288.543 144.546 289.227 144.153 289.824C143.76 290.416 143.225 290.88 142.548 291.216C141.871 291.547 141.075 291.713 140.162 291.713ZM146.946 291.5V280.591H149.517V291.5H146.946ZM148.239 279.043C147.831 279.043 147.481 278.908 147.188 278.638C146.894 278.363 146.747 278.034 146.747 277.651C146.747 277.262 146.894 276.933 147.188 276.663C147.481 276.389 147.831 276.251 148.239 276.251C148.651 276.251 149.001 276.389 149.29 276.663C149.583 276.933 149.73 277.262 149.73 277.651C149.73 278.034 149.583 278.363 149.29 278.638C149.001 278.908 148.651 279.043 148.239 279.043ZM156.919 291.713C155.854 291.713 154.931 291.479 154.15 291.01C153.368 290.541 152.762 289.885 152.331 289.043C151.905 288.2 151.692 287.215 151.692 286.088C151.692 284.961 151.905 283.974 152.331 283.126C152.762 282.279 153.368 281.621 154.15 281.152C154.931 280.683 155.854 280.449 156.919 280.449C157.985 280.449 158.908 280.683 159.689 281.152C160.471 281.621 161.074 282.279 161.5 283.126C161.931 283.974 162.147 284.961 162.147 286.088C162.147 287.215 161.931 288.2 161.5 289.043C161.074 289.885 160.471 290.541 159.689 291.01C158.908 291.479 157.985 291.713 156.919 291.713ZM156.934 289.653C157.511 289.653 157.994 289.495 158.382 289.178C158.771 288.856 159.06 288.425 159.249 287.885C159.443 287.345 159.54 286.744 159.54 286.081C159.54 285.413 159.443 284.81 159.249 284.27C159.06 283.725 158.771 283.292 158.382 282.97C157.994 282.648 157.511 282.487 156.934 282.487C156.342 282.487 155.849 282.648 155.456 282.97C155.068 283.292 154.777 283.725 154.583 284.27C154.393 284.81 154.299 285.413 154.299 286.081C154.299 286.744 154.393 287.345 154.583 287.885C154.777 288.425 155.068 288.856 155.456 289.178C155.849 289.495 156.342 289.653 156.934 289.653Z" fill="white"/>
<rect x="31" y="312" width="32" height="32" rx="8" fill="#22C55E"/>
<path d="M53.875 323.625L45.125 332.375L40.75 328" stroke="white" stroke-width="1.88" stroke-linecap="round" stroke-linejoin="round"/>
<path d="M78.3026 335.5H75.4901L80.6108 320.955H83.8636L88.9915 335.5H86.179L82.294 323.938H82.1804L78.3026 335.5ZM78.3949 329.797H86.0653V331.913H78.3949V329.797ZM93.3647 320.955V335.5H90.7937V320.955H93.3647ZM96.0085 335.5V324.591H98.5795V335.5H96.0085ZM97.3011 323.043C96.8939 323.043 96.5436 322.908 96.25 322.638C95.9564 322.363 95.8097 322.034 95.8097 321.651C95.8097 321.262 95.9564 320.933 96.25 320.663C96.5436 320.389 96.8939 320.251 97.3011 320.251C97.7131 320.251 98.0634 320.389 98.3523 320.663C98.6458 320.933 98.7926 321.262 98.7926 321.651C98.7926 322.034 98.6458 322.363 98.3523 322.638C98.0634 322.908 97.7131 323.043 97.3011 323.043ZM101.223 335.5V324.591H103.681V326.445H103.809C104.036 325.82 104.412 325.332 104.938 324.982C105.463 324.626 106.091 324.449 106.82 324.449C107.559 324.449 108.181 324.629 108.688 324.989C109.199 325.344 109.559 325.829 109.767 326.445H109.881C110.123 325.839 110.53 325.356 111.103 324.996C111.68 324.631 112.364 324.449 113.155 324.449C114.159 324.449 114.978 324.766 115.613 325.401C116.247 326.035 116.564 326.961 116.564 328.178V335.5H113.986V328.575C113.986 327.898 113.806 327.403 113.446 327.091C113.087 326.774 112.646 326.615 112.125 326.615C111.505 326.615 111.02 326.809 110.669 327.197C110.324 327.581 110.151 328.08 110.151 328.696V335.5H107.63V328.469C107.63 327.905 107.459 327.455 107.118 327.119C106.782 326.783 106.342 326.615 105.797 326.615C105.428 326.615 105.092 326.71 104.789 326.899C104.486 327.084 104.244 327.347 104.064 327.688C103.884 328.024 103.794 328.417 103.794 328.866V335.5H101.223ZM124.002 335.713C122.908 335.713 121.964 335.486 121.168 335.031C120.378 334.572 119.769 333.923 119.343 333.085C118.917 332.242 118.704 331.25 118.704 330.109C118.704 328.987 118.917 328.002 119.343 327.155C119.774 326.303 120.375 325.64 121.147 325.166C121.919 324.688 122.826 324.449 123.867 324.449C124.54 324.449 125.174 324.558 125.771 324.776C126.372 324.989 126.902 325.32 127.362 325.77C127.826 326.22 128.19 326.793 128.455 327.489C128.72 328.18 128.853 329.004 128.853 329.96V330.749H119.911V329.016H126.388C126.384 328.523 126.277 328.085 126.069 327.702C125.861 327.313 125.569 327.008 125.195 326.786C124.826 326.563 124.395 326.452 123.903 326.452C123.377 326.452 122.915 326.58 122.518 326.835C122.12 327.086 121.81 327.418 121.587 327.83C121.37 328.237 121.258 328.684 121.254 329.172V330.685C121.254 331.319 121.37 331.864 121.602 332.318C121.834 332.768 122.158 333.114 122.575 333.355C122.991 333.592 123.479 333.71 124.038 333.71C124.412 333.71 124.75 333.658 125.053 333.554C125.356 333.445 125.619 333.286 125.842 333.078C126.064 332.87 126.232 332.612 126.346 332.304L128.746 332.574C128.595 333.208 128.306 333.762 127.88 334.236C127.459 334.705 126.919 335.069 126.261 335.33C125.603 335.585 124.85 335.713 124.002 335.713ZM133.599 329.108V335.5H131.028V324.591H133.485V326.445H133.613C133.864 325.834 134.264 325.348 134.814 324.989C135.368 324.629 136.052 324.449 136.866 324.449C137.619 324.449 138.275 324.61 138.833 324.932C139.397 325.254 139.833 325.72 140.14 326.331C140.453 326.942 140.607 327.683 140.602 328.554V335.5H138.031V328.952C138.031 328.223 137.842 327.652 137.463 327.24C137.089 326.828 136.57 326.622 135.907 326.622C135.458 326.622 135.057 326.722 134.707 326.92C134.361 327.115 134.089 327.396 133.89 327.766C133.696 328.135 133.599 328.582 133.599 329.108ZM148.663 324.591V326.58H142.392V324.591H148.663ZM143.94 321.977H146.511V332.219C146.511 332.564 146.563 332.83 146.667 333.014C146.776 333.194 146.918 333.317 147.093 333.384C147.269 333.45 147.463 333.483 147.676 333.483C147.837 333.483 147.984 333.471 148.116 333.447C148.253 333.424 148.358 333.402 148.429 333.384L148.862 335.393C148.725 335.441 148.528 335.493 148.272 335.55C148.021 335.607 147.714 335.64 147.349 335.649C146.705 335.668 146.125 335.571 145.609 335.358C145.093 335.14 144.683 334.804 144.38 334.349C144.082 333.895 143.935 333.327 143.94 332.645V321.977ZM153.952 335.72C153.261 335.72 152.638 335.597 152.085 335.351C151.535 335.1 151.1 334.731 150.778 334.243C150.46 333.755 150.302 333.154 150.302 332.439C150.302 331.823 150.415 331.314 150.643 330.912C150.87 330.509 151.18 330.188 151.573 329.946C151.966 329.705 152.409 329.522 152.901 329.399C153.398 329.271 153.912 329.179 154.442 329.122C155.082 329.056 155.6 328.997 155.998 328.945C156.396 328.888 156.684 328.803 156.864 328.689C157.049 328.571 157.141 328.388 157.141 328.142V328.099C157.141 327.564 156.983 327.15 156.665 326.857C156.348 326.563 155.891 326.416 155.295 326.416C154.665 326.416 154.165 326.554 153.796 326.828C153.432 327.103 153.185 327.427 153.058 327.801L150.657 327.46C150.846 326.797 151.159 326.243 151.594 325.798C152.03 325.348 152.563 325.012 153.192 324.79C153.822 324.562 154.518 324.449 155.281 324.449C155.806 324.449 156.329 324.51 156.85 324.634C157.371 324.757 157.847 324.96 158.278 325.244C158.709 325.524 159.054 325.905 159.315 326.388C159.58 326.871 159.712 327.474 159.712 328.199V335.5H157.241V334.001H157.156C156.999 334.304 156.779 334.589 156.495 334.854C156.216 335.114 155.863 335.325 155.437 335.486C155.015 335.642 154.521 335.72 153.952 335.72ZM154.62 333.831C155.136 333.831 155.584 333.729 155.962 333.526C156.341 333.317 156.632 333.043 156.836 332.702C157.044 332.361 157.148 331.989 157.148 331.587V330.301C157.068 330.367 156.931 330.429 156.737 330.486C156.547 330.543 156.334 330.592 156.097 330.635C155.861 330.678 155.626 330.715 155.394 330.749C155.162 330.782 154.961 330.81 154.79 330.834C154.407 330.886 154.064 330.971 153.761 331.089C153.458 331.208 153.219 331.374 153.043 331.587C152.868 331.795 152.781 332.065 152.781 332.396C152.781 332.87 152.953 333.227 153.299 333.469C153.645 333.71 154.085 333.831 154.62 333.831ZM167.056 335.713C165.967 335.713 165.032 335.474 164.251 334.996C163.474 334.518 162.875 333.857 162.454 333.014C162.037 332.167 161.829 331.191 161.829 330.088C161.829 328.98 162.042 328.002 162.468 327.155C162.894 326.303 163.496 325.64 164.272 325.166C165.053 324.688 165.977 324.449 167.042 324.449C167.927 324.449 168.711 324.612 169.393 324.939C170.079 325.261 170.626 325.718 171.033 326.31C171.441 326.897 171.673 327.583 171.729 328.369H169.272C169.173 327.844 168.936 327.406 168.562 327.055C168.192 326.7 167.698 326.523 167.077 326.523C166.552 326.523 166.09 326.665 165.692 326.949C165.295 327.228 164.985 327.631 164.762 328.156C164.544 328.682 164.435 329.312 164.435 330.045C164.435 330.789 164.544 331.428 164.762 331.963C164.98 332.493 165.285 332.903 165.678 333.192C166.076 333.476 166.542 333.618 167.077 333.618C167.456 333.618 167.795 333.547 168.093 333.405C168.396 333.258 168.649 333.047 168.853 332.773C169.057 332.498 169.196 332.164 169.272 331.771H171.729C171.668 332.543 171.441 333.227 171.048 333.824C170.655 334.416 170.12 334.88 169.442 335.216C168.765 335.547 167.97 335.713 167.056 335.713ZM166.317 335.443H167.71L167.596 336.047C168.041 336.113 168.417 336.284 168.725 336.558C169.038 336.838 169.194 337.238 169.194 337.759C169.199 338.431 168.898 338.971 168.292 339.378C167.686 339.785 166.822 339.989 165.7 339.989L165.671 338.724C166.216 338.724 166.649 338.651 166.971 338.504C167.293 338.362 167.456 338.135 167.461 337.822C167.47 337.519 167.357 337.297 167.12 337.155C166.888 337.018 166.519 336.923 166.012 336.871L166.317 335.443ZM176.98 335.72C176.288 335.72 175.666 335.597 175.112 335.351C174.563 335.1 174.127 334.731 173.805 334.243C173.488 333.755 173.329 333.154 173.329 332.439C173.329 331.823 173.443 331.314 173.67 330.912C173.897 330.509 174.208 330.188 174.6 329.946C174.993 329.705 175.436 329.522 175.929 329.399C176.426 329.271 176.94 329.179 177.47 329.122C178.109 329.056 178.627 328.997 179.025 328.945C179.423 328.888 179.712 328.803 179.892 328.689C180.076 328.571 180.169 328.388 180.169 328.142V328.099C180.169 327.564 180.01 327.15 179.693 326.857C179.376 326.563 178.919 326.416 178.322 326.416C177.692 326.416 177.193 326.554 176.824 326.828C176.459 327.103 176.213 327.427 176.085 327.801L173.684 327.46C173.874 326.797 174.186 326.243 174.622 325.798C175.057 325.348 175.59 325.012 176.22 324.79C176.85 324.562 177.546 324.449 178.308 324.449C178.833 324.449 179.357 324.51 179.877 324.634C180.398 324.757 180.874 324.96 181.305 325.244C181.736 325.524 182.082 325.905 182.342 326.388C182.607 326.871 182.74 327.474 182.74 328.199V335.5H180.268V334.001H180.183C180.027 334.304 179.806 334.589 179.522 334.854C179.243 335.114 178.89 335.325 178.464 335.486C178.043 335.642 177.548 335.72 176.98 335.72ZM177.647 333.831C178.163 333.831 178.611 333.729 178.99 333.526C179.368 333.317 179.66 333.043 179.863 332.702C180.072 332.361 180.176 331.989 180.176 331.587V330.301C180.095 330.367 179.958 330.429 179.764 330.486C179.574 330.543 179.361 330.592 179.125 330.635C178.888 330.678 178.654 330.715 178.422 330.749C178.19 330.782 177.988 330.81 177.818 330.834C177.434 330.886 177.091 330.971 176.788 331.089C176.485 331.208 176.246 331.374 176.071 331.587C175.895 331.795 175.808 332.065 175.808 332.396C175.808 332.87 175.981 333.227 176.326 333.469C176.672 333.71 177.112 333.831 177.647 333.831ZM176.333 323.263L174.778 323.227C174.778 322.384 174.996 321.724 175.431 321.246C175.867 320.768 176.404 320.528 177.044 320.528C177.351 320.528 177.619 320.58 177.846 320.685C178.074 320.784 178.282 320.9 178.471 321.033C178.665 321.165 178.855 321.284 179.039 321.388C179.224 321.487 179.428 321.537 179.65 321.537C179.92 321.537 180.133 321.435 180.289 321.232C180.45 321.028 180.533 320.768 180.538 320.45L182.065 320.514C182.06 321.362 181.84 322.02 181.404 322.489C180.969 322.953 180.434 323.187 179.799 323.192C179.458 323.196 179.172 323.147 178.94 323.043C178.708 322.938 178.504 322.82 178.329 322.688C178.159 322.555 177.986 322.439 177.811 322.339C177.636 322.235 177.43 322.183 177.193 322.183C176.942 322.183 176.736 322.283 176.575 322.482C176.414 322.68 176.333 322.941 176.333 323.263ZM190.083 335.713C189.018 335.713 188.095 335.479 187.314 335.01C186.532 334.541 185.926 333.885 185.495 333.043C185.069 332.2 184.856 331.215 184.856 330.088C184.856 328.961 185.069 327.974 185.495 327.126C185.926 326.279 186.532 325.621 187.314 325.152C188.095 324.683 189.018 324.449 190.083 324.449C191.149 324.449 192.072 324.683 192.853 325.152C193.635 325.621 194.238 326.279 194.664 327.126C195.095 327.974 195.311 328.961 195.311 330.088C195.311 331.215 195.095 332.2 194.664 333.043C194.238 333.885 193.635 334.541 192.853 335.01C192.072 335.479 191.149 335.713 190.083 335.713ZM190.098 333.653C190.675 333.653 191.158 333.495 191.547 333.178C191.935 332.856 192.224 332.425 192.413 331.885C192.607 331.345 192.704 330.744 192.704 330.081C192.704 329.413 192.607 328.81 192.413 328.27C192.224 327.725 191.935 327.292 191.547 326.97C191.158 326.648 190.675 326.487 190.098 326.487C189.506 326.487 189.013 326.648 188.62 326.97C188.232 327.292 187.941 327.725 187.747 328.27C187.557 328.81 187.463 329.413 187.463 330.081C187.463 330.744 187.557 331.345 187.747 331.885C187.941 332.425 188.232 332.856 188.62 333.178C189.013 333.495 189.506 333.653 190.098 333.653ZM211.076 327.474L208.732 327.73C208.666 327.493 208.55 327.271 208.384 327.062C208.223 326.854 208.005 326.686 207.731 326.558C207.456 326.43 207.12 326.366 206.722 326.366C206.187 326.366 205.737 326.482 205.373 326.714C205.013 326.946 204.835 327.247 204.84 327.616C204.835 327.934 204.951 328.192 205.188 328.391C205.43 328.589 205.827 328.753 206.381 328.881L208.242 329.278C209.274 329.501 210.041 329.854 210.543 330.337C211.05 330.82 211.306 331.452 211.31 332.233C211.306 332.92 211.104 333.526 210.707 334.051C210.314 334.572 209.767 334.979 209.066 335.273C208.365 335.566 207.56 335.713 206.651 335.713C205.316 335.713 204.241 335.434 203.427 334.875C202.612 334.312 202.127 333.528 201.971 332.524L204.478 332.283C204.592 332.775 204.833 333.147 205.202 333.398C205.572 333.649 206.052 333.774 206.644 333.774C207.255 333.774 207.745 333.649 208.114 333.398C208.488 333.147 208.675 332.837 208.675 332.467C208.675 332.155 208.555 331.897 208.313 331.693C208.076 331.49 207.707 331.333 207.205 331.224L205.344 330.834C204.298 330.616 203.524 330.249 203.022 329.733C202.52 329.212 202.272 328.554 202.276 327.759C202.272 327.086 202.454 326.504 202.823 326.011C203.197 325.514 203.716 325.131 204.379 324.861C205.046 324.586 205.816 324.449 206.687 324.449C207.965 324.449 208.971 324.721 209.705 325.266C210.444 325.81 210.901 326.546 211.076 327.474ZM216.57 335.72C215.878 335.72 215.256 335.597 214.702 335.351C214.152 335.1 213.717 334.731 213.395 334.243C213.078 333.755 212.919 333.154 212.919 332.439C212.919 331.823 213.033 331.314 213.26 330.912C213.487 330.509 213.797 330.188 214.19 329.946C214.583 329.705 215.026 329.522 215.518 329.399C216.016 329.271 216.529 329.179 217.06 329.122C217.699 329.056 218.217 328.997 218.615 328.945C219.013 328.888 219.302 328.803 219.482 328.689C219.666 328.571 219.759 328.388 219.759 328.142V328.099C219.759 327.564 219.6 327.15 219.283 326.857C218.965 326.563 218.509 326.416 217.912 326.416C217.282 326.416 216.783 326.554 216.413 326.828C216.049 327.103 215.803 327.427 215.675 327.801L213.274 327.46C213.464 326.797 213.776 326.243 214.212 325.798C214.647 325.348 215.18 325.012 215.81 324.79C216.439 324.562 217.135 324.449 217.898 324.449C218.423 324.449 218.946 324.51 219.467 324.634C219.988 324.757 220.464 324.96 220.895 325.244C221.326 325.524 221.671 325.905 221.932 326.388C222.197 326.871 222.33 327.474 222.33 328.199V335.5H219.858V334.001H219.773C219.616 334.304 219.396 334.589 219.112 334.854C218.833 335.114 218.48 335.325 218.054 335.486C217.633 335.642 217.138 335.72 216.57 335.72ZM217.237 333.831C217.753 333.831 218.201 333.729 218.58 333.526C218.958 333.317 219.25 333.043 219.453 332.702C219.661 332.361 219.766 331.989 219.766 331.587V330.301C219.685 330.367 219.548 330.429 219.354 330.486C219.164 330.543 218.951 330.592 218.714 330.635C218.478 330.678 218.243 330.715 218.011 330.749C217.779 330.782 217.578 330.81 217.408 330.834C217.024 330.886 216.681 330.971 216.378 331.089C216.075 331.208 215.836 331.374 215.661 331.587C215.485 331.795 215.398 332.065 215.398 332.396C215.398 332.87 215.571 333.227 215.916 333.469C216.262 333.71 216.702 333.831 217.237 333.831ZM231.868 330.912V324.591H234.439V335.5H231.946V333.561H231.832C231.586 334.172 231.181 334.671 230.618 335.06C230.059 335.448 229.37 335.642 228.551 335.642C227.836 335.642 227.204 335.483 226.655 335.166C226.11 334.844 225.684 334.378 225.376 333.767C225.069 333.152 224.915 332.408 224.915 331.537V324.591H227.486V331.139C227.486 331.83 227.675 332.38 228.054 332.787C228.433 333.194 228.93 333.398 229.545 333.398C229.924 333.398 230.291 333.305 230.646 333.121C231.001 332.936 231.293 332.661 231.52 332.297C231.752 331.928 231.868 331.466 231.868 330.912ZM241.131 335.692C240.274 335.692 239.507 335.472 238.83 335.031C238.153 334.591 237.618 333.952 237.225 333.114C236.832 332.276 236.635 331.258 236.635 330.06C236.635 328.848 236.834 327.825 237.232 326.991C237.634 326.153 238.176 325.521 238.858 325.095C239.54 324.664 240.3 324.449 241.138 324.449C241.777 324.449 242.303 324.558 242.715 324.776C243.127 324.989 243.453 325.247 243.695 325.55C243.936 325.848 244.123 326.13 244.256 326.395H244.363V320.955H246.941V335.5H244.412V333.781H244.256C244.123 334.046 243.932 334.328 243.681 334.626C243.43 334.92 243.098 335.171 242.686 335.379C242.275 335.588 241.756 335.692 241.131 335.692ZM241.848 333.582C242.393 333.582 242.857 333.436 243.24 333.142C243.624 332.844 243.915 332.429 244.114 331.899C244.313 331.369 244.412 330.751 244.412 330.045C244.412 329.34 244.313 328.727 244.114 328.206C243.92 327.685 243.631 327.28 243.248 326.991C242.869 326.703 242.402 326.558 241.848 326.558C241.275 326.558 240.797 326.707 240.414 327.006C240.03 327.304 239.741 327.716 239.547 328.241C239.353 328.767 239.256 329.368 239.256 330.045C239.256 330.727 239.353 331.336 239.547 331.871C239.746 332.401 240.037 332.82 240.421 333.128C240.809 333.431 241.285 333.582 241.848 333.582ZM252.82 335.72C252.128 335.72 251.506 335.597 250.952 335.351C250.402 335.1 249.967 334.731 249.645 334.243C249.328 333.755 249.169 333.154 249.169 332.439C249.169 331.823 249.283 331.314 249.51 330.912C249.737 330.509 250.047 330.188 250.44 329.946C250.833 329.705 251.276 329.522 251.768 329.399C252.266 329.271 252.779 329.179 253.31 329.122C253.949 329.056 254.467 328.997 254.865 328.945C255.263 328.888 255.552 328.803 255.732 328.689C255.916 328.571 256.009 328.388 256.009 328.142V328.099C256.009 327.564 255.85 327.15 255.533 326.857C255.215 326.563 254.759 326.416 254.162 326.416C253.532 326.416 253.033 326.554 252.663 326.828C252.299 327.103 252.053 327.427 251.925 327.801L249.524 327.46C249.714 326.797 250.026 326.243 250.462 325.798C250.897 325.348 251.43 325.012 252.06 324.79C252.689 324.562 253.385 324.449 254.148 324.449C254.673 324.449 255.196 324.51 255.717 324.634C256.238 324.757 256.714 324.96 257.145 325.244C257.576 325.524 257.921 325.905 258.182 326.388C258.447 326.871 258.58 327.474 258.58 328.199V335.5H256.108V334.001H256.023C255.866 334.304 255.646 334.589 255.362 334.854C255.083 335.114 254.73 335.325 254.304 335.486C253.883 335.642 253.388 335.72 252.82 335.72ZM253.487 333.831C254.003 333.831 254.451 333.729 254.83 333.526C255.208 333.317 255.5 333.043 255.703 332.702C255.911 332.361 256.016 331.989 256.016 331.587V330.301C255.935 330.367 255.798 330.429 255.604 330.486C255.414 330.543 255.201 330.592 254.964 330.635C254.728 330.678 254.493 330.715 254.261 330.749C254.029 330.782 253.828 330.81 253.658 330.834C253.274 330.886 252.931 330.971 252.628 331.089C252.325 331.208 252.086 331.374 251.911 331.587C251.735 331.795 251.648 332.065 251.648 332.396C251.648 332.87 251.821 333.227 252.166 333.469C252.512 333.71 252.952 333.831 253.487 333.831ZM253.274 323.156L254.865 319.911H257.379L255.199 323.156H253.274ZM270.518 324.591L266.634 335.5H263.793L259.908 324.591H262.649L265.156 332.695H265.27L267.784 324.591H270.518ZM276.756 335.713C275.662 335.713 274.718 335.486 273.922 335.031C273.132 334.572 272.523 333.923 272.097 333.085C271.671 332.242 271.458 331.25 271.458 330.109C271.458 328.987 271.671 328.002 272.097 327.155C272.528 326.303 273.129 325.64 273.901 325.166C274.673 324.688 275.579 324.449 276.621 324.449C277.293 324.449 277.928 324.558 278.525 324.776C279.126 324.989 279.656 325.32 280.115 325.77C280.579 326.22 280.944 326.793 281.209 327.489C281.474 328.18 281.607 329.004 281.607 329.96V330.749H272.665V329.016H279.142C279.138 328.523 279.031 328.085 278.823 327.702C278.614 327.313 278.323 327.008 277.949 326.786C277.58 326.563 277.149 326.452 276.657 326.452C276.131 326.452 275.669 326.58 275.272 326.835C274.874 327.086 274.564 327.418 274.341 327.83C274.123 328.237 274.012 328.684 274.007 329.172V330.685C274.007 331.319 274.123 331.864 274.355 332.318C274.587 332.768 274.912 333.114 275.328 333.355C275.745 333.592 276.233 333.71 276.792 333.71C277.166 333.71 277.504 333.658 277.807 333.554C278.11 333.445 278.373 333.286 278.596 333.078C278.818 332.87 278.986 332.612 279.1 332.304L281.5 332.574C281.349 333.208 281.06 333.762 280.634 334.236C280.212 334.705 279.673 335.069 279.015 335.33C278.356 335.585 277.604 335.713 276.756 335.713ZM286.353 320.955V335.5H283.782V320.955H286.353Z" fill="white"/>
<rect x="32" y="357" width="30" height="30" rx="7" fill="#18181B" stroke="#27272A" stroke-width="2"/>
<path d="M76.4347 379.5V364.955H81.8892C83.0066 364.955 83.9441 365.163 84.7017 365.58C85.464 365.996 86.0393 366.569 86.4276 367.298C86.8205 368.023 87.017 368.847 87.017 369.77C87.017 370.703 86.8205 371.531 86.4276 372.256C86.0346 372.98 85.4545 373.551 84.6875 373.967C83.9205 374.379 82.9759 374.585 81.8537 374.585H78.2386V372.419H81.4986C82.152 372.419 82.687 372.305 83.1037 372.078C83.5204 371.851 83.8281 371.538 84.027 371.141C84.2306 370.743 84.3324 370.286 84.3324 369.77C84.3324 369.254 84.2306 368.799 84.027 368.406C83.8281 368.013 83.518 367.708 83.0966 367.49C82.6799 367.268 82.1425 367.156 81.4844 367.156H79.0696V379.5H76.4347ZM91.7631 364.955V379.5H89.1921V364.955H91.7631ZM97.5462 379.72C96.8549 379.72 96.2322 379.597 95.6783 379.351C95.129 379.1 94.6934 378.731 94.3714 378.243C94.0542 377.755 93.8956 377.154 93.8956 376.439C93.8956 375.823 94.0092 375.314 94.2365 374.912C94.4638 374.509 94.7739 374.188 95.1669 373.946C95.5599 373.705 96.0026 373.522 96.495 373.399C96.9922 373.271 97.5059 373.179 98.0362 373.122C98.6754 373.056 99.1939 372.997 99.5916 372.945C99.9893 372.888 100.278 372.803 100.458 372.689C100.643 372.571 100.735 372.388 100.735 372.142V372.099C100.735 371.564 100.576 371.15 100.259 370.857C99.942 370.563 99.4851 370.416 98.8885 370.416C98.2588 370.416 97.7592 370.554 97.3899 370.828C97.0253 371.103 96.7791 371.427 96.6513 371.801L94.2507 371.46C94.4401 370.797 94.7526 370.243 95.1882 369.798C95.6238 369.348 96.1565 369.012 96.7862 368.79C97.416 368.562 98.112 368.449 98.8743 368.449C99.3999 368.449 99.9231 368.51 100.444 368.634C100.965 368.757 101.441 368.96 101.871 369.244C102.302 369.524 102.648 369.905 102.908 370.388C103.174 370.871 103.306 371.474 103.306 372.199V379.5H100.835V378.001H100.749C100.593 378.304 100.373 378.589 100.089 378.854C99.8094 379.114 99.4567 379.325 99.0305 379.486C98.6091 379.642 98.1143 379.72 97.5462 379.72ZM98.2138 377.831C98.7299 377.831 99.1773 377.729 99.5561 377.526C99.9349 377.317 100.226 377.043 100.43 376.702C100.638 376.361 100.742 375.989 100.742 375.587V374.301C100.662 374.367 100.524 374.429 100.33 374.486C100.141 374.543 99.9278 374.592 99.6911 374.635C99.4543 374.678 99.2199 374.715 98.9879 374.749C98.7559 374.782 98.5547 374.81 98.3842 374.834C98.0007 374.886 97.6574 374.971 97.3544 375.089C97.0514 375.208 96.8123 375.374 96.6371 375.587C96.4619 375.795 96.3743 376.065 96.3743 376.396C96.3743 376.87 96.5471 377.227 96.8928 377.469C97.2384 377.71 97.6787 377.831 98.2138 377.831ZM108.462 373.108V379.5H105.891V368.591H108.349V370.445H108.477C108.728 369.834 109.128 369.348 109.677 368.989C110.231 368.629 110.915 368.449 111.729 368.449C112.482 368.449 113.138 368.61 113.697 368.932C114.26 369.254 114.696 369.72 115.004 370.331C115.316 370.942 115.47 371.683 115.465 372.554V379.5H112.894V372.952C112.894 372.223 112.705 371.652 112.326 371.24C111.952 370.828 111.433 370.622 110.771 370.622C110.321 370.622 109.921 370.722 109.57 370.92C109.225 371.115 108.952 371.396 108.754 371.766C108.559 372.135 108.462 372.582 108.462 373.108ZM122.908 379.713C121.815 379.713 120.87 379.486 120.075 379.031C119.284 378.572 118.675 377.923 118.249 377.085C117.823 376.242 117.61 375.25 117.61 374.109C117.61 372.987 117.823 372.002 118.249 371.155C118.68 370.303 119.281 369.64 120.053 369.166C120.825 368.688 121.732 368.449 122.773 368.449C123.446 368.449 124.08 368.558 124.677 368.776C125.278 368.989 125.808 369.32 126.268 369.77C126.732 370.22 127.096 370.793 127.362 371.489C127.627 372.18 127.759 373.004 127.759 373.96V374.749H118.817V373.016H125.295C125.29 372.523 125.183 372.085 124.975 371.702C124.767 371.313 124.476 371.008 124.102 370.786C123.732 370.563 123.301 370.452 122.809 370.452C122.283 370.452 121.822 370.58 121.424 370.835C121.026 371.086 120.716 371.418 120.494 371.83C120.276 372.237 120.165 372.684 120.16 373.172V374.685C120.16 375.319 120.276 375.864 120.508 376.318C120.74 376.768 121.064 377.114 121.481 377.355C121.897 377.592 122.385 377.71 122.944 377.71C123.318 377.71 123.656 377.658 123.96 377.554C124.263 377.445 124.525 377.286 124.748 377.078C124.97 376.87 125.138 376.612 125.252 376.304L127.653 376.574C127.501 377.208 127.212 377.762 126.786 378.236C126.365 378.705 125.825 379.069 125.167 379.33C124.509 379.585 123.756 379.713 122.908 379.713ZM129.934 368.591H132.505V380.125C132.505 380.911 132.356 381.56 132.058 382.071C131.76 382.582 131.329 382.964 130.765 383.214C130.202 383.465 129.518 383.591 128.713 383.591C128.618 383.591 128.53 383.589 128.45 383.584C128.369 383.584 128.282 383.581 128.187 383.577V381.482C128.258 381.486 128.322 381.489 128.379 381.489C128.436 381.493 128.495 381.496 128.556 381.496C129.049 381.496 129.402 381.375 129.615 381.134C129.828 380.897 129.934 380.549 129.934 380.089V368.591ZM131.213 367.043C130.801 367.043 130.448 366.908 130.154 366.638C129.866 366.363 129.721 366.034 129.721 365.651C129.721 365.262 129.866 364.933 130.154 364.663C130.448 364.389 130.801 364.251 131.213 364.251C131.62 364.251 131.968 364.389 132.257 364.663C132.55 364.933 132.697 365.262 132.697 365.651C132.697 366.034 132.55 366.363 132.257 366.638C131.968 366.908 131.62 367.043 131.213 367.043ZM138.288 379.72C137.597 379.72 136.974 379.597 136.42 379.351C135.871 379.1 135.436 378.731 135.114 378.243C134.796 377.755 134.638 377.154 134.638 376.439C134.638 375.823 134.751 375.314 134.979 374.912C135.206 374.509 135.516 374.188 135.909 373.946C136.302 373.705 136.745 373.522 137.237 373.399C137.734 373.271 138.248 373.179 138.778 373.122C139.418 373.056 139.936 372.997 140.334 372.945C140.732 372.888 141.02 372.803 141.2 372.689C141.385 372.571 141.477 372.388 141.477 372.142V372.099C141.477 371.564 141.319 371.15 141.001 370.857C140.684 370.563 140.227 370.416 139.631 370.416C139.001 370.416 138.501 370.554 138.132 370.828C137.768 371.103 137.521 371.427 137.393 371.801L134.993 371.46C135.182 370.797 135.495 370.243 135.93 369.798C136.366 369.348 136.899 369.012 137.528 368.79C138.158 368.562 138.854 368.449 139.616 368.449C140.142 368.449 140.665 368.51 141.186 368.634C141.707 368.757 142.183 368.96 142.614 369.244C143.045 369.524 143.39 369.905 143.651 370.388C143.916 370.871 144.048 371.474 144.048 372.199V379.5H141.577V378.001H141.491C141.335 378.304 141.115 378.589 140.831 378.854C140.552 379.114 140.199 379.325 139.773 379.486C139.351 379.642 138.857 379.72 138.288 379.72ZM138.956 377.831C139.472 377.831 139.92 377.729 140.298 377.526C140.677 377.317 140.968 377.043 141.172 376.702C141.38 376.361 141.484 375.989 141.484 375.587V374.301C141.404 374.367 141.267 374.429 141.072 374.486C140.883 374.543 140.67 374.592 140.433 374.635C140.196 374.678 139.962 374.715 139.73 374.749C139.498 374.782 139.297 374.81 139.126 374.834C138.743 374.886 138.4 374.971 138.097 375.089C137.794 375.208 137.554 375.374 137.379 375.587C137.204 375.795 137.116 376.065 137.116 376.396C137.116 376.87 137.289 377.227 137.635 377.469C137.981 377.71 138.421 377.831 138.956 377.831ZM146.634 379.5V368.591H149.126V370.409H149.24C149.439 369.779 149.78 369.294 150.263 368.953C150.75 368.607 151.307 368.435 151.932 368.435C152.074 368.435 152.232 368.442 152.408 368.456C152.588 368.465 152.737 368.482 152.855 368.506V370.871C152.746 370.833 152.573 370.8 152.337 370.771C152.105 370.738 151.88 370.722 151.662 370.722C151.193 370.722 150.772 370.823 150.398 371.027C150.028 371.226 149.737 371.503 149.524 371.858C149.311 372.213 149.205 372.623 149.205 373.087V379.5H146.634ZM159.524 383.591V368.591H162.053V370.395H162.202C162.334 370.13 162.521 369.848 162.763 369.55C163.004 369.247 163.331 368.989 163.743 368.776C164.155 368.558 164.68 368.449 165.32 368.449C166.162 368.449 166.922 368.664 167.599 369.095C168.281 369.521 168.821 370.153 169.219 370.991C169.621 371.825 169.822 372.848 169.822 374.06C169.822 375.258 169.626 376.276 169.233 377.114C168.84 377.952 168.305 378.591 167.628 379.031C166.951 379.472 166.184 379.692 165.327 379.692C164.702 379.692 164.183 379.588 163.771 379.379C163.359 379.171 163.028 378.92 162.777 378.626C162.531 378.328 162.339 378.046 162.202 377.781H162.095V383.591H159.524ZM162.045 374.045C162.045 374.751 162.145 375.369 162.344 375.899C162.547 376.429 162.839 376.844 163.217 377.142C163.601 377.436 164.065 377.582 164.609 377.582C165.178 377.582 165.653 377.431 166.037 377.128C166.42 376.82 166.709 376.401 166.903 375.871C167.102 375.336 167.202 374.727 167.202 374.045C167.202 373.368 167.105 372.767 166.911 372.241C166.716 371.716 166.428 371.304 166.044 371.006C165.661 370.707 165.182 370.558 164.609 370.558C164.06 370.558 163.594 370.703 163.21 370.991C162.827 371.28 162.536 371.685 162.337 372.206C162.143 372.727 162.045 373.34 162.045 374.045ZM172.024 379.5V368.591H174.517V370.409H174.631C174.83 369.779 175.17 369.294 175.653 368.953C176.141 368.607 176.697 368.435 177.322 368.435C177.464 368.435 177.623 368.442 177.798 368.456C177.978 368.465 178.127 368.482 178.246 368.506V370.871C178.137 370.833 177.964 370.8 177.727 370.771C177.495 370.738 177.27 370.722 177.053 370.722C176.584 370.722 176.162 370.823 175.788 371.027C175.419 371.226 175.128 371.503 174.915 371.858C174.702 372.213 174.595 372.623 174.595 373.087V379.5H172.024ZM184.263 379.713C183.198 379.713 182.275 379.479 181.493 379.01C180.712 378.541 180.106 377.885 179.675 377.043C179.249 376.2 179.036 375.215 179.036 374.088C179.036 372.961 179.249 371.974 179.675 371.126C180.106 370.279 180.712 369.621 181.493 369.152C182.275 368.683 183.198 368.449 184.263 368.449C185.328 368.449 186.252 368.683 187.033 369.152C187.814 369.621 188.418 370.279 188.844 371.126C189.275 371.974 189.49 372.961 189.49 374.088C189.49 375.215 189.275 376.2 188.844 377.043C188.418 377.885 187.814 378.541 187.033 379.01C186.252 379.479 185.328 379.713 184.263 379.713ZM184.277 377.653C184.855 377.653 185.338 377.495 185.726 377.178C186.114 376.856 186.403 376.425 186.593 375.885C186.787 375.345 186.884 374.744 186.884 374.081C186.884 373.413 186.787 372.81 186.593 372.27C186.403 371.725 186.114 371.292 185.726 370.97C185.338 370.648 184.855 370.487 184.277 370.487C183.685 370.487 183.193 370.648 182.8 370.97C182.412 371.292 182.121 371.725 181.926 372.27C181.737 372.81 181.642 373.413 181.642 374.081C181.642 374.744 181.737 375.345 181.926 375.885C182.121 376.425 182.412 376.856 182.8 377.178C183.193 377.495 183.685 377.653 184.277 377.653ZM183.276 367.156L184.867 363.911H187.381L185.201 367.156H183.276ZM193.365 368.591L195.566 372.618L197.804 368.591H200.524L197.235 374.045L200.581 379.5H197.875L195.566 375.572L193.279 379.5H190.552L193.876 374.045L190.637 368.591H193.365ZM202.512 379.5V368.591H205.083V379.5H202.512ZM203.805 367.043C203.398 367.043 203.047 366.908 202.754 366.638C202.46 366.363 202.314 366.034 202.314 365.651C202.314 365.262 202.46 364.933 202.754 364.663C203.047 364.389 203.398 364.251 203.805 364.251C204.217 364.251 204.567 364.389 204.856 364.663C205.15 364.933 205.297 365.262 205.297 365.651C205.297 366.034 205.15 366.363 204.856 366.638C204.567 366.908 204.217 367.043 203.805 367.043ZM207.727 379.5V368.591H210.185V370.445H210.312C210.54 369.82 210.916 369.332 211.442 368.982C211.967 368.626 212.595 368.449 213.324 368.449C214.062 368.449 214.685 368.629 215.192 368.989C215.703 369.344 216.063 369.829 216.271 370.445H216.385C216.626 369.839 217.034 369.356 217.607 368.996C218.184 368.631 218.868 368.449 219.659 368.449C220.663 368.449 221.482 368.766 222.116 369.401C222.751 370.035 223.068 370.961 223.068 372.178V379.5H220.49V372.575C220.49 371.898 220.31 371.403 219.95 371.091C219.59 370.774 219.15 370.615 218.629 370.615C218.009 370.615 217.524 370.809 217.173 371.197C216.828 371.581 216.655 372.08 216.655 372.696V379.5H214.134V372.469C214.134 371.905 213.963 371.455 213.622 371.119C213.286 370.783 212.846 370.615 212.301 370.615C211.932 370.615 211.596 370.71 211.293 370.899C210.99 371.084 210.748 371.347 210.568 371.688C210.388 372.024 210.298 372.417 210.298 372.866V379.5H207.727ZM230.435 379.713C229.37 379.713 228.446 379.479 227.665 379.01C226.884 378.541 226.278 377.885 225.847 377.043C225.421 376.2 225.208 375.215 225.208 374.088C225.208 372.961 225.421 371.974 225.847 371.126C226.278 370.279 226.884 369.621 227.665 369.152C228.446 368.683 229.37 368.449 230.435 368.449C231.5 368.449 232.424 368.683 233.205 369.152C233.986 369.621 234.59 370.279 235.016 371.126C235.447 371.974 235.662 372.961 235.662 374.088C235.662 375.215 235.447 376.2 235.016 377.043C234.59 377.885 233.986 378.541 233.205 379.01C232.424 379.479 231.5 379.713 230.435 379.713ZM230.449 377.653C231.027 377.653 231.51 377.495 231.898 377.178C232.286 376.856 232.575 376.425 232.765 375.885C232.959 375.345 233.056 374.744 233.056 374.081C233.056 373.413 232.959 372.81 232.765 372.27C232.575 371.725 232.286 371.292 231.898 370.97C231.51 370.648 231.027 370.487 230.449 370.487C229.857 370.487 229.365 370.648 228.972 370.97C228.584 371.292 228.292 371.725 228.098 372.27C227.909 372.81 227.814 373.413 227.814 374.081C227.814 374.744 227.909 375.345 228.098 375.885C228.292 376.425 228.584 376.856 228.972 377.178C229.365 377.495 229.857 377.653 230.449 377.653ZM246.854 379.692C245.997 379.692 245.23 379.472 244.553 379.031C243.875 378.591 243.34 377.952 242.947 377.114C242.554 376.276 242.358 375.258 242.358 374.06C242.358 372.848 242.557 371.825 242.955 370.991C243.357 370.153 243.899 369.521 244.581 369.095C245.263 368.664 246.023 368.449 246.861 368.449C247.5 368.449 248.026 368.558 248.438 368.776C248.849 368.989 249.176 369.247 249.418 369.55C249.659 369.848 249.846 370.13 249.979 370.395H250.085V364.955H252.663V379.5H250.135V377.781H249.979C249.846 378.046 249.654 378.328 249.403 378.626C249.152 378.92 248.821 379.171 248.409 379.379C247.997 379.588 247.479 379.692 246.854 379.692ZM247.571 377.582C248.116 377.582 248.58 377.436 248.963 377.142C249.347 376.844 249.638 376.429 249.837 375.899C250.036 375.369 250.135 374.751 250.135 374.045C250.135 373.34 250.036 372.727 249.837 372.206C249.643 371.685 249.354 371.28 248.97 370.991C248.591 370.703 248.125 370.558 247.571 370.558C246.998 370.558 246.52 370.707 246.136 371.006C245.753 371.304 245.464 371.716 245.27 372.241C245.076 372.767 244.979 373.368 244.979 374.045C244.979 374.727 245.076 375.336 245.27 375.871C245.469 376.401 245.76 376.82 246.143 377.128C246.532 377.431 247.008 377.582 247.571 377.582ZM255.403 379.5V368.591H257.974V379.5H255.403ZM256.696 367.043C256.288 367.043 255.938 366.908 255.645 366.638C255.351 366.363 255.204 366.034 255.204 365.651C255.204 365.262 255.351 364.933 255.645 364.663C255.938 364.389 256.288 364.251 256.696 364.251C257.108 364.251 257.458 364.389 257.747 364.663C258.04 364.933 258.187 365.262 258.187 365.651C258.187 366.034 258.04 366.363 257.747 366.638C257.458 366.908 257.108 367.043 256.696 367.043ZM263.757 379.72C263.066 379.72 262.443 379.597 261.889 379.351C261.34 379.1 260.904 378.731 260.582 378.243C260.265 377.755 260.107 377.154 260.107 376.439C260.107 375.823 260.22 375.314 260.447 374.912C260.675 374.509 260.985 374.188 261.378 373.946C261.771 373.705 262.214 373.522 262.706 373.399C263.203 373.271 263.717 373.179 264.247 373.122C264.886 373.056 265.405 372.997 265.803 372.945C266.2 372.888 266.489 372.803 266.669 372.689C266.854 372.571 266.946 372.388 266.946 372.142V372.099C266.946 371.564 266.787 371.15 266.47 370.857C266.153 370.563 265.696 370.416 265.099 370.416C264.47 370.416 263.97 370.554 263.601 370.828C263.236 371.103 262.99 371.427 262.862 371.801L260.462 371.46C260.651 370.797 260.964 370.243 261.399 369.798C261.835 369.348 262.367 369.012 262.997 368.79C263.627 368.562 264.323 368.449 265.085 368.449C265.611 368.449 266.134 368.51 266.655 368.634C267.176 368.757 267.652 368.96 268.082 369.244C268.513 369.524 268.859 369.905 269.119 370.388C269.384 370.871 269.517 371.474 269.517 372.199V379.5H267.045V378.001H266.96C266.804 378.304 266.584 378.589 266.3 378.854C266.02 379.114 265.668 379.325 265.241 379.486C264.82 379.642 264.325 379.72 263.757 379.72ZM264.425 377.831C264.941 377.831 265.388 377.729 265.767 377.526C266.146 377.317 266.437 377.043 266.641 376.702C266.849 376.361 266.953 375.989 266.953 375.587V374.301C266.873 374.367 266.735 374.429 266.541 374.486C266.352 374.543 266.139 374.592 265.902 374.635C265.665 374.678 265.431 374.715 265.199 374.749C264.967 374.782 264.766 374.81 264.595 374.834C264.212 374.886 263.868 374.971 263.565 375.089C263.262 375.208 263.023 375.374 262.848 375.587C262.673 375.795 262.585 376.065 262.585 376.396C262.585 376.87 262.758 377.227 263.104 377.469C263.449 377.71 263.89 377.831 264.425 377.831Z" fill="white"/>
<rect x="32" y="401" width="30" height="30" rx="7" fill="#18181B" stroke="#27272A" stroke-width="2"/>
<path d="M81.3636 423.5H76.4347V408.955H81.4631C82.9072 408.955 84.1477 409.246 85.1847 409.828C86.2263 410.406 87.0265 411.237 87.5852 412.321C88.1439 413.405 88.4233 414.703 88.4233 416.213C88.4233 417.728 88.1416 419.03 87.5781 420.119C87.0194 421.208 86.2121 422.044 85.1562 422.626C84.1051 423.209 82.8409 423.5 81.3636 423.5ZM79.0696 421.22H81.2358C82.2491 421.22 83.0942 421.036 83.7713 420.666C84.4484 420.292 84.9574 419.736 85.2983 418.997C85.6392 418.254 85.8097 417.326 85.8097 416.213C85.8097 415.1 85.6392 414.177 85.2983 413.443C84.9574 412.705 84.4531 412.153 83.7855 411.788C83.1226 411.419 82.2988 411.234 81.3139 411.234H79.0696V421.22ZM95.5717 423.713C94.5064 423.713 93.5831 423.479 92.8018 423.01C92.0206 422.541 91.4145 421.885 90.9837 421.043C90.5575 420.2 90.3445 419.215 90.3445 418.088C90.3445 416.961 90.5575 415.974 90.9837 415.126C91.4145 414.279 92.0206 413.621 92.8018 413.152C93.5831 412.683 94.5064 412.449 95.5717 412.449C96.6371 412.449 97.5604 412.683 98.3416 413.152C99.1229 413.621 99.7266 414.279 100.153 415.126C100.584 415.974 100.799 416.961 100.799 418.088C100.799 419.215 100.584 420.2 100.153 421.043C99.7266 421.885 99.1229 422.541 98.3416 423.01C97.5604 423.479 96.6371 423.713 95.5717 423.713ZM95.5859 421.653C96.1636 421.653 96.6465 421.495 97.0348 421.178C97.4231 420.856 97.7119 420.425 97.9013 419.885C98.0954 419.345 98.1925 418.744 98.1925 418.081C98.1925 417.413 98.0954 416.81 97.9013 416.27C97.7119 415.725 97.4231 415.292 97.0348 414.97C96.6465 414.648 96.1636 414.487 95.5859 414.487C94.9941 414.487 94.5017 414.648 94.1087 414.97C93.7204 415.292 93.4292 415.725 93.2351 416.27C93.0457 416.81 92.951 417.413 92.951 418.081C92.951 418.744 93.0457 419.345 93.2351 419.885C93.4292 420.425 93.7204 420.856 94.1087 421.178C94.5017 421.495 94.9941 421.653 95.5859 421.653ZM102.981 423.5V412.591H105.474V414.409H105.588C105.787 413.779 106.127 413.294 106.61 412.953C107.098 412.607 107.654 412.435 108.279 412.435C108.422 412.435 108.58 412.442 108.755 412.456C108.935 412.465 109.084 412.482 109.203 412.506V414.871C109.094 414.833 108.921 414.8 108.684 414.771C108.452 414.738 108.227 414.722 108.01 414.722C107.541 414.722 107.119 414.823 106.745 415.027C106.376 415.226 106.085 415.503 105.872 415.858C105.659 416.213 105.552 416.623 105.552 417.087V423.5H102.981ZM110.911 423.5V412.591H113.368V414.445H113.496C113.723 413.82 114.1 413.332 114.625 412.982C115.151 412.626 115.778 412.449 116.507 412.449C117.246 412.449 117.869 412.629 118.375 412.989C118.887 413.344 119.247 413.829 119.455 414.445H119.569C119.81 413.839 120.217 413.356 120.79 412.996C121.368 412.631 122.052 412.449 122.843 412.449C123.846 412.449 124.666 412.766 125.3 413.401C125.935 414.035 126.252 414.961 126.252 416.178V423.5H123.674V416.575C123.674 415.898 123.494 415.403 123.134 415.091C122.774 414.774 122.334 414.615 121.813 414.615C121.193 414.615 120.707 414.809 120.357 415.197C120.011 415.581 119.838 416.08 119.838 416.696V423.5H117.317V416.469C117.317 415.905 117.147 415.455 116.806 415.119C116.47 414.783 116.029 414.615 115.485 414.615C115.115 414.615 114.779 414.71 114.476 414.899C114.173 415.084 113.932 415.347 113.752 415.688C113.572 416.024 113.482 416.417 113.482 416.866V423.5H110.911ZM128.86 423.5V412.591H131.431V423.5H128.86ZM130.153 411.043C129.746 411.043 129.395 410.908 129.102 410.638C128.808 410.363 128.661 410.034 128.661 409.651C128.661 409.262 128.808 408.933 129.102 408.663C129.395 408.389 129.746 408.251 130.153 408.251C130.565 408.251 130.915 408.389 131.204 408.663C131.497 408.933 131.644 409.262 131.644 409.651C131.644 410.034 131.497 410.363 131.204 410.638C130.915 410.908 130.565 411.043 130.153 411.043ZM134.075 423.5V412.591H136.568V414.409H136.681C136.88 413.779 137.221 413.294 137.704 412.953C138.192 412.607 138.748 412.435 139.373 412.435C139.515 412.435 139.674 412.442 139.849 412.456C140.029 412.465 140.178 412.482 140.297 412.506V414.871C140.188 414.833 140.015 414.8 139.778 414.771C139.546 414.738 139.321 414.722 139.103 414.722C138.635 414.722 138.213 414.823 137.839 415.027C137.47 415.226 137.179 415.503 136.966 415.858C136.752 416.213 136.646 416.623 136.646 417.087V423.5H134.075ZM152.108 423.699C151.052 423.699 150.114 423.521 149.295 423.166C148.481 422.811 147.842 422.326 147.377 421.71C146.918 421.09 146.691 420.387 146.696 419.601C146.691 418.99 146.824 418.429 147.093 417.918C147.363 417.406 147.728 416.98 148.187 416.639C148.651 416.294 149.167 416.073 149.735 415.979V415.879C148.987 415.714 148.381 415.332 147.917 414.736C147.458 414.134 147.231 413.441 147.235 412.655C147.231 411.907 147.439 411.239 147.86 410.652C148.282 410.065 148.859 409.603 149.593 409.267C150.327 408.926 151.165 408.756 152.108 408.756C153.04 408.756 153.871 408.926 154.6 409.267C155.334 409.603 155.912 410.065 156.333 410.652C156.76 411.239 156.973 411.907 156.973 412.655C156.973 413.441 156.738 414.134 156.27 414.736C155.806 415.332 155.207 415.714 154.473 415.879V415.979C155.041 416.073 155.552 416.294 156.007 416.639C156.466 416.98 156.831 417.406 157.1 417.918C157.375 418.429 157.512 418.99 157.512 419.601C157.512 420.387 157.28 421.09 156.816 421.71C156.352 422.326 155.713 422.811 154.899 423.166C154.089 423.521 153.159 423.699 152.108 423.699ZM152.108 421.668C152.652 421.668 153.126 421.575 153.528 421.391C153.931 421.201 154.243 420.936 154.466 420.595C154.688 420.254 154.802 419.861 154.806 419.416C154.802 418.952 154.681 418.543 154.444 418.188C154.212 417.828 153.893 417.546 153.485 417.342C153.083 417.139 152.624 417.037 152.108 417.037C151.587 417.037 151.123 417.139 150.716 417.342C150.308 417.546 149.986 417.828 149.75 418.188C149.518 418.543 149.404 418.952 149.409 419.416C149.404 419.861 149.513 420.254 149.735 420.595C149.958 420.931 150.27 421.194 150.673 421.384C151.08 421.573 151.558 421.668 152.108 421.668ZM152.108 415.041C152.553 415.041 152.946 414.951 153.287 414.771C153.632 414.591 153.904 414.34 154.103 414.018C154.302 413.696 154.404 413.325 154.409 412.903C154.404 412.487 154.305 412.122 154.11 411.81C153.916 411.492 153.646 411.249 153.301 411.078C152.955 410.903 152.557 410.815 152.108 410.815C151.648 410.815 151.243 410.903 150.893 411.078C150.547 411.249 150.278 411.492 150.083 411.81C149.894 412.122 149.802 412.487 149.806 412.903C149.802 413.325 149.896 413.696 150.091 414.018C150.289 414.336 150.562 414.587 150.907 414.771C151.258 414.951 151.658 415.041 152.108 415.041ZM162.447 417.108V423.5H159.876V408.955H162.39V414.445H162.518C162.773 413.829 163.169 413.344 163.704 412.989C164.244 412.629 164.93 412.449 165.763 412.449C166.521 412.449 167.182 412.607 167.745 412.925C168.308 413.242 168.744 413.706 169.052 414.317C169.364 414.928 169.521 415.673 169.521 416.554V423.5H166.95V416.952C166.95 416.218 166.76 415.647 166.381 415.24C166.007 414.828 165.482 414.622 164.805 414.622C164.35 414.622 163.943 414.722 163.583 414.92C163.228 415.115 162.949 415.396 162.745 415.766C162.546 416.135 162.447 416.582 162.447 417.108Z" fill="white"/>
<path d="M43.3409 164.568C41.3106 164.568 39.5606 164.087 38.0909 163.125C36.6212 162.155 35.4886 160.765 34.6932 158.955C33.8977 157.136 33.5038 154.951 33.5114 152.398C33.5189 149.845 33.9167 147.678 34.7045 145.898C35.5 144.11 36.6288 142.75 38.0909 141.818C39.5606 140.879 41.3106 140.409 43.3409 140.409C45.3712 140.409 47.1212 140.879 48.5909 141.818C50.0682 142.75 51.2045 144.11 52 145.898C52.7955 147.686 53.1894 149.852 53.1818 152.398C53.1818 154.958 52.7841 157.148 51.9886 158.966C51.1932 160.784 50.0606 162.174 48.5909 163.136C47.1288 164.091 45.3788 164.568 43.3409 164.568ZM43.3409 159.966C44.553 159.966 45.5341 159.348 46.2841 158.114C47.0341 156.871 47.4053 154.966 47.3977 152.398C47.3977 150.716 47.2273 149.33 46.8864 148.239C46.5455 147.14 46.072 146.322 45.4659 145.784C44.8598 145.246 44.1515 144.977 43.3409 144.977C42.1364 144.977 41.1629 145.587 40.4205 146.807C39.678 148.019 39.303 149.883 39.2955 152.398C39.2879 154.102 39.4508 155.515 39.7841 156.636C40.125 157.758 40.6023 158.595 41.2159 159.148C41.8295 159.693 42.5379 159.966 43.3409 159.966ZM65.2557 164.318C63.483 164.318 61.911 164.015 60.5398 163.409C59.1761 162.795 58.1004 161.951 57.3125 160.875C56.5246 159.799 56.1231 158.561 56.108 157.159H61.767C61.7898 157.667 61.9527 158.117 62.2557 158.511C62.5587 158.898 62.9716 159.201 63.4943 159.42C64.017 159.64 64.6117 159.75 65.2784 159.75C65.9451 159.75 66.5322 159.633 67.0398 159.398C67.5549 159.155 67.9564 158.826 68.2443 158.409C68.5322 157.985 68.6723 157.5 68.6648 156.955C68.6723 156.409 68.517 155.924 68.1989 155.5C67.8807 155.076 67.4299 154.746 66.8466 154.511C66.2708 154.277 65.589 154.159 64.8011 154.159H62.5398V150.159H64.8011C65.4905 150.159 66.0966 150.045 66.6193 149.818C67.1496 149.591 67.5625 149.273 67.858 148.864C68.1534 148.447 68.2973 147.97 68.2898 147.432C68.2973 146.909 68.1723 146.451 67.9148 146.057C67.6648 145.655 67.3125 145.345 66.858 145.125C66.411 144.905 65.892 144.795 65.3011 144.795C64.6799 144.795 64.1155 144.905 63.608 145.125C63.108 145.345 62.7102 145.655 62.4148 146.057C62.1193 146.458 61.964 146.924 61.9489 147.455H56.5739C56.589 146.068 56.9754 144.848 57.733 143.795C58.4905 142.735 59.5208 141.905 60.8239 141.307C62.1345 140.708 63.6269 140.409 65.3011 140.409C66.9678 140.409 68.4337 140.701 69.6989 141.284C70.964 141.867 71.9489 142.663 72.6534 143.67C73.358 144.67 73.7102 145.803 73.7102 147.068C73.7178 148.379 73.2898 149.458 72.4261 150.307C71.5701 151.155 70.4678 151.678 69.1193 151.875V152.057C70.9223 152.269 72.2822 152.852 73.1989 153.807C74.1231 154.761 74.5814 155.955 74.5739 157.386C74.5739 158.735 74.1761 159.932 73.3807 160.977C72.5928 162.015 71.4943 162.833 70.0852 163.432C68.6837 164.023 67.0739 164.318 65.2557 164.318ZM88.5653 139.636L81.0653 167.5H76.3267L83.8267 139.636H88.5653ZM100.216 164.568C98.1856 164.568 96.4356 164.087 94.9659 163.125C93.4962 162.155 92.3636 160.765 91.5682 158.955C90.7727 157.136 90.3788 154.951 90.3864 152.398C90.3939 149.845 90.7917 147.678 91.5795 145.898C92.375 144.11 93.5038 142.75 94.9659 141.818C96.4356 140.879 98.1856 140.409 100.216 140.409C102.246 140.409 103.996 140.879 105.466 141.818C106.943 142.75 108.08 144.11 108.875 145.898C109.67 147.686 110.064 149.852 110.057 152.398C110.057 154.958 109.659 157.148 108.864 158.966C108.068 160.784 106.936 162.174 105.466 163.136C104.004 164.091 102.254 164.568 100.216 164.568ZM100.216 159.966C101.428 159.966 102.409 159.348 103.159 158.114C103.909 156.871 104.28 154.966 104.273 152.398C104.273 150.716 104.102 149.33 103.761 148.239C103.42 147.14 102.947 146.322 102.341 145.784C101.735 145.246 101.027 144.977 100.216 144.977C99.0114 144.977 98.0379 145.587 97.2955 146.807C96.553 148.019 96.178 149.883 96.1705 152.398C96.1629 154.102 96.3258 155.515 96.6591 156.636C97 157.758 97.4773 158.595 98.0909 159.148C98.7045 159.693 99.4129 159.966 100.216 159.966ZM124.04 140.727V164H118.426V145.977H118.29L113.085 149.159V144.295L118.824 140.727H124.04Z" fill="white"/>
<path d="M37.4148 113.273V114.864H32.3977V113.273H37.4148ZM33.6364 111.182H35.6932V119.375C35.6932 119.652 35.7348 119.864 35.8182 120.011C35.9053 120.155 36.0189 120.254 36.1591 120.307C36.2992 120.36 36.4545 120.386 36.625 120.386C36.7538 120.386 36.8712 120.377 36.9773 120.358C37.0871 120.339 37.1705 120.322 37.2273 120.307L37.5739 121.915C37.464 121.953 37.3068 121.994 37.1023 122.04C36.9015 122.085 36.6553 122.112 36.3636 122.119C35.8485 122.134 35.3845 122.057 34.9716 121.886C34.5587 121.712 34.2311 121.443 33.9886 121.08C33.75 120.716 33.6326 120.261 33.6364 119.716V111.182ZM42.9048 122.17C42.0298 122.17 41.2741 121.989 40.6378 121.625C40.0052 121.258 39.5185 120.739 39.1776 120.068C38.8366 119.394 38.6662 118.6 38.6662 117.688C38.6662 116.79 38.8366 116.002 39.1776 115.324C39.5223 114.642 40.0033 114.112 40.6207 113.733C41.2382 113.35 41.9635 113.159 42.7969 113.159C43.3348 113.159 43.8423 113.246 44.3196 113.42C44.8007 113.591 45.2249 113.856 45.5923 114.216C45.9635 114.576 46.2552 115.034 46.4673 115.591C46.6795 116.144 46.7855 116.803 46.7855 117.568V118.199H39.6321V116.812H44.8139C44.8101 116.419 44.7249 116.068 44.5582 115.761C44.3916 115.451 44.1586 115.206 43.8594 115.028C43.5639 114.85 43.2192 114.761 42.8253 114.761C42.4048 114.761 42.0355 114.864 41.7173 115.068C41.3991 115.269 41.151 115.534 40.973 115.864C40.7988 116.189 40.7098 116.547 40.706 116.938V118.148C40.706 118.655 40.7988 119.091 40.9844 119.455C41.17 119.814 41.4295 120.091 41.7628 120.284C42.0961 120.473 42.4863 120.568 42.9332 120.568C43.2325 120.568 43.5033 120.527 43.7457 120.443C43.9882 120.356 44.1984 120.229 44.3764 120.062C44.5545 119.896 44.6889 119.689 44.7798 119.443L46.7003 119.659C46.5791 120.167 46.348 120.61 46.0071 120.989C45.67 121.364 45.2382 121.655 44.7116 121.864C44.1851 122.068 43.5829 122.17 42.9048 122.17ZM48.5256 122V113.273H50.5199V114.727H50.6108C50.7699 114.223 51.0426 113.835 51.429 113.562C51.8191 113.286 52.2642 113.148 52.7642 113.148C52.8778 113.148 53.0047 113.153 53.1449 113.165C53.2888 113.172 53.4081 113.186 53.5028 113.205V115.097C53.4157 115.066 53.2775 115.04 53.0881 115.017C52.9025 114.991 52.7225 114.977 52.5483 114.977C52.1733 114.977 51.8362 115.059 51.5369 115.222C51.2415 115.381 51.0085 115.602 50.8381 115.886C50.6676 116.17 50.5824 116.498 50.5824 116.869V122H48.5256ZM58.3168 122.17C57.4455 122.17 56.6974 121.979 56.0724 121.597C55.4512 121.214 54.9721 120.686 54.6349 120.011C54.3016 119.333 54.1349 118.553 54.1349 117.67C54.1349 116.784 54.3054 116.002 54.6463 115.324C54.9872 114.642 55.4683 114.112 56.0895 113.733C56.7145 113.35 57.4531 113.159 58.3054 113.159C59.0137 113.159 59.6406 113.29 60.1861 113.551C60.7353 113.809 61.1728 114.174 61.4986 114.648C61.8243 115.117 62.0099 115.667 62.0554 116.295H60.0895C60.0099 115.875 59.8205 115.525 59.5213 115.244C59.2259 114.96 58.83 114.818 58.3338 114.818C57.9134 114.818 57.544 114.932 57.2259 115.159C56.9077 115.383 56.6596 115.705 56.4815 116.125C56.3073 116.545 56.2202 117.049 56.2202 117.636C56.2202 118.231 56.3073 118.742 56.4815 119.17C56.6558 119.595 56.9001 119.922 57.2145 120.153C57.5327 120.381 57.9058 120.494 58.3338 120.494C58.6368 120.494 58.9077 120.437 59.1463 120.324C59.3887 120.206 59.5914 120.038 59.7543 119.818C59.9171 119.598 60.0289 119.331 60.0895 119.017H62.0554C62.0062 119.634 61.8243 120.182 61.5099 120.659C61.1955 121.133 60.7675 121.504 60.2259 121.773C59.6842 122.038 59.0478 122.17 58.3168 122.17ZM57.7259 121.955H58.8395L58.7486 122.438C59.1046 122.491 59.4058 122.627 59.652 122.847C59.902 123.07 60.027 123.39 60.027 123.807C60.0308 124.345 59.7902 124.777 59.3054 125.102C58.8205 125.428 58.1293 125.591 57.2315 125.591L57.2088 124.58C57.6444 124.58 57.991 124.521 58.2486 124.403C58.5062 124.29 58.6368 124.108 58.6406 123.858C58.6482 123.616 58.5573 123.438 58.3679 123.324C58.1823 123.214 57.8868 123.138 57.4815 123.097L57.7259 121.955ZM66.2557 122.176C65.7027 122.176 65.2045 122.078 64.7614 121.881C64.322 121.68 63.9735 121.384 63.7159 120.994C63.4621 120.604 63.3352 120.123 63.3352 119.551C63.3352 119.059 63.4261 118.652 63.608 118.33C63.7898 118.008 64.0379 117.75 64.3523 117.557C64.6667 117.364 65.0208 117.218 65.4148 117.119C65.8125 117.017 66.2235 116.943 66.6477 116.898C67.1591 116.845 67.5739 116.797 67.892 116.756C68.2102 116.71 68.4413 116.642 68.5852 116.551C68.733 116.456 68.8068 116.311 68.8068 116.114V116.08C68.8068 115.652 68.6799 115.32 68.4261 115.085C68.1723 114.85 67.8068 114.733 67.3295 114.733C66.8258 114.733 66.4261 114.843 66.1307 115.062C65.839 115.282 65.642 115.542 65.5398 115.841L63.6193 115.568C63.7708 115.038 64.0208 114.595 64.3693 114.239C64.7178 113.879 65.1439 113.61 65.6477 113.432C66.1515 113.25 66.7083 113.159 67.3182 113.159C67.7386 113.159 68.1572 113.208 68.5739 113.307C68.9905 113.405 69.3712 113.568 69.7159 113.795C70.0606 114.019 70.3371 114.324 70.5455 114.71C70.7576 115.097 70.8636 115.58 70.8636 116.159V122H68.8864V120.801H68.8182C68.6932 121.044 68.517 121.271 68.2898 121.483C68.0663 121.691 67.7841 121.86 67.4432 121.989C67.1061 122.114 66.7102 122.176 66.2557 122.176ZM66.7898 120.665C67.2027 120.665 67.5606 120.583 67.8636 120.42C68.1667 120.254 68.3996 120.034 68.5625 119.761C68.7292 119.489 68.8125 119.191 68.8125 118.869V117.841C68.7481 117.894 68.6383 117.943 68.483 117.989C68.3314 118.034 68.161 118.074 67.9716 118.108C67.7822 118.142 67.5947 118.172 67.4091 118.199C67.2235 118.225 67.0625 118.248 66.9261 118.267C66.6193 118.309 66.3447 118.377 66.1023 118.472C65.8598 118.566 65.6686 118.699 65.5284 118.869C65.3883 119.036 65.3182 119.252 65.3182 119.517C65.3182 119.896 65.4564 120.182 65.733 120.375C66.0095 120.568 66.3617 120.665 66.7898 120.665ZM78.2216 116.307V118H72.983V116.307H78.2216ZM84.8054 113.273V114.864H79.6463V113.273H84.8054ZM80.9361 122V112.449C80.9361 111.862 81.0573 111.373 81.2997 110.983C81.5459 110.593 81.8755 110.301 82.2884 110.108C82.7012 109.915 83.1596 109.818 83.6634 109.818C84.0194 109.818 84.3357 109.847 84.6122 109.903C84.8887 109.96 85.0933 110.011 85.2259 110.057L84.8168 111.648C84.7296 111.621 84.6198 111.595 84.4872 111.568C84.3546 111.538 84.2069 111.523 84.044 111.523C83.6615 111.523 83.3906 111.616 83.2315 111.801C83.0762 111.983 82.9986 112.244 82.9986 112.585V122H80.9361ZM89.9517 122.17C89.0767 122.17 88.321 121.989 87.6847 121.625C87.0521 121.258 86.5653 120.739 86.2244 120.068C85.8835 119.394 85.7131 118.6 85.7131 117.688C85.7131 116.79 85.8835 116.002 86.2244 115.324C86.5691 114.642 87.0502 114.112 87.6676 113.733C88.285 113.35 89.0104 113.159 89.8438 113.159C90.3816 113.159 90.8892 113.246 91.3665 113.42C91.8475 113.591 92.2718 113.856 92.6392 114.216C93.0104 114.576 93.3021 115.034 93.5142 115.591C93.7263 116.144 93.8324 116.803 93.8324 117.568V118.199H86.679V116.812H91.8608C91.857 116.419 91.7718 116.068 91.6051 115.761C91.4384 115.451 91.2055 115.206 90.9062 115.028C90.6108 114.85 90.2661 114.761 89.8722 114.761C89.4517 114.761 89.0824 114.864 88.7642 115.068C88.446 115.269 88.1979 115.534 88.0199 115.864C87.8456 116.189 87.7566 116.547 87.7528 116.938V118.148C87.7528 118.655 87.8456 119.091 88.0312 119.455C88.2169 119.814 88.4763 120.091 88.8097 120.284C89.143 120.473 89.5331 120.568 89.9801 120.568C90.2794 120.568 90.5502 120.527 90.7926 120.443C91.035 120.356 91.2453 120.229 91.4233 120.062C91.6013 119.896 91.7358 119.689 91.8267 119.443L93.7472 119.659C93.6259 120.167 93.3949 120.61 93.054 120.989C92.7169 121.364 92.285 121.655 91.7585 121.864C91.232 122.068 90.6297 122.17 89.9517 122.17ZM95.5724 122V113.273H97.6293V122H95.5724ZM96.6065 112.034C96.2808 112.034 96.0005 111.926 95.7656 111.71C95.5308 111.491 95.4134 111.227 95.4134 110.92C95.4134 110.61 95.5308 110.347 95.7656 110.131C96.0005 109.911 96.2808 109.801 96.6065 109.801C96.9361 109.801 97.2164 109.911 97.4474 110.131C97.6823 110.347 97.7997 110.61 97.7997 110.92C97.7997 111.227 97.6823 111.491 97.4474 111.71C97.2164 111.926 96.9361 112.034 96.6065 112.034ZM99.7443 122V113.273H101.739V114.727H101.83C101.989 114.223 102.261 113.835 102.648 113.562C103.038 113.286 103.483 113.148 103.983 113.148C104.097 113.148 104.223 113.153 104.364 113.165C104.508 113.172 104.627 113.186 104.722 113.205V115.097C104.634 115.066 104.496 115.04 104.307 115.017C104.121 114.991 103.941 114.977 103.767 114.977C103.392 114.977 103.055 115.059 102.756 115.222C102.46 115.381 102.227 115.602 102.057 115.886C101.886 116.17 101.801 116.498 101.801 116.869V122H99.7443ZM108.443 122.176C107.89 122.176 107.392 122.078 106.949 121.881C106.509 121.68 106.161 121.384 105.903 120.994C105.65 120.604 105.523 120.123 105.523 119.551C105.523 119.059 105.614 118.652 105.795 118.33C105.977 118.008 106.225 117.75 106.54 117.557C106.854 117.364 107.208 117.218 107.602 117.119C108 117.017 108.411 116.943 108.835 116.898C109.347 116.845 109.761 116.797 110.08 116.756C110.398 116.71 110.629 116.642 110.773 116.551C110.92 116.456 110.994 116.311 110.994 116.114V116.08C110.994 115.652 110.867 115.32 110.614 115.085C110.36 114.85 109.994 114.733 109.517 114.733C109.013 114.733 108.614 114.843 108.318 115.062C108.027 115.282 107.83 115.542 107.727 115.841L105.807 115.568C105.958 115.038 106.208 114.595 106.557 114.239C106.905 113.879 107.331 113.61 107.835 113.432C108.339 113.25 108.896 113.159 109.506 113.159C109.926 113.159 110.345 113.208 110.761 113.307C111.178 113.405 111.559 113.568 111.903 113.795C112.248 114.019 112.525 114.324 112.733 114.71C112.945 115.097 113.051 115.58 113.051 116.159V122H111.074V120.801H111.006C110.881 121.044 110.705 121.271 110.477 121.483C110.254 121.691 109.972 121.86 109.631 121.989C109.294 122.114 108.898 122.176 108.443 122.176ZM108.977 120.665C109.39 120.665 109.748 120.583 110.051 120.42C110.354 120.254 110.587 120.034 110.75 119.761C110.917 119.489 111 119.191 111 118.869V117.841C110.936 117.894 110.826 117.943 110.67 117.989C110.519 118.034 110.348 118.074 110.159 118.108C109.97 118.142 109.782 118.172 109.597 118.199C109.411 118.225 109.25 118.248 109.114 118.267C108.807 118.309 108.532 118.377 108.29 118.472C108.047 118.566 107.856 118.699 107.716 118.869C107.576 119.036 107.506 119.252 107.506 119.517C107.506 119.896 107.644 120.182 107.92 120.375C108.197 120.568 108.549 120.665 108.977 120.665Z" fill="#A1A1AA"/>
<rect x="32" y="188" width="326" height="12" rx="6" fill="#3F3F46"/>
<rect x="32" y="188" width="255.301" height="12" rx="6" fill="#7C3AED"/>
<path d="M59 76H37" stroke="#A1A1AA" stroke-width="2" stroke-linecap="round" stroke-linejoin="round"/>
<path d="M46 67L37 76L46 85" stroke="#A1A1AA" stroke-width="2" stroke-linecap="round" stroke-linejoin="round"/>
</g>
<defs>
<clipPath id="clip0_2_45">
<rect width="390" height="844" fill="white"/>
</clipPath>
</defs>
</svg>
