<svg width="390" height="844" viewBox="0 0 390 844" fill="none" xmlns="http://www.w3.org/2000/svg">
<g clip-path="url(#clip0_5_114)">
<rect width="390" height="844" fill="#09090A"/>
<rect x="124.8" y="830.96" width="140.4" height="5.20001" rx="2.60001" fill="white"/>
<path d="M85 0H304C301.894 0.602689 300.418 2.49525 300.345 4.68446L300.317 5.5618C300.317 19.0587 289.375 30 275.878 30H113.122C99.6249 30 88.6835 19.0587 88.6835 5.5618L88.6545 4.68447C88.5823 2.49525 87.1059 0.602689 85 0Z" fill="#1E1E1E"/>
<path opacity="0.35" d="M351.5 22C351.5 20.8034 352.47 19.8334 353.667 19.8334H370.333C371.53 19.8334 372.5 20.8034 372.5 22V28C372.5 29.1967 371.53 30.1667 370.333 30.1667H353.667C352.47 30.1667 351.5 29.1967 351.5 28V22Z" fill="white" stroke="#1E1E1E"/>
<path opacity="0.4" d="M374 23V27C374.805 26.6613 375.328 25.8732 375.328 25C375.328 24.1269 374.805 23.3388 374 23Z" fill="white"/>
<path d="M353 22.6667C353 21.9303 353.597 21.3334 354.333 21.3334H369.667C370.403 21.3334 371 21.9303 371 22.6667V27.3334C371 28.0698 370.403 28.6667 369.667 28.6667H354.333C353.597 28.6667 353 28.0698 353 27.3334V22.6667Z" fill="white"/>
<path fill-rule="evenodd" clip-rule="evenodd" d="M338.33 21.608C340.546 21.6081 342.677 22.4596 344.283 23.9863C344.404 24.1042 344.598 24.1027 344.717 23.983L345.873 22.8163C345.933 22.7556 345.967 22.6734 345.966 22.5878C345.966 22.5022 345.931 22.4204 345.87 22.3603C341.655 18.3208 335.005 18.3208 330.79 22.3603C330.729 22.4203 330.694 22.5021 330.694 22.5877C330.693 22.6733 330.727 22.7556 330.787 22.8163L331.943 23.983C332.062 24.1029 332.256 24.1044 332.377 23.9863C333.983 22.4595 336.114 21.608 338.33 21.608ZM338.33 25.4037C339.548 25.4036 340.722 25.8561 341.624 26.6733C341.746 26.7893 341.939 26.7868 342.058 26.6677L343.212 25.501C343.273 25.4398 343.307 25.3568 343.306 25.2705C343.305 25.1843 343.27 25.102 343.208 25.042C340.459 22.4856 336.204 22.4856 333.455 25.042C333.393 25.102 333.358 25.1843 333.357 25.2706C333.356 25.3569 333.39 25.4399 333.451 25.501L334.605 26.6677C334.724 26.7868 334.917 26.7893 335.039 26.6733C335.941 25.8567 337.114 25.4042 338.33 25.4037ZM340.643 27.9575C340.645 28.044 340.611 28.1274 340.549 28.188L338.552 30.2037C338.493 30.2629 338.414 30.2963 338.33 30.2963C338.247 30.2963 338.167 30.2629 338.109 30.2037L336.111 28.188C336.049 28.1274 336.015 28.0439 336.017 27.9574C336.019 27.8709 336.056 27.789 336.121 27.731C337.396 26.6521 339.264 26.6521 340.54 27.731C340.604 27.789 340.642 27.871 340.643 27.9575Z" fill="white"/>
<path fill-rule="evenodd" clip-rule="evenodd" d="M324.667 19.6666H323.667C323.114 19.6666 322.667 20.1143 322.667 20.6666V29.3333C322.667 29.8856 323.114 30.3333 323.667 30.3333H324.667C325.219 30.3333 325.667 29.8856 325.667 29.3333V20.6666C325.667 20.1143 325.219 19.6666 324.667 19.6666ZM319 22H320C320.552 22 321 22.4477 321 23V29.3333C321 29.8856 320.552 30.3333 320 30.3333H319C318.448 30.3333 318 29.8856 318 29.3333V23C318 22.4477 318.448 22 319 22ZM315.333 24.3333H314.333C313.781 24.3333 313.333 24.781 313.333 25.3333V29.3333C313.333 29.8856 313.781 30.3333 314.333 30.3333H315.333C315.886 30.3333 316.333 29.8856 316.333 29.3333V25.3333C316.333 24.781 315.886 24.3333 315.333 24.3333ZM310.667 26.3333H309.667C309.114 26.3333 308.667 26.781 308.667 27.3333V29.3333C308.667 29.8856 309.114 30.3333 309.667 30.3333H310.667C311.219 30.3333 311.667 29.8856 311.667 29.3333V27.3333C311.667 26.781 311.219 26.3333 310.667 26.3333Z" fill="white"/>
<path d="M37.3207 30.2563C40.0087 30.2563 41.6053 28.1543 41.6053 24.5947C41.6053 23.2544 41.349 22.1265 40.8583 21.2549C40.1478 19.8999 38.9247 19.1675 37.3793 19.1675C35.0795 19.1675 33.4535 20.7129 33.4535 22.8809C33.4535 24.917 34.9183 26.3965 36.9325 26.3965C38.1703 26.3965 39.1737 25.8179 39.6718 24.8145H39.6937C39.6937 24.8145 39.723 24.8145 39.7303 24.8145C39.745 24.8145 39.7963 24.8145 39.7963 24.8145C39.7963 27.2314 38.8807 28.6743 37.3353 28.6743C36.4271 28.6743 35.724 28.1763 35.4823 27.3779H33.6C33.9149 29.1138 35.3871 30.2563 37.3207 30.2563ZM37.3866 24.895C36.1708 24.895 35.3065 24.0308 35.3065 22.8223C35.3065 21.6431 36.2147 20.7422 37.3939 20.7422C38.5731 20.7422 39.4813 21.6577 39.4813 22.8516C39.4813 24.0308 38.5951 24.895 37.3866 24.895Z" fill="white"/>
<path d="M44.6965 30.1538C45.3923 30.1538 45.8683 29.6558 45.8683 28.9966C45.8683 28.3301 45.3923 27.8394 44.6965 27.8394C44.008 27.8394 43.5246 28.3301 43.5246 28.9966C43.5246 29.6558 44.008 30.1538 44.6965 30.1538ZM44.6965 24.6606C45.3923 24.6606 45.8683 24.1699 45.8683 23.5107C45.8683 22.8442 45.3923 22.3535 44.6965 22.3535C44.008 22.3535 43.5246 22.8442 43.5246 23.5107C43.5246 24.1699 44.008 24.6606 44.6965 24.6606Z" fill="white"/>
<path d="M52.7241 30H54.5332V28.0298H55.9614V26.4331H54.5332V19.4312H51.8672C49.9995 22.2437 48.5127 24.5947 47.5605 26.3452V28.0298H52.7241V30ZM49.311 26.3672C50.5415 24.1992 51.6401 22.4634 52.6509 20.9692H52.7534V26.4771H49.311V26.3672Z" fill="white"/>
<path d="M59.99 30H61.8797V19.4312H59.9973L57.2361 21.3647V23.1812L59.8655 21.3354H59.99V30Z" fill="white"/>
<rect x="51.25" y="385.25" width="37.5" height="37.5" rx="8.75" fill="#18181B" stroke="#27272A" stroke-width="2.5"/>
<rect x="101.25" y="385.25" width="37.5" height="37.5" rx="8.75" fill="#4C1D95" stroke="#6D28D9" stroke-width="2.5"/>
<rect x="151.25" y="385.25" width="37.5" height="37.5" rx="8.75" fill="#5B21B6" stroke="#7C3AED" stroke-width="2.5"/>
<rect x="201.25" y="385.25" width="37.5" height="37.5" rx="8.75" fill="#6D28D9" stroke="#8B5CF6" stroke-width="2.5"/>
<rect x="251.25" y="385.25" width="37.5" height="37.5" rx="8.75" fill="#7C3AED" stroke="#A78BFA" stroke-width="2.5"/>
<rect x="301.25" y="385.25" width="37.5" height="37.5" rx="8.75" fill="#8B5CF6" stroke="#C4B5FD" stroke-width="2.5"/>
<path d="M124.545 450.182C124.545 451.436 124.311 452.509 123.841 453.403C123.375 454.294 122.739 454.975 121.932 455.449C121.129 455.922 120.218 456.159 119.199 456.159C118.18 456.159 117.267 455.922 116.46 455.449C115.657 454.972 115.021 454.288 114.551 453.398C114.085 452.504 113.852 451.432 113.852 450.182C113.852 448.928 114.085 447.856 114.551 446.966C115.021 446.072 115.657 445.388 116.46 444.915C117.267 444.441 118.18 444.205 119.199 444.205C120.218 444.205 121.129 444.441 121.932 444.915C122.739 445.388 123.375 446.072 123.841 446.966C124.311 447.856 124.545 448.928 124.545 450.182ZM122.426 450.182C122.426 449.299 122.288 448.555 122.011 447.949C121.739 447.339 121.36 446.879 120.875 446.568C120.39 446.254 119.831 446.097 119.199 446.097C118.566 446.097 118.008 446.254 117.523 446.568C117.038 446.879 116.657 447.339 116.381 447.949C116.108 448.555 115.972 449.299 115.972 450.182C115.972 451.064 116.108 451.811 116.381 452.42C116.657 453.027 117.038 453.487 117.523 453.801C118.008 454.112 118.566 454.267 119.199 454.267C119.831 454.267 120.39 454.112 120.875 453.801C121.36 453.487 121.739 453.027 122.011 452.42C122.288 451.811 122.426 451.064 122.426 450.182ZM128.504 450.886V456H126.447V447.273H128.413V448.756H128.516C128.716 448.267 129.036 447.879 129.476 447.591C129.919 447.303 130.466 447.159 131.118 447.159C131.72 447.159 132.245 447.288 132.692 447.545C133.143 447.803 133.491 448.176 133.737 448.665C133.987 449.153 134.11 449.746 134.107 450.443V456H132.05V450.761C132.05 450.178 131.898 449.722 131.595 449.392C131.296 449.062 130.881 448.898 130.351 448.898C129.991 448.898 129.671 448.977 129.391 449.136C129.114 449.292 128.896 449.517 128.737 449.812C128.582 450.108 128.504 450.466 128.504 450.886ZM140.061 456.17C139.186 456.17 138.43 455.989 137.794 455.625C137.161 455.258 136.675 454.739 136.334 454.068C135.993 453.394 135.822 452.6 135.822 451.688C135.822 450.79 135.993 450.002 136.334 449.324C136.679 448.642 137.16 448.112 137.777 447.733C138.394 447.35 139.12 447.159 139.953 447.159C140.491 447.159 140.999 447.246 141.476 447.42C141.957 447.591 142.381 447.856 142.749 448.216C143.12 448.576 143.411 449.034 143.624 449.591C143.836 450.144 143.942 450.803 143.942 451.568V452.199H136.788V450.812H141.97C141.966 450.419 141.881 450.068 141.714 449.761C141.548 449.451 141.315 449.206 141.016 449.028C140.72 448.85 140.375 448.761 139.982 448.761C139.561 448.761 139.192 448.864 138.874 449.068C138.555 449.269 138.307 449.534 138.129 449.864C137.955 450.189 137.866 450.547 137.862 450.938V452.148C137.862 452.655 137.955 453.091 138.141 453.455C138.326 453.814 138.586 454.091 138.919 454.284C139.252 454.473 139.643 454.568 140.089 454.568C140.389 454.568 140.66 454.527 140.902 454.443C141.144 454.356 141.355 454.229 141.533 454.062C141.711 453.896 141.845 453.689 141.936 453.443L143.857 453.659C143.735 454.167 143.504 454.61 143.163 454.989C142.826 455.364 142.394 455.655 141.868 455.864C141.341 456.068 140.739 456.17 140.061 456.17ZM156.548 449.58L154.673 449.784C154.62 449.595 154.527 449.417 154.395 449.25C154.266 449.083 154.092 448.949 153.872 448.847C153.652 448.744 153.384 448.693 153.065 448.693C152.637 448.693 152.277 448.786 151.986 448.972C151.698 449.157 151.556 449.398 151.56 449.693C151.556 449.947 151.649 450.153 151.838 450.312C152.031 450.472 152.349 450.602 152.793 450.705L154.281 451.023C155.107 451.201 155.721 451.483 156.122 451.869C156.527 452.256 156.732 452.761 156.736 453.386C156.732 453.936 156.571 454.42 156.253 454.841C155.938 455.258 155.501 455.583 154.94 455.818C154.38 456.053 153.736 456.17 153.009 456.17C151.94 456.17 151.08 455.947 150.429 455.5C149.777 455.049 149.389 454.422 149.264 453.619L151.27 453.426C151.361 453.82 151.554 454.117 151.849 454.318C152.145 454.519 152.529 454.619 153.003 454.619C153.491 454.619 153.884 454.519 154.179 454.318C154.478 454.117 154.628 453.869 154.628 453.574C154.628 453.324 154.531 453.117 154.338 452.955C154.149 452.792 153.853 452.667 153.452 452.58L151.963 452.267C151.126 452.093 150.507 451.799 150.105 451.386C149.704 450.97 149.505 450.443 149.509 449.807C149.505 449.269 149.651 448.803 149.946 448.409C150.245 448.011 150.66 447.705 151.19 447.489C151.724 447.269 152.34 447.159 153.037 447.159C154.06 447.159 154.865 447.377 155.452 447.812C156.043 448.248 156.408 448.837 156.548 449.58ZM162.79 447.273V448.864H157.773V447.273H162.79ZM159.011 445.182H161.068V453.375C161.068 453.652 161.11 453.864 161.193 454.011C161.28 454.155 161.394 454.254 161.534 454.307C161.674 454.36 161.83 454.386 162 454.386C162.129 454.386 162.246 454.377 162.352 454.358C162.462 454.339 162.545 454.322 162.602 454.307L162.949 455.915C162.839 455.953 162.682 455.994 162.477 456.04C162.277 456.085 162.03 456.112 161.739 456.119C161.223 456.134 160.759 456.057 160.347 455.886C159.934 455.712 159.606 455.443 159.364 455.08C159.125 454.716 159.008 454.261 159.011 453.716V445.182ZM168.28 456.17C167.405 456.17 166.649 455.989 166.013 455.625C165.38 455.258 164.893 454.739 164.553 454.068C164.212 453.394 164.041 452.6 164.041 451.688C164.041 450.79 164.212 450.002 164.553 449.324C164.897 448.642 165.378 448.112 165.996 447.733C166.613 447.35 167.339 447.159 168.172 447.159C168.71 447.159 169.217 447.246 169.695 447.42C170.176 447.591 170.6 447.856 170.967 448.216C171.339 448.576 171.63 449.034 171.842 449.591C172.054 450.144 172.161 450.803 172.161 451.568V452.199H165.007V450.812H170.189C170.185 450.419 170.1 450.068 169.933 449.761C169.767 449.451 169.534 449.206 169.234 449.028C168.939 448.85 168.594 448.761 168.2 448.761C167.78 448.761 167.411 448.864 167.092 449.068C166.774 449.269 166.526 449.534 166.348 449.864C166.174 450.189 166.085 450.547 166.081 450.938V452.148C166.081 452.655 166.174 453.091 166.359 453.455C166.545 453.814 166.804 454.091 167.138 454.284C167.471 454.473 167.861 454.568 168.308 454.568C168.607 454.568 168.878 454.527 169.121 454.443C169.363 454.356 169.573 454.229 169.751 454.062C169.929 453.896 170.064 453.689 170.155 453.443L172.075 453.659C171.954 454.167 171.723 454.61 171.382 454.989C171.045 455.364 170.613 455.655 170.087 455.864C169.56 456.068 168.958 456.17 168.28 456.17ZM173.901 459.273V447.273H175.923V448.716H176.043C176.149 448.504 176.298 448.278 176.491 448.04C176.685 447.797 176.946 447.591 177.276 447.42C177.605 447.246 178.026 447.159 178.537 447.159C179.211 447.159 179.819 447.331 180.361 447.676C180.906 448.017 181.338 448.523 181.656 449.193C181.978 449.86 182.139 450.678 182.139 451.648C182.139 452.606 181.982 453.42 181.668 454.091C181.353 454.761 180.925 455.273 180.384 455.625C179.842 455.977 179.228 456.153 178.543 456.153C178.043 456.153 177.628 456.07 177.298 455.903C176.969 455.737 176.704 455.536 176.503 455.301C176.306 455.062 176.152 454.837 176.043 454.625H175.957V459.273H173.901ZM175.918 451.636C175.918 452.201 175.997 452.695 176.156 453.119C176.319 453.544 176.552 453.875 176.855 454.114C177.162 454.348 177.533 454.466 177.969 454.466C178.423 454.466 178.804 454.345 179.111 454.102C179.418 453.856 179.649 453.521 179.804 453.097C179.963 452.669 180.043 452.182 180.043 451.636C180.043 451.095 179.965 450.614 179.81 450.193C179.654 449.773 179.423 449.443 179.116 449.205C178.81 448.966 178.427 448.847 177.969 448.847C177.529 448.847 177.156 448.962 176.849 449.193C176.543 449.424 176.31 449.748 176.151 450.165C175.995 450.581 175.918 451.072 175.918 451.636ZM191.733 456.17C190.858 456.17 190.102 455.989 189.466 455.625C188.833 455.258 188.347 454.739 188.006 454.068C187.665 453.394 187.494 452.6 187.494 451.688C187.494 450.79 187.665 450.002 188.006 449.324C188.35 448.642 188.831 448.112 189.449 447.733C190.066 447.35 190.792 447.159 191.625 447.159C192.163 447.159 192.67 447.246 193.148 447.42C193.629 447.591 194.053 447.856 194.42 448.216C194.792 448.576 195.083 449.034 195.295 449.591C195.508 450.144 195.614 450.803 195.614 451.568V452.199H188.46V450.812H193.642C193.638 450.419 193.553 450.068 193.386 449.761C193.22 449.451 192.987 449.206 192.688 449.028C192.392 448.85 192.047 448.761 191.653 448.761C191.233 448.761 190.864 448.864 190.545 449.068C190.227 449.269 189.979 449.534 189.801 449.864C189.627 450.189 189.538 450.547 189.534 450.938V452.148C189.534 452.655 189.627 453.091 189.812 453.455C189.998 453.814 190.258 454.091 190.591 454.284C190.924 454.473 191.314 454.568 191.761 454.568C192.061 454.568 192.331 454.527 192.574 454.443C192.816 454.356 193.027 454.229 193.205 454.062C193.383 453.896 193.517 453.689 193.608 453.443L195.528 453.659C195.407 454.167 195.176 454.61 194.835 454.989C194.498 455.364 194.066 455.655 193.54 455.864C193.013 456.068 192.411 456.17 191.733 456.17ZM204.899 447.273L201.791 456H199.518L196.411 447.273H198.604L200.609 453.756H200.7L202.712 447.273H204.899ZM209.889 456.17C209.014 456.17 208.259 455.989 207.622 455.625C206.99 455.258 206.503 454.739 206.162 454.068C205.821 453.394 205.651 452.6 205.651 451.688C205.651 450.79 205.821 450.002 206.162 449.324C206.507 448.642 206.988 448.112 207.605 447.733C208.223 447.35 208.948 447.159 209.781 447.159C210.319 447.159 210.827 447.246 211.304 447.42C211.785 447.591 212.209 447.856 212.577 448.216C212.948 448.576 213.24 449.034 213.452 449.591C213.664 450.144 213.77 450.803 213.77 451.568V452.199H206.616V450.812H211.798C211.795 450.419 211.709 450.068 211.543 449.761C211.376 449.451 211.143 449.206 210.844 449.028C210.548 448.85 210.204 448.761 209.81 448.761C209.389 448.761 209.02 448.864 208.702 449.068C208.384 449.269 208.135 449.534 207.957 449.864C207.783 450.189 207.694 450.547 207.69 450.938V452.148C207.69 452.655 207.783 453.091 207.969 453.455C208.154 453.814 208.414 454.091 208.747 454.284C209.08 454.473 209.471 454.568 209.918 454.568C210.217 454.568 210.488 454.527 210.73 454.443C210.973 454.356 211.183 454.229 211.361 454.062C211.539 453.896 211.673 453.689 211.764 453.443L213.685 453.659C213.563 454.167 213.332 454.61 212.991 454.989C212.654 455.364 212.223 455.655 211.696 455.864C211.17 456.068 210.567 456.17 209.889 456.17ZM215.51 456V447.273H217.504V448.727H217.595C217.754 448.223 218.027 447.835 218.413 447.562C218.804 447.286 219.249 447.148 219.749 447.148C219.862 447.148 219.989 447.153 220.129 447.165C220.273 447.172 220.393 447.186 220.487 447.205V449.097C220.4 449.066 220.262 449.04 220.072 449.017C219.887 448.991 219.707 448.977 219.533 448.977C219.158 448.977 218.821 449.059 218.521 449.222C218.226 449.381 217.993 449.602 217.822 449.886C217.652 450.17 217.567 450.498 217.567 450.869V456H215.51ZM223.398 459.273C223.117 459.273 222.858 459.25 222.619 459.205C222.384 459.163 222.197 459.114 222.057 459.057L222.534 457.455C222.833 457.542 223.1 457.583 223.335 457.58C223.57 457.576 223.777 457.502 223.955 457.358C224.136 457.218 224.29 456.983 224.415 456.653L224.591 456.182L221.426 447.273H223.608L225.619 453.864H225.71L227.727 447.273H229.915L226.42 457.057C226.258 457.519 226.042 457.915 225.773 458.244C225.504 458.578 225.174 458.831 224.784 459.006C224.398 459.184 223.936 459.273 223.398 459.273ZM238.545 456.153C237.86 456.153 237.246 455.977 236.705 455.625C236.163 455.273 235.735 454.761 235.42 454.091C235.106 453.42 234.949 452.606 234.949 451.648C234.949 450.678 235.108 449.86 235.426 449.193C235.748 448.523 236.182 448.017 236.727 447.676C237.273 447.331 237.881 447.159 238.551 447.159C239.063 447.159 239.483 447.246 239.812 447.42C240.142 447.591 240.403 447.797 240.597 448.04C240.79 448.278 240.939 448.504 241.045 448.716H241.131V444.364H243.193V456H241.17V454.625H241.045C240.939 454.837 240.786 455.062 240.585 455.301C240.384 455.536 240.119 455.737 239.79 455.903C239.46 456.07 239.045 456.153 238.545 456.153ZM239.119 454.466C239.555 454.466 239.926 454.348 240.233 454.114C240.54 453.875 240.773 453.544 240.932 453.119C241.091 452.695 241.17 452.201 241.17 451.636C241.17 451.072 241.091 450.581 240.932 450.165C240.777 449.748 240.545 449.424 240.239 449.193C239.936 448.962 239.563 448.847 239.119 448.847C238.661 448.847 238.278 448.966 237.972 449.205C237.665 449.443 237.434 449.773 237.278 450.193C237.123 450.614 237.045 451.095 237.045 451.636C237.045 452.182 237.123 452.669 237.278 453.097C237.438 453.521 237.67 453.856 237.977 454.102C238.288 454.345 238.669 454.466 239.119 454.466ZM247.896 456.176C247.343 456.176 246.845 456.078 246.402 455.881C245.963 455.68 245.614 455.384 245.357 454.994C245.103 454.604 244.976 454.123 244.976 453.551C244.976 453.059 245.067 452.652 245.249 452.33C245.43 452.008 245.679 451.75 245.993 451.557C246.307 451.364 246.661 451.218 247.055 451.119C247.453 451.017 247.864 450.943 248.288 450.898C248.8 450.845 249.214 450.797 249.533 450.756C249.851 450.71 250.082 450.642 250.226 450.551C250.374 450.456 250.447 450.311 250.447 450.114V450.08C250.447 449.652 250.321 449.32 250.067 449.085C249.813 448.85 249.447 448.733 248.97 448.733C248.466 448.733 248.067 448.843 247.771 449.062C247.48 449.282 247.283 449.542 247.18 449.841L245.26 449.568C245.411 449.038 245.661 448.595 246.01 448.239C246.358 447.879 246.785 447.61 247.288 447.432C247.792 447.25 248.349 447.159 248.959 447.159C249.379 447.159 249.798 447.208 250.214 447.307C250.631 447.405 251.012 447.568 251.357 447.795C251.701 448.019 251.978 448.324 252.186 448.71C252.398 449.097 252.504 449.58 252.504 450.159V456H250.527V454.801H250.459C250.334 455.044 250.158 455.271 249.93 455.483C249.707 455.691 249.425 455.86 249.084 455.989C248.747 456.114 248.351 456.176 247.896 456.176ZM248.43 454.665C248.843 454.665 249.201 454.583 249.504 454.42C249.807 454.254 250.04 454.034 250.203 453.761C250.37 453.489 250.453 453.191 250.453 452.869V451.841C250.389 451.894 250.279 451.943 250.124 451.989C249.972 452.034 249.802 452.074 249.612 452.108C249.423 452.142 249.235 452.172 249.05 452.199C248.864 452.225 248.703 452.248 248.567 452.267C248.26 452.309 247.985 452.377 247.743 452.472C247.5 452.566 247.309 452.699 247.169 452.869C247.029 453.036 246.959 453.252 246.959 453.517C246.959 453.896 247.097 454.182 247.374 454.375C247.65 454.568 248.002 454.665 248.43 454.665ZM255.538 459.273C255.258 459.273 254.999 459.25 254.76 459.205C254.525 459.163 254.338 459.114 254.197 459.057L254.675 457.455C254.974 457.542 255.241 457.583 255.476 457.58C255.711 457.576 255.917 457.502 256.095 457.358C256.277 457.218 256.43 456.983 256.555 456.653L256.732 456.182L253.567 447.273H255.749L257.76 453.864H257.851L259.868 447.273H262.055L258.561 457.057C258.398 457.519 258.182 457.915 257.913 458.244C257.644 458.578 257.315 458.831 256.925 459.006C256.538 459.184 256.076 459.273 255.538 459.273ZM264.199 456.125C263.854 456.125 263.559 456.004 263.312 455.761C263.066 455.519 262.945 455.223 262.949 454.875C262.945 454.534 263.066 454.242 263.312 454C263.559 453.758 263.854 453.636 264.199 453.636C264.532 453.636 264.822 453.758 265.068 454C265.318 454.242 265.445 454.534 265.449 454.875C265.445 455.106 265.384 455.316 265.267 455.506C265.153 455.695 265.002 455.847 264.812 455.96C264.627 456.07 264.422 456.125 264.199 456.125ZM268.839 456.125C268.495 456.125 268.199 456.004 267.953 455.761C267.707 455.519 267.586 455.223 267.589 454.875C267.586 454.534 267.707 454.242 267.953 454C268.199 453.758 268.495 453.636 268.839 453.636C269.173 453.636 269.463 453.758 269.709 454C269.959 454.242 270.086 454.534 270.089 454.875C270.086 455.106 270.025 455.316 269.908 455.506C269.794 455.695 269.643 455.847 269.453 455.96C269.268 456.07 269.063 456.125 268.839 456.125ZM273.48 456.125C273.135 456.125 272.84 456.004 272.594 455.761C272.348 455.519 272.226 455.223 272.23 454.875C272.226 454.534 272.348 454.242 272.594 454C272.84 453.758 273.135 453.636 273.48 453.636C273.813 453.636 274.103 453.758 274.349 454C274.599 454.242 274.726 454.534 274.73 454.875C274.726 455.106 274.666 455.316 274.548 455.506C274.435 455.695 274.283 455.847 274.094 455.96C273.908 456.07 273.704 456.125 273.48 456.125Z" fill="#A1A1AA"/>
</g>
<defs>
<clipPath id="clip0_5_114">
<rect width="390" height="844" fill="white"/>
</clipPath>
</defs>
</svg>
